<svg xmlns="http://www.w3.org/2000/svg" xmlns:xlink="http://www.w3.org/1999/xlink" viewBox="0 0 128.26 39.6"><defs><style>.cls-1{fill:#1e1e2d;}.cls-2{fill:url(#Gradiente_sem_nome_11);}.cls-3{fill:url(#Gradiente_sem_nome_22);}.cls-4{fill:aqua;}</style><linearGradient id="Gradiente_sem_nome_11" x1="31.77" y1="35.63" x2="22.25" y2="26.11" gradientUnits="userSpaceOnUse"><stop offset="0" stop-color="#b321fe"/><stop offset="1" stop-color="#8321fe"/></linearGradient><linearGradient id="Gradiente_sem_nome_22" x1="26.23" y1="8.85" x2="4.56" y2="30.51" gradientUnits="userSpaceOnUse"><stop offset="0" stop-color="aqua"/><stop offset="0.5" stop-color="#08e1fe"/><stop offset="1" stop-color="#0593fe"/></linearGradient></defs><title>Ativo 9</title><g id="Camada_2" data-name="Camada 2"><g id="Camada_1-2" data-name="Camada 1"><path class="cls-1" d="M111.64,28.86c0-.23.06-.27.27-.27H112c.23,0,.27,0,.27.27v2a1.36,1.36,0,0,1,1.32-.62A1.56,1.56,0,0,1,115.34,32v.78c0,1.17-.58,1.76-1.85,1.76s-1.85-.59-1.85-1.76ZM114.7,32c0-.82-.29-1.18-1.21-1.18s-1.22.37-1.22,1.18v.78c0,.81.3,1.17,1.22,1.17s1.21-.36,1.21-1.17Z"/><path class="cls-1" d="M119.42,33.25c0,.94-.55,1.33-1.77,1.33-1,0-1.58-.38-1.58-1.26s.57-1.23,1.72-1.23h1v-.51c0-.57-.39-.77-1.1-.77a4.64,4.64,0,0,0-.93.09c-.2.05-.27,0-.27-.21v-.06c0-.2,0-.25.25-.29a4.32,4.32,0,0,1,.91-.09c1.19,0,1.78.44,1.78,1.33Zm-.64-.67h-1c-.76,0-1.1.21-1.1.74s.31.72.94.72c.78,0,1.14-.18,1.14-.81Z"/><path class="cls-1" d="M121,34.23c0,.23,0,.27-.27.27h-.09c-.21,0-.27,0-.27-.27v-2.4c0-1,.59-1.58,1.76-1.58s1.76.56,1.76,1.58v2.4c0,.23,0,.27-.27.27h-.1c-.23,0-.27,0-.27-.27v-2.4c0-.67-.26-1-1.12-1s-1.13.32-1.13,1Z"/><path class="cls-1" d="M124.93,28.86c0-.23.06-.27.27-.27h.09c.23,0,.27,0,.27.27v5.37c0,.23,0,.27-.27.27h-.09c-.21,0-.27,0-.27-.27Zm2.22,1.73a.69.69,0,0,1,.6-.25h.1c.28,0,.3.05.11.25L126.64,32a.53.53,0,0,0-.17.32.48.48,0,0,0,.17.33l1.49,1.61c.2.22.17.26-.11.26h-.1a.65.65,0,0,1-.6-.26L126.19,33a1.08,1.08,0,0,1-.35-.73,1,1,0,0,1,.35-.68Z"/><path class="cls-1" d="M44.17,18.43c0-3.41,2-5.47,6-5.47a8.13,8.13,0,0,1,2,.26c.86.21,1,.44,1,1.3v.34c0,.91-.26,1.1-1.09.86a6,6,0,0,0-1.93-.26c-2.5,0-3.38.83-3.38,3v2.45c0,2.26,1,3,3.57,3a11.25,11.25,0,0,0,2-.24c.86-.18,1.07,0,1.07.89v.31c0,.86-.24,1.09-1.09,1.3a8.34,8.34,0,0,1-2.11.26c-4.17,0-6.13-1.82-6.13-5.47Z"/><path class="cls-1" d="M65.87,22.29c0,2.89-1.69,4.16-5.54,4.16-3.52,0-5.29-1.32-5.29-4s1.87-3.93,5.31-3.93h2.87V17.23c0-1.53-1-2-3.08-2a13.72,13.72,0,0,0-2.73.24c-.76.13-1,0-1-.84v-.36c0-.76.21-1,.94-1.12A16.33,16.33,0,0,1,60,13c3.77,0,5.88,1.17,5.88,4.27Zm-2.65-1.75H60.35c-1.8,0-2.63.52-2.63,1.85s1,1.8,2.55,1.8c2,0,2.95-.39,2.95-2Z"/><path class="cls-1" d="M67.41,18.51c0-3.73,2.19-5.55,5.94-5.55,4,0,6,1.77,6,5.55v2.27c0,3.77-1.8,5.67-5.42,5.67-1.85,0-3.13-.57-3.83-1.69v4.78c0,.94-.23,1.17-1.17,1.17h-.32c-.93,0-1.17-.23-1.17-1.17Zm9.22.08c0-2.19-.67-3.13-3.25-3.13s-3.31.94-3.31,3.13v2.24c0,2.16.73,3.1,3.31,3.1s3.25-.91,3.25-3.1Z"/><path class="cls-1" d="M83.66,11.48a1.64,1.64,0,1,0-2.32,0A1.66,1.66,0,0,0,83.66,11.48Z"/><rect class="cls-1" x="81.16" y="13.25" width="2.68" height="12.92" rx="1.17" ry="1.17"/><path class="cls-1" d="M85.69,14.29c0-.73.18-.93.88-1.06L88,13l.31-2.45c.1-.76.31-.94,1.07-.94h.33c.76,0,.94.18.94.94V13h3.65c.86,0,1.09.18,1.09,1.09v.31c0,.91-.23,1.1-1.09,1.1H90.61v6.19c0,1.51.68,2.27,2,2.27a8.45,8.45,0,0,0,2.11-.24c.86-.18,1.07,0,1.07.91v.32c0,.86-.21,1.12-1.07,1.3a11.52,11.52,0,0,1-2.11.21c-3.12,0-4.68-1.59-4.68-4.8V15.47H86.6c-.73,0-.91-.19-.91-.92Z"/><path class="cls-1" d="M100,21.37c0,1.78.68,2.56,3,2.56s3-.78,3-2.56V14.13c0-.93.23-1.17,1.17-1.17h.34c.94,0,1.17.24,1.17,1.17v7.24c0,3.36-1.69,5.08-5.65,5.08-3.78,0-5.68-1.69-5.68-5.08V14.13c0-.93.23-1.17,1.17-1.17h.34c.94,0,1.17.24,1.17,1.17Z"/><path class="cls-1" d="M121.07,22.29c0,2.89-1.7,4.16-5.55,4.16-3.52,0-5.29-1.32-5.29-4s1.88-3.93,5.31-3.93h2.87V17.23c0-1.53-1-2-3.07-2a13.75,13.75,0,0,0-2.74.24c-.75.13-1,0-1-.84v-.36c0-.76.21-1,.93-1.12a16.33,16.33,0,0,1,2.61-.21c3.78,0,5.89,1.17,5.89,4.27Zm-2.66-1.75h-2.87c-1.79,0-2.63.52-2.63,1.85s1,1.8,2.56,1.8c2,0,2.94-.39,2.94-2Z"/><path class="cls-1" d="M122.6,9.78c0-.94.24-1.17,1.18-1.17h.34c.93,0,1.17.23,1.17,1.17V22c0,1.38.39,1.85,1.22,1.85s1,.13,1,1v.26c0,.86-.21,1-1.07,1.2a1.34,1.34,0,0,1-.36,0c-2.08,0-3.47-1.23-3.47-3.86Z"/><path class="cls-2" d="M39.07,22l-.86-.86L35.13,18,33.9,16.81h0a14.39,14.39,0,0,1-3.4,12.6c-.16.18-.33.36-.51.53s-.35.35-.53.51a14.38,14.38,0,0,1-19.27,0H6.67a17.56,17.56,0,0,0,32.92-7.06A1.78,1.78,0,0,0,39.07,22Z"/><path class="cls-1" d="M33.9,16.81l-4.42.56a1.86,1.86,0,0,0-1.62,1.95,8.05,8.05,0,1,1-7.54-7.58,1.84,1.84,0,0,0,1.91-1.62l.55-4.42A14.38,14.38,0,0,0,10.19,9.1c-.18.16-.36.33-.53.51s-.35.35-.51.53A14.38,14.38,0,0,0,29.46,30.45c.18-.16.36-.33.53-.51s.35-.35.51-.53A14.39,14.39,0,0,0,33.9,16.81Z"/><path class="cls-3" d="M9.66,29.94a14.38,14.38,0,0,1-.51-19.8c.16-.18.33-.36.51-.53s.35-.35.53-.51A14.38,14.38,0,0,1,22.78,5.7h0L21.56,4.47,17.61.53A1.75,1.75,0,0,0,16.21,0,17.56,17.56,0,1,0,29.46,30.45,14.38,14.38,0,0,1,9.66,29.94Z"/><path class="cls-4" d="M7.9,31.21a16.93,16.93,0,0,1-2.47-2A17.32,17.32,0,0,1,.77,12.37,17.57,17.57,0,0,0,29.46,30.45,14.32,14.32,0,0,1,21.76,34,17.38,17.38,0,0,1,7.9,31.21Z"/></g></g></svg>