<svg xmlns="http://www.w3.org/2000/svg" viewBox="0 0 19.89 21"><defs><style>.cls-1{fill:none;stroke:#76838f;stroke-linecap:round;stroke-linejoin:round;}</style></defs><title>icon-invoice</title><g id="Camada_2" data-name="Camada 2"><g id="Camada_1-2" data-name="Camada 1"><path class="cls-1" d="M3.21.5h0A2.71,2.71,0,0,1,5.92,3.21v3.9a0,0,0,0,1,0,0H1.23A.73.73,0,0,1,.5,6.38V3.21A2.71,2.71,0,0,1,3.21.5Z"/><path class="cls-1" d="M3.21.5H16.34a3,3,0,0,1,3.05,3.05v17l-3.15-1.15L12.91,20.5,9.33,19.26,5.92,20.5V7.11"/><line class="cls-1" x1="8.3" y1="4.55" x2="17" y2="4.55"/><line class="cls-1" x1="8.3" y1="8.18" x2="17" y2="8.18"/><line class="cls-1" x1="10.91" y1="11.8" x2="17" y2="11.8"/><line class="cls-1" x1="10.91" y1="15.43" x2="17" y2="15.43"/></g></g></svg>