<svg xmlns="http://www.w3.org/2000/svg" viewBox="0 0 24.07 21"><defs><style>.cls-1{fill:none;stroke:#76838f;stroke-linecap:round;stroke-linejoin:round;}</style></defs><title>icon-payment</title><g id="Camada_2" data-name="Camada 2"><g id="Camada_1-2" data-name="Camada 1"><rect class="cls-1" x="5.53" y="0.5" width="16.33" height="3.64" rx="1.74" ry="1.74"/><path class="cls-1" d="M14.56,5.18a1.83,1.83,0,0,0-1.64-1H2.32A1.83,1.83,0,0,0,.5,6h0A1.83,1.83,0,0,0,2.32,7.79H10A7.7,7.7,0,0,1,14.56,5.18Z"/><path class="cls-1" d="M10,7.79H5.87A1.81,1.81,0,0,0,4.05,9.61h0a1.81,1.81,0,0,0,1.82,1.82H8.26A7.65,7.65,0,0,1,10,7.79Z"/><path class="cls-1" d="M8.14,12.79a7.56,7.56,0,0,1,.12-1.36H2.32A1.83,1.83,0,0,0,.5,13.25h0a1.82,1.82,0,0,0,1.82,1.82H8.48A7.81,7.81,0,0,1,8.14,12.79Z"/><path class="cls-1" d="M8.48,15.07H2.32A1.83,1.83,0,0,0,.5,16.9h0a1.83,1.83,0,0,0,1.82,1.82h8.6A7.73,7.73,0,0,1,8.48,15.07Z"/><circle class="cls-1" cx="15.85" cy="12.79" r="7.71"/><path class="cls-1" d="M17.91,11.13v-.19a1.77,1.77,0,0,0-1.78-1.78h-.46a1.77,1.77,0,0,0-1.78,1.78h0a1.78,1.78,0,0,0,1.78,1.78h.38a1.78,1.78,0,0,1,1.78,1.78v.13a1.78,1.78,0,0,1-1.78,1.78h-.38a1.78,1.78,0,0,1-1.78-1.78v-.27"/><line class="cls-1" x1="15.9" y1="9.16" x2="15.9" y2="8.28"/><line class="cls-1" x1="15.9" y1="17.29" x2="15.9" y2="16.41"/></g></g></svg>