<svg xmlns="http://www.w3.org/2000/svg" viewBox="0 0 16.13 18.91"><defs><style>.cls-1{fill:#526069;}</style></defs><title>Ativo 11</title><g id="Camada_2" data-name="Camada 2"><g id="Camada_1-2" data-name="Camada 1"><path class="cls-1" d="M15.83,3.27A32,32,0,0,1,8.27.06a.38.38,0,0,0-.41,0A31.11,31.11,0,0,1,.29,3.27.39.39,0,0,0,0,3.65V7.71a11.71,11.71,0,0,0,3.55,8.55,9.09,9.09,0,0,0,4.51,2.65,9.11,9.11,0,0,0,4.52-2.65,11.71,11.71,0,0,0,3.55-8.55V3.65A.39.39,0,0,0,15.83,3.27Zm-.5,4.44a10.93,10.93,0,0,1-3.31,8,8.75,8.75,0,0,1-4,2.42,8.74,8.74,0,0,1-3.95-2.42,10.93,10.93,0,0,1-3.31-8V4A31.54,31.54,0,0,0,8.06.86,32.51,32.51,0,0,0,15.33,4Z"/><path class="cls-1" d="M4.54,3.91A.4.4,0,0,0,4,3.68c-.71.28-1.44.54-2.17.77a.39.39,0,0,0-.27.38V6.36a.39.39,0,0,0,.39.4.4.4,0,0,0,.4-.4V5.12c.65-.21,1.31-.45,1.94-.7A.39.39,0,0,0,4.54,3.91Z"/><path class="cls-1" d="M5.29,4a.41.41,0,0,0,.16,0h0a.4.4,0,0,0,.2-.53.39.39,0,0,0-.52-.2h0A.4.4,0,0,0,5.29,4Z"/><path class="cls-1" d="M12.8,12.83a.4.4,0,0,0-.55.11,10.21,10.21,0,0,1-1.14,1.43,9.81,9.81,0,0,1-1.14,1,.4.4,0,0,0-.08.56.42.42,0,0,0,.32.16.43.43,0,0,0,.24-.08,10.63,10.63,0,0,0,1.23-1.1,10.59,10.59,0,0,0,1.24-1.54A.39.39,0,0,0,12.8,12.83Z"/><path class="cls-1" d="M9,16H9a.4.4,0,0,0-.14.55.39.39,0,0,0,.34.19.35.35,0,0,0,.2-.05h0A.4.4,0,1,0,9,16Z"/></g></g></svg>