<svg xmlns="http://www.w3.org/2000/svg" xmlns:xlink="http://www.w3.org/1999/xlink" viewBox="0 0 351.84409 316.86362"><defs><style>.a,.d{fill:none;}.b{fill:#d5d5d5;}.b,.c{opacity:0.28;}.c{fill:#cdcdcd;}.d{stroke:#76838f;stroke-linecap:round;stroke-miterlimit:10;}.e{fill:#ffc851;}.f{clip-path:url(#a);}</style><clipPath id="a"><path class="a" d="M221.88616,175.35425a65.32387,65.32387,0,0,1-11.4165-1.02V153.91675a1.06153,1.06153,0,0,0-1.06153-1.06177H184.53167c-.50733,0-1.00781.03052-1.50342.07593-.15283.01391-.30371.03442-.45557.05273q-.52513.063-1.03955.15869c-.15966.02979-.32031.05835-.47851.09278-.38867.08447-.77149.18384-1.14942.29565-.08789.02588-.17822.04517-.26513.07251-.43848.1377-.8667.29859-1.28809.47144-.1709.07031-.33789.14819-.50586.22412q-.39624.17834-.78125.37646c-.17822.092-.35547.18457-.52978.28272-.26075.14721-.51465.30493-.76612.46557-.144.09205-.293.17774-.43359.27417a16.28987,16.28987,0,0,0-7.11572,13.46875v.00025a16.31207,16.31207,0,0,0,16.312,16.31177h20.563v22.25073a3.87512,3.87512,0,0,1-3.875,3.875h-99.625a6.75,6.75,0,0,1-6.75-6.75v-76.0105H74.769v123.177H269.42815V154.65918A64.80752,64.80752,0,0,1,221.88616,175.35425Z"/></clipPath></defs><title>404</title><circle class="b" cx="171.56877" cy="155.51042" r="155.51042"/><circle class="b" cx="171.31877" cy="182.10938" r="116.89062"/><circle class="b" cx="37.3846" cy="74.44271" r="37.3846"/><circle class="c" cx="94.84481" cy="299" r="17.36362"/><circle class="b" cx="325.17742" cy="155.51042" r="26.66667"/><path class="d" d="M46.10254,252.02083H298.09481a0,0,0,0,1,0,0v0a16,16,0,0,1-16,16H62.10252a16,16,0,0,1-16-16v0a0,0,0,0,1,0,0Z"/><path class="e" d="M265.99739,62.7432l-17.28906,5.20648,7.76318,9.22388-12.76318,15.6123,2.81884,10.82007-3.80664,6.594-7.124,12.34009,4.64746-13.24792.24072-.68616-4.88818-12,4.88818-15.40381-9.77636-13.25244,9.772-17.96826a65.04607,65.04607,0,0,0-78.5459,79.35376h42.28516a3.875,3.875,0,0,1,3.875,3.875v22.37573H212.408a1.06192,1.06192,0,0,1,1.062,1.06171v20.4176a64.99082,64.99082,0,0,0,52.52735-114.322Z"/><path class="d" d="M234.96446,99.67873a11.72129,11.72129,0,0,1-7.96779,7.79719l-19.53646,5.60926"/><path class="d" d="M196.13378,91.92594l24.38778-7.00215a11.73674,11.73674,0,0,1,13.24892,5.15452"/><path class="d" d="M239.72076,107.46714a13.8803,13.8803,0,0,1,7.37429,8.71461v0a13.91425,13.91425,0,0,1-9.534,17.21381L210.28866,141.226"/><path class="d" d="M226.99667,107.47592l2.88457-.82821a13.84972,13.84972,0,0,1,7.37805-.08519"/><line class="d" x1="215.13999" y1="139.83305" x2="200.98511" y2="90.53304"/><line class="d" x1="206.96964" y1="129.66595" x2="216.01672" y2="127.06838"/><path class="d" d="M221.88638,55.37554a55.025,55.025,0,0,0-53.07894,69.35865"/><path class="d" d="M210.18923,164.08585a54.98949,54.98949,0,0,0,55.654-86.75889"/><path class="d" d="M157.05868,114.85417H100.71981a5.875,5.875,0,0,0,0,11.75h58.21435A64.91744,64.91744,0,0,1,157.05868,114.85417Z"/><path class="d" d="M184.53167,185.47852a16.31207,16.31207,0,0,1-16.312-16.31177v-.00025a16.31186,16.31186,0,0,1,16.312-16.31152h20.563V130.47925a3.875,3.875,0,0,0-3.875-3.875h-100.5a5.87505,5.87505,0,0,1-5.875-5.875v84.125a6.75,6.75,0,0,0,6.75,6.75h99.625a3.87512,3.87512,0,0,0,3.875-3.875V185.47852Z"/><path class="d" d="M184.5315,152.855h24.8766a1.06171,1.06171,0,0,1,1.06171,1.06171v30.5a1.06171,1.06171,0,0,1-1.06171,1.06171H184.5315a16.31169,16.31169,0,0,1-16.31169-16.31169v0A16.31169,16.31169,0,0,1,184.5315,152.855Z"/><circle class="d" cx="178.71981" cy="169.16667" r="2.21875"/><path class="d" d="M221.88616,175.35425a65.32387,65.32387,0,0,1-11.4165-1.02V153.91675a1.06153,1.06153,0,0,0-1.06153-1.06177H184.53167c-.50733,0-1.00781.03052-1.50342.07593-.15283.01391-.30371.03442-.45557.05273q-.52513.063-1.03955.15869c-.15966.02979-.32031.05835-.47851.09278-.38867.08447-.77149.18384-1.14942.29565-.08789.02588-.17822.04517-.26513.07251-.43848.1377-.8667.29859-1.28809.47144-.1709.07031-.33789.14819-.50586.22412q-.39624.17834-.78125.37646c-.17822.092-.35547.18457-.52978.28272-.26075.14721-.51465.30493-.76612.46557-.144.09205-.293.17774-.43359.27417a16.28987,16.28987,0,0,0-7.11572,13.46875v.00025a16.31207,16.31207,0,0,0,16.312,16.31177h20.563v22.25073a3.87512,3.87512,0,0,1-3.875,3.875h-99.625a6.75,6.75,0,0,1-6.75-6.75v-76.0105H74.769v123.177H269.42815V154.65918A64.80752,64.80752,0,0,1,221.88616,175.35425Z"/><rect class="d" x="74.76897" y="128.84375" width="20.07568" height="7.5105"/><path class="d" d="M210.46966,174.33423a64.99106,64.99106,0,0,0,52.52783-114.322l-17.28906,5.20654,7.76318,9.22388-12.76318,15.6123,2.81884,10.82007-3.8067,6.594-7.124,12.34011,4.64747-13.24791.24071-.68617-4.88818-12,4.88818-15.40381-9.77636-13.25244,9.772-17.96826A65.03791,65.03791,0,0,0,158.933,126.58887"/><path class="d" d="M141.88292,50.76662h-1.272a11.66665,11.66665,0,0,1-11.66665,11.66665v1.272A11.66666,11.66666,0,0,1,140.611,75.37189h1.272a11.66666,11.66666,0,0,1,11.66666-11.66666v-1.272A11.66665,11.66665,0,0,1,141.88292,50.76662Z"/><path class="d" d="M44.51635,291.75835h-1.272A11.66665,11.66665,0,0,1,31.57774,303.425v1.272A11.66666,11.66666,0,0,1,43.2444,316.36362h1.272A11.66666,11.66666,0,0,1,56.183,304.697v-1.272A11.66666,11.66666,0,0,1,44.51635,291.75835Z"/><line class="d" x1="238.73511" y1="29.14913" x2="259.35223" y2="29.14913"/><line class="d" x1="277.75204" y1="50.76662" x2="331.76203" y2="50.76662"/><circle class="d" cx="312.78082" cy="133.54578" r="5.62406"/><line class="d" x1="56.00726" y1="132.40339" x2="56.00726" y2="126.20813"/><line class="d" x1="56.00726" y1="143.60757" x2="56.00726" y2="137.41232"/><line class="d" x1="53.50279" y1="134.90785" x2="47.30754" y2="134.90785"/><line class="d" x1="64.70698" y1="134.90785" x2="58.51172" y2="134.90785"/><line class="d" x1="250.65251" y1="289.25388" x2="250.65251" y2="283.05863"/><line class="d" x1="250.65251" y1="300.45807" x2="250.65251" y2="294.26281"/><line class="d" x1="248.14805" y1="291.75835" x2="241.95279" y2="291.75835"/><line class="d" x1="259.35223" y1="291.75835" x2="253.15698" y2="291.75835"/><line class="d" x1="7.32397" y1="218.2582" x2="47.30754" y2="218.2582"/><line class="d" x1="43.88037" y1="234.07588" x2="64.70698" y2="234.07588"/><line class="d" x1="158.47063" y1="294.18303" x2="215.76576" y2="294.18303"/><line class="d" x1="141.24694" y1="314.21875" x2="181.66988" y2="314.21875"/><path class="d" d="M294.85412,241.14989c6.47468,0,6.47468,6.32707,12.94935,6.32707,6.47263,0,6.47263-6.32707,12.94525-6.32707,6.47707,0,6.47707,6.32707,12.95414,6.32707s6.47707-6.32707,12.95414-6.32707"/><path class="d" d="M61.60935,96.82859c6.47468,0,6.47468,6.32707,12.94935,6.32707,6.47262,0,6.47262-6.32707,12.94525-6.32707,6.47707,0,6.47707,6.32707,12.95414,6.32707s6.47707-6.32707,12.95414-6.32707"/><g class="f"><path class="d" d="M141.021,225.31061h6.11664v6.45088H141.021v10.8292h-7.98854v-10.8292H111.909l-.20069-4.84646,21.057-32.98931H141.021Zm-21.09026,0h13.10172V204.58779l-.86916,1.57085Z"/><path class="d" d="M187.01169,224.074a28.772,28.772,0,0,1-1.08609,8.3058,16.74766,16.74766,0,0,1-3.12546,6.0163,12.99122,12.99122,0,0,1-4.98039,3.65966,18.23131,18.23131,0,0,1-13.20207,0,13.1241,13.1241,0,0,1-4.99661-3.65966,16.98015,16.98015,0,0,1-3.17564-6.0163,27.94879,27.94879,0,0,1-1.11929-8.3058V212.44241a28.37052,28.37052,0,0,1,1.10232-8.3058,16.7991,16.7991,0,0,1,3.15867-6.0163,13.17542,13.17542,0,0,1,4.98038-3.65966,16.71323,16.71323,0,0,1,6.56747-1.237,16.9339,16.9339,0,0,1,6.61837,1.237,13.14519,13.14519,0,0,1,4.99661,3.65966,16.7991,16.7991,0,0,1,3.15867,6.0163,28.34444,28.34444,0,0,1,1.10306,8.3058Zm-23.66382-3.04172,15.575-11.598q-.26784-4.97983-2.18916-7.36986a6.76253,6.76253,0,0,0-5.59868-2.38984,6.659,6.659,0,0,0-5.84882,2.77425q-1.939,2.77462-1.93829,8.5231ZM178.99,215.718l-15.57568,11.598q.60207,9.55957,7.78784,9.559,7.7871,0,7.78784-11.39732Z"/><path class="d" d="M223.17664,225.31061h6.11665v6.45088h-6.11665v10.8292h-7.98853v-10.8292H194.06465L193.864,226.915,214.921,193.92572h8.25563Zm-21.09025,0h13.10172V204.58779l-.86917,1.57085Z"/></g></svg>