<svg xmlns="http://www.w3.org/2000/svg" viewBox="0 0 192.52 161.66"><defs><style>.cls-1,.cls-2,.cls-3{fill:none;stroke:#a3afb7;}.cls-1{stroke-linecap:round;stroke-linejoin:round;}.cls-2,.cls-3{stroke-miterlimit:10;}.cls-3{stroke-dasharray:4.99 4.99;}</style></defs><title>add-funds-step-wallet</title><g id="Camada_2" data-name="Camada 2"><g id="Camada_1-2" data-name="Camada 1"><circle class="cls-1" cx="94.96" cy="74.4" r="4.68"/><circle class="cls-1" cx="7.35" cy="72.23" r="6.85"/><circle class="cls-1" cx="178.28" cy="142.03" r="3.62"/><circle class="cls-1" cx="12.24" cy="144.74" r="3.62"/><circle class="cls-2" cx="78.88" cy="112.66" r="3.13"/><circle class="cls-2" cx="109.76" cy="99.84" r="3.13"/><circle class="cls-2" cx="66.48" cy="70.22" r="3.13"/><circle class="cls-2" cx="66.48" cy="70.22" r="6.2"/><circle class="cls-2" cx="117.61" cy="139.32" r="4.15"/><circle class="cls-2" cx="117.61" cy="139.32" r="8.23"/><path class="cls-2" d="M155.56,129.4a30.7,30.7,0,0,0,6.26.65,30.21,30.21,0,0,0,0-60.42,30.54,30.54,0,0,0-6.6.72"/><path class="cls-2" d="M154.49,123.37a24.51,24.51,0,0,0,2.42.62"/><path class="cls-3" d="M161.87,124.48a24.64,24.64,0,0,0,0-49.28"/><path class="cls-2" d="M159.34,75.32c-.83.08-1.66.21-2.47.37"/><polyline class="cls-1" points="81.67 25.68 81.67 19.35 108.24 19.35 108.24 29.45"/><polyline class="cls-1" points="55.34 161.16 55.34 128.94 66.48 116.29 66.48 76.42"/><polyline class="cls-1" points="78.88 115.78 78.88 128.44 89.01 141.35 89.01 161.16"/><polyline class="cls-1" points="99.64 161.16 99.64 118.82 109.76 108.7 109.76 102.97"/><polyline class="cls-1" points="123.43 43.65 123.43 74.4 134.82 87.18 134.82 104.39 117.61 124.89 117.61 131.1"/><rect class="cls-2" x="108.24" y="29.45" width="38.44" height="10.42"/><path class="cls-2" d="M160.81,86.45l10.21,5a5.23,5.23,0,0,1,2.42,7h0a5.24,5.24,0,0,1-7,2.43l-8.17-4"/><path class="cls-2" d="M166.44,100.83l1.2.58a6.22,6.22,0,0,1,2.88,8.31h0a6.2,6.2,0,0,1-8.3,2.88l-6.64-3.22"/><line class="cls-2" x1="162.84" y1="87.43" x2="155.58" y2="102.4"/><line class="cls-2" x1="178.28" y1="36.56" x2="178.28" y2="31.75"/><line class="cls-2" x1="178.28" y1="48.46" x2="178.28" y2="43.65"/><line class="cls-2" x1="174.74" y1="40.1" x2="169.93" y2="40.1"/><line class="cls-2" x1="186.63" y1="40.1" x2="181.82" y2="40.1"/><path class="cls-1" d="M108.24,43.65V75.92a13.29,13.29,0,1,1-26.57,0V43.65H39.4V151.51a9.65,9.65,0,0,0,9.65,9.65h91.56a9.65,9.65,0,0,0,9.65-9.65V43.65Z"/><path class="cls-2" d="M39.4,43.65H58.15A23.53,23.53,0,1,0,39.4,53Z"/><path class="cls-2" d="M68.32,29.45a28.6,28.6,0,0,1-2,10.42H81.67V29.45Z"/><path class="cls-1" d="M68.07,25.68a28.82,28.82,0,0,1-3.48,18H81.67v-18Z"/><path class="cls-2" d="M39.4,43.65H64.59A28.93,28.93,0,1,0,39.4,58.35Z"/><polygon class="cls-2" points="41.35 33.61 46.05 24.98 31.59 17.28 31.53 33.66 41.35 33.61 41.35 33.61"/><path class="cls-2" d="M46.12,41.58,47.27,27l-4.7,8.63-9.83,0Z"/><polyline class="cls-1" points="108.24 25.47 150.26 25.47 150.26 43.65"/></g></g></svg>