<?xml version="1.0" encoding="UTF-8" standalone="no"?>
<!DOCTYPE svg PUBLIC "-//W3C//DTD SVG 1.1//EN" "http://www.w3.org/Graphics/SVG/1.1/DTD/svg11.dtd">
<svg width="100%" height="100%" viewBox="0 0 102 102" version="1.1" xmlns="http://www.w3.org/2000/svg" xmlns:xlink="http://www.w3.org/1999/xlink" xml:space="preserve" xmlns:serif="http://www.serif.com/" style="fill-rule:evenodd;clip-rule:evenodd;stroke-linecap:round;stroke-linejoin:round;">
    <g id="Camada_1-2">
        <path d="M14.51,72.89C17.275,77.384 20.848,81.328 25.05,84.52" style="fill:none;stroke:rgb(163,175,183);stroke-width:1px;"/>
        <path d="M75.06,15.93C67.921,10.924 59.409,8.238 50.69,8.238C27.406,8.238 8.244,27.396 8.24,50.68C8.238,54.428 8.729,58.16 9.7,61.78" style="fill:none;stroke:rgb(163,175,183);stroke-width:1px;"/>
        <path d="M40.07,91.78C43.532,92.673 47.093,93.124 50.668,93.124C73.956,93.124 93.118,73.962 93.118,50.674C93.118,41.481 90.131,32.531 84.61,25.18" style="fill:none;stroke:rgb(163,175,183);stroke-width:1px;"/>
        <path d="M60,59.49C60,64.301 56.041,68.26 51.23,68.26L46.78,68.26C46.777,68.26 46.773,68.26 46.77,68.26C41.959,68.26 38,64.301 38,59.49C38,59.49 38,59.49 38,59.49L38,41.86C38.005,37.047 41.967,33.09 46.78,33.09L51.22,33.09C51.223,33.09 51.227,33.09 51.23,33.09C56.041,33.09 60,37.049 60,41.86C60,41.86 60,41.86 60,41.86" style="fill:none;stroke:rgb(163,175,183);stroke-width:1px;"/>
        <path d="M33.16,55.14L47.53,55.14" style="fill:none;stroke:rgb(163,175,183);stroke-width:1px;"/>
        <path d="M33.16,46.21L47.53,46.21" style="fill:none;stroke:rgb(163,175,183);stroke-width:1px;"/>
    </g>
</svg>
