<?xml version="1.0" encoding="UTF-8" standalone="no"?>
<!DOCTYPE svg PUBLIC "-//W3C//DTD SVG 1.1//EN" "http://www.w3.org/Graphics/SVG/1.1/DTD/svg11.dtd">
<svg width="100%" height="100%" viewBox="0 0 138 138" version="1.1" xmlns="http://www.w3.org/2000/svg" xmlns:xlink="http://www.w3.org/1999/xlink" xml:space="preserve" xmlns:serif="http://www.serif.com/" style="fill-rule:evenodd;clip-rule:evenodd;stroke-linecap:round;stroke-linejoin:round;">
    <g id="Camada_1-2">
        <path d="M19.52,98.83C23.281,104.933 28.14,110.287 33.85,114.62" style="fill:none;stroke:rgb(163,175,183);stroke-width:1px;"/>
        <path d="M101.77,21.46C92.076,14.673 80.524,11.032 68.691,11.032C37.048,11.032 11.011,37.069 11.011,68.712C11.011,73.784 11.679,78.833 13,83.73" style="fill:none;stroke:rgb(163,175,183);stroke-width:1px;"/>
        <path d="M54.25,124.49C58.953,125.702 63.79,126.316 68.647,126.316C100.284,126.316 126.317,100.283 126.317,68.646C126.317,56.151 122.256,43.989 114.75,34" style="fill:none;stroke:rgb(163,175,183);stroke-width:1px;"/>
        <g transform="matrix(6.63677,0,0,6.63677,-1.03109,-1.03109)">
            <path d="M15.002,8.532C15.002,7.867 14.455,7.32 13.79,7.32L12.482,7.32C11.684,7.32 11.027,7.977 11.027,8.775C11.027,9.573 11.684,10.229 12.482,10.229L13.919,10.229C14.866,10.229 15.645,11.008 15.645,11.955C15.645,12.901 14.866,13.68 13.92,13.68L12.239,13.68C11.574,13.68 11.027,13.133 11.027,12.468L11.027,12.099" style="fill:none;stroke:rgb(163,175,183);stroke-width:0.15px;stroke-linecap:butt;stroke-miterlimit:1.41421;"/>
        </g>
        <g transform="matrix(6.63677,0,0,6.63677,-1.03109,-1.03109)">
            <path d="M12.597,6.238L12.597,7.32" style="fill:none;stroke:rgb(163,175,183);stroke-width:0.15px;stroke-linecap:butt;stroke-miterlimit:1.41421;"/>
        </g>
        <g transform="matrix(6.63677,0,0,6.63677,-1.03109,-1.03109)">
            <path d="M13.764,6.238L13.764,7.32" style="fill:none;stroke:rgb(163,175,183);stroke-width:0.15px;stroke-linecap:butt;stroke-miterlimit:1.41421;"/>
        </g>
        <g transform="matrix(6.63677,0,0,6.63677,-1.03109,-1.03109)">
            <path d="M12.597,13.68L12.597,14.762" style="fill:none;stroke:rgb(163,175,183);stroke-width:0.15px;stroke-linecap:butt;stroke-miterlimit:1.41421;"/>
        </g>
        <g transform="matrix(6.63677,0,0,6.63677,-1.03109,-1.03109)">
            <path d="M13.764,13.68L13.764,14.762" style="fill:none;stroke:rgb(163,175,183);stroke-width:0.15px;stroke-linecap:butt;stroke-miterlimit:1.41421;"/>
        </g>
        <g transform="matrix(6.63677,0,0,6.63677,-1.03109,-1.03109)">
            <path d="M5.355,7.32L8.501,7.32C9.299,7.32 9.956,7.977 9.956,8.775C9.956,9.573 9.299,10.229 8.501,10.229L5.981,10.229" style="fill:none;stroke:rgb(163,175,183);stroke-width:0.15px;stroke-linecap:butt;stroke-miterlimit:1.41421;"/>
        </g>
        <g transform="matrix(6.63677,0,0,6.63677,-1.03109,-1.03109)">
            <path d="M5.981,7.32L5.981,13.68" style="fill:none;stroke:rgb(163,175,183);stroke-width:0.15px;stroke-linecap:butt;stroke-miterlimit:1.41421;"/>
        </g>
        <g transform="matrix(6.63677,0,0,6.63677,-1.03109,-1.03109)">
            <path d="M7.656,10.229L9.78,13.68" style="fill:none;stroke:rgb(163,175,183);stroke-width:0.15px;stroke-linecap:butt;stroke-miterlimit:1.41421;"/>
        </g>
    </g>
</svg>
