<?xml version="1.0" encoding="UTF-8" standalone="no"?>
<!DOCTYPE svg PUBLIC "-//W3C//DTD SVG 1.1//EN" "http://www.w3.org/Graphics/SVG/1.1/DTD/svg11.dtd">
<svg width="100%" height="100%" viewBox="0 0 102 102" version="1.1" xmlns="http://www.w3.org/2000/svg" xmlns:xlink="http://www.w3.org/1999/xlink" xml:space="preserve" xmlns:serif="http://www.serif.com/" style="fill-rule:evenodd;clip-rule:evenodd;stroke-linecap:round;stroke-linejoin:round;">
    <g id="Camada_1-2">
        <path d="M14.51,72.89C17.275,77.384 20.848,81.328 25.05,84.52" style="fill:none;stroke:rgb(163,175,183);stroke-width:1px;"/>
        <path d="M75.06,15.93C67.921,10.924 59.409,8.238 50.69,8.238C27.406,8.238 8.244,27.396 8.24,50.68C8.238,54.428 8.729,58.16 9.7,61.78" style="fill:none;stroke:rgb(163,175,183);stroke-width:1px;"/>
        <path d="M40.07,91.78C43.532,92.673 47.093,93.124 50.668,93.124C73.956,93.124 93.118,73.962 93.118,50.674C93.118,41.481 90.131,32.531 84.61,25.18" style="fill:none;stroke:rgb(163,175,183);stroke-width:1px;"/>
        <path d="M59.11,40.72C59.115,37.361 56.359,34.591 53,34.58L46.35,34.58C42.318,34.591 39.005,37.908 39,41.94C39,45.979 42.321,49.305 46.36,49.31L53.64,49.31C58.414,49.31 62.348,53.226 62.37,58C62.37,62.795 58.425,66.74 53.63,66.74L45.13,66.74C41.781,66.735 39.022,63.989 39,60.64L39,58.78" style="fill:none;stroke:rgb(163,175,183);stroke-width:1px;"/>
        <path d="M46.94,29.1L46.94,34.58" style="fill:none;stroke:rgb(163,175,183);stroke-width:1px;"/>
        <path d="M52.85,29.1L52.85,34.58" style="fill:none;stroke:rgb(163,175,183);stroke-width:1px;"/>
        <path d="M46.94,66.78L46.94,72.26" style="fill:none;stroke:rgb(163,175,183);stroke-width:1px;"/>
        <path d="M52.85,66.78L52.85,72.26" style="fill:none;stroke:rgb(163,175,183);stroke-width:1px;"/>
    </g>
</svg>
