<?xml version="1.0" encoding="UTF-8" standalone="no"?>
<!DOCTYPE svg PUBLIC "-//W3C//DTD SVG 1.1//EN" "http://www.w3.org/Graphics/SVG/1.1/DTD/svg11.dtd">
<svg width="100%" height="100%" viewBox="0 0 142 142" version="1.1" xmlns="http://www.w3.org/2000/svg" xmlns:xlink="http://www.w3.org/1999/xlink" xml:space="preserve" xmlns:serif="http://www.serif.com/" style="fill-rule:evenodd;clip-rule:evenodd;stroke-linecap:round;stroke-linejoin:round;">
    <g id="Camada_1-2" transform="matrix(1,0,0,1,0,-6.63)">
        <g transform="matrix(1.01187,0,0,1.0103,-0.25591,-0.796325)">
            <circle cx="37.48" cy="50.88" r="8.29" style="fill:none;stroke:rgb(163,175,183);stroke-width:1px;"/>
        </g>
        <g transform="matrix(1.01187,0,0,1.0103,-0.25591,-0.796325)">
            <circle cx="82.65" cy="29.5" r="8.29" style="fill:none;stroke:rgb(163,175,183);stroke-width:1px;"/>
        </g>
        <g transform="matrix(1.01187,0,0,1.0103,-0.25591,11.3272)">
            <circle cx="63.79" cy="8.79" r="8.29" style="fill:none;stroke:rgb(163,175,183);stroke-width:1px;"/>
        </g>
        <g transform="matrix(1.01187,0,0,1.0103,-0.25591,-0.796325)">
            <circle cx="63.79" cy="128.13" r="8.29" style="fill:none;stroke:rgb(163,175,183);stroke-width:1px;"/>
        </g>
        <g transform="matrix(1.01187,0,0,1.0103,-0.25591,-13.9302)">
            <circle cx="82.79" cy="145.67" r="8.29" style="fill:none;stroke:rgb(163,175,183);stroke-width:1px;"/>
        </g>
        <g transform="matrix(1.01187,0,0,1.0103,-0.25591,-0.796325)">
            <circle cx="45.77" cy="74.89" r="8.29" style="fill:none;stroke:rgb(163,175,183);stroke-width:1px;"/>
        </g>
        <g transform="matrix(1.01187,0,0,1.0103,13.9103,-0.796325)">
            <circle cx="8.79" cy="106.53" r="8.29" style="fill:none;stroke:rgb(163,175,183);stroke-width:1px;"/>
        </g>
        <g transform="matrix(1.01187,0,0,1.0103,-0.25591,-0.796325)">
            <path d="M104.267,122.875C118.596,112.521 127.482,95.725 127.482,77.524C127.482,57.854 117.103,39.577 100.21,29.5" style="fill:none;stroke:rgb(163,175,183);stroke-width:1px;"/>
        </g>
        <g transform="matrix(1.01187,0,0,1.0103,-0.25591,-0.796325)">
            <path d="M31,115.92C35.81,121.004 41.529,125.146 47.86,128.13" style="fill:none;stroke:rgb(163,175,183);stroke-width:1px;"/>
        </g>
        <g transform="matrix(1.01187,0,0,1.0103,-0.25591,-0.796325)">
            <path d="M21.17,53.33C15.51,65.163 14.175,78.615 17.4,91.33" style="fill:none;stroke:rgb(163,175,183);stroke-width:1px;"/>
        </g>
        <g transform="matrix(1.01187,0,0,1.0103,-0.25591,-0.796325)">
            <path d="M53.21,24.7C47.811,26.582 42.732,29.28 38.15,32.7" style="fill:none;stroke:rgb(163,175,183);stroke-width:1px;"/>
        </g>
        <g transform="matrix(1.01187,0,0,0.651611,-0.25591,17.4536)">
            <path d="M63.79,17.08L63.79,50.88" style="fill:none;stroke:rgb(163,175,183);stroke-width:1px;"/>
        </g>
        <g transform="matrix(1.01187,0,0,1.0103,-0.25591,-0.796325)">
            <path d="M31.08,106.53L87.57,106.53C96.249,106.53 103.39,99.389 103.39,90.71C103.39,82.031 96.249,74.89 87.57,74.89L89.16,74.89C95.743,74.89 101.16,69.473 101.16,62.89C101.16,56.307 95.743,50.89 89.16,50.89L45.77,50.89" style="fill:none;stroke:rgb(163,175,183);stroke-width:1px;"/>
        </g>
        <g transform="matrix(1.01187,0,0,1.0103,-0.25591,-0.796325)">
            <path d="M63.79,119.84L63.79,59.17" style="fill:none;stroke:rgb(163,175,183);stroke-width:1px;"/>
        </g>
        <g transform="matrix(1.01187,0,0,0.584374,-0.25591,44.5771)">
            <path d="M82.79,137.39L82.79,106.53" style="fill:none;stroke:rgb(163,175,183);stroke-width:1px;"/>
        </g>
        <g transform="matrix(1.01187,0,0,1.0103,-0.25591,-0.796325)">
            <path d="M82.65,37.78L82.65,50.88" style="fill:none;stroke:rgb(163,175,183);stroke-width:1px;"/>
        </g>
    </g>
</svg>
