<?xml version="1.0" encoding="UTF-8" standalone="no"?>
<!DOCTYPE svg PUBLIC "-//W3C//DTD SVG 1.1//EN" "http://www.w3.org/Graphics/SVG/1.1/DTD/svg11.dtd">
<svg width="100%" height="100%" viewBox="0 0 138 138" version="1.1" xmlns="http://www.w3.org/2000/svg" xmlns:xlink="http://www.w3.org/1999/xlink" xml:space="preserve" xmlns:serif="http://www.serif.com/" style="fill-rule:evenodd;clip-rule:evenodd;stroke-linecap:round;stroke-linejoin:round;">
    <g id="Camada_1-2">
        <path d="M19.52,98.83C23.281,104.933 28.14,110.287 33.85,114.62" style="fill:none;stroke:rgb(163,175,183);stroke-width:1px;"/>
        <path d="M101.77,21.46C92.076,14.673 80.524,11.032 68.691,11.032C37.048,11.032 11.011,37.069 11.011,68.712C11.011,73.784 11.679,78.833 13,83.73" style="fill:none;stroke:rgb(163,175,183);stroke-width:1px;"/>
        <path d="M54.25,124.49C58.953,125.702 63.79,126.316 68.647,126.316C100.284,126.316 126.317,100.283 126.317,68.646C126.317,56.151 122.256,43.989 114.75,34" style="fill:none;stroke:rgb(163,175,183);stroke-width:1px;"/>
        <path d="M56.53,41.55L79.22,46.45C84.144,47.511 87.691,51.902 87.691,56.939C87.691,57.699 87.61,58.457 87.45,59.2C86.39,64.125 81.998,67.673 76.96,67.673C76.197,67.673 75.436,67.591 74.69,67.43L56.52,63.51" style="fill:none;stroke:rgb(163,175,183);stroke-width:1px;"/>
        <path d="M74.69,67.43L77.38,68.01C83.216,69.268 87.419,74.474 87.419,80.444C87.419,81.351 87.322,82.254 87.13,83.14C85.871,88.98 80.661,93.187 74.686,93.187C73.783,93.187 72.883,93.091 72,92.9L46.63,87.42" style="fill:none;stroke:rgb(163,175,183);stroke-width:1px;"/>
        <path d="M51.15,88.39L61.04,42.53" style="fill:none;stroke:rgb(163,175,183);stroke-width:1px;"/>
        <path d="M69.76,38.49L68.54,44.14" style="fill:none;stroke:rgb(163,175,183);stroke-width:1px;"/>
        <path d="M76.13,39.81L74.91,45.46" style="fill:none;stroke:rgb(163,175,183);stroke-width:1px;"/>
        <path d="M64.62,97.19L65.84,91.54" style="fill:none;stroke:rgb(163,175,183);stroke-width:1px;"/>
        <path d="M58.25,95.88L59.47,90.23" style="fill:none;stroke:rgb(163,175,183);stroke-width:1px;"/>
    </g>
</svg>
