<svg xmlns="http://www.w3.org/2000/svg" viewBox="0 0 173.04 64.78"><defs><style>.cls-1{fill:#d0d9dd;}</style></defs><title>add-funds-step-fiat-wire</title><g id="Camada_2" data-name="Camada 2"><g id="Camada_1-2" data-name="Camada 1"><path class="cls-1" d="M5.45,64.14V45.56H0V39.81H17.53v5.75H12.08V64.14Z"/><path class="cls-1" d="M20.77,64.14V39.81H27.7a29,29,0,0,1,5.68.37,7.15,7.15,0,0,1,2.76,1.26,6.47,6.47,0,0,1,2,2.54,8.13,8.13,0,0,1,.71,3.41A7.19,7.19,0,0,1,37.48,52a6.75,6.75,0,0,1-4,2.35l6.63,9.81H32.57L27,54.61v9.53ZM27,51.31h1.23a5.37,5.37,0,0,0,3.13-.73,2.68,2.68,0,0,0,1-2.3,3.24,3.24,0,0,0-.92-2.6,4.9,4.9,0,0,0-3.1-.77H27Z"/><path class="cls-1" d="M39.73,64.14l8.39-24.33h8.31l8.41,24.33h-6.6L57,59.78H47.59l-1.26,4.36ZM49,55.05h6.6l-2.48-8c-.07-.24-.18-.64-.31-1.18s-.31-1.24-.52-2.09q-.21.9-.42,1.71c-.14.54-.28,1.06-.43,1.56Z"/><path class="cls-1" d="M67.17,64.14V39.81h6.4l9.18,12.51c.18.26.47.77.88,1.54s.85,1.69,1.34,2.75c-.14-1-.23-1.91-.3-2.69s-.09-1.49-.09-2.1v-12H91V64.14H84.58L75.39,51.57A15.73,15.73,0,0,1,74.5,50c-.4-.77-.84-1.68-1.32-2.72.14,1,.23,1.92.29,2.71s.1,1.48.1,2.09v12Z"/><path class="cls-1" d="M97.25,56.28a12,12,0,0,0,2.91,2.51,5.75,5.75,0,0,0,2.87.83,3.26,3.26,0,0,0,2.18-.72,2.25,2.25,0,0,0,.86-1.81,2.38,2.38,0,0,0-.74-1.87A9.22,9.22,0,0,0,102,53.87a11,11,0,0,1-5-2.51,5.87,5.87,0,0,1-1.48-4.24,7.46,7.46,0,0,1,2.34-5.69,8.43,8.43,0,0,1,6-2.2,13.31,13.31,0,0,1,3.82.54,12.29,12.29,0,0,1,3.41,1.63L109,46.17a8.53,8.53,0,0,0-2.31-1.45,6.11,6.11,0,0,0-2.35-.49,3.14,3.14,0,0,0-2,.57,1.77,1.77,0,0,0-.75,1.47,1.79,1.79,0,0,0,.66,1.46,7,7,0,0,0,2.53,1.05l.3.08c2.71.74,4.48,1.54,5.34,2.41a6.05,6.05,0,0,1,1.31,2.16,8.86,8.86,0,0,1-2.09,9,9.6,9.6,0,0,1-6.78,2.35,11.9,11.9,0,0,1-4.63-.86,13.26,13.26,0,0,1-4-2.71Z"/><path class="cls-1" d="M115.94,64.14V39.81h14.91v5.33H122.4v4.22h8v5.22h-8v9.56Z"/><path class="cls-1" d="M134.45,64.14V39.81h14.91v5.33h-8.44v4.22h8v5.22h-8v4.11h8.44v5.45Z"/><path class="cls-1" d="M153.75,64.14V39.81h6.93a28.9,28.9,0,0,1,5.67.37,7.26,7.26,0,0,1,2.77,1.26,6.66,6.66,0,0,1,2,2.54,8.13,8.13,0,0,1,.7,3.41A7.19,7.19,0,0,1,170.45,52a6.75,6.75,0,0,1-4,2.35L173,64.14h-7.5L160,54.61v9.53ZM160,51.31h1.23a5.37,5.37,0,0,0,3.13-.73,2.68,2.68,0,0,0,1-2.3,3.24,3.24,0,0,0-.92-2.6,4.9,4.9,0,0,0-3.1-.77H160Z"/><path class="cls-1" d="M76,.26,80.46,17c.21.76.4,1.54.57,2.36s.36,1.75.56,2.8c.24-1.24.44-2.27.61-3.08s.33-1.5.49-2.08L86.82.26h9.67L86.56,35.4H77.67l-4.34-15c-.16-.53-.42-1.56-.79-3.1-.16-.69-.29-1.23-.39-1.61l-.33,1.42c-.37,1.55-.65,2.65-.84,3.29l-4.27,15H57.8L47.89.26h9.67l4,16.8.57,2.59c.18.87.35,1.75.51,2.67.15-.68.3-1.38.47-2.12s.42-1.78.76-3.14L68.31.26Z"/><path class="cls-1" d="M100.05,35.4V.26h9.67V35.4Z"/><path class="cls-1" d="M117.45,35.4V.26h10a41.63,41.63,0,0,1,8.19.54,10.41,10.41,0,0,1,4,1.81,9.5,9.5,0,0,1,2.92,3.67,11.71,11.71,0,0,1,1,4.92,10.44,10.44,0,0,1-2,6.64,9.76,9.76,0,0,1-5.84,3.4l9.58,14.16H134.49l-8.07-13.76V35.4Zm9-18.53h1.78a7.66,7.66,0,0,0,4.53-1.06,3.84,3.84,0,0,0,1.42-3.31,4.67,4.67,0,0,0-1.33-3.76c-.89-.74-2.38-1.11-4.48-1.11h-1.92Z"/><path class="cls-1" d="M149,35.4V.26h21.53V8H158.3v6.1h11.5V21.6H158.3v5.92h12.19V35.4Z"/><rect class="cls-1" x="0.29" width="43.84" height="6.96"/><rect class="cls-1" x="0.29" y="13.51" width="43.84" height="6.96"/><rect class="cls-1" x="0.29" y="28.24" width="43.84" height="6.96"/></g></g></svg>