<?xml version="1.0" encoding="UTF-8" standalone="no"?>
<!DOCTYPE svg PUBLIC "-//W3C//DTD SVG 1.1//EN" "http://www.w3.org/Graphics/SVG/1.1/DTD/svg11.dtd">
<svg width="100%" height="100%" viewBox="0 0 138 138" version="1.1" xmlns="http://www.w3.org/2000/svg" xmlns:xlink="http://www.w3.org/1999/xlink" xml:space="preserve" xmlns:serif="http://www.serif.com/" style="fill-rule:evenodd;clip-rule:evenodd;stroke-linecap:round;stroke-linejoin:round;">
    <g id="Camada_1-2">
        <path d="M19.52,98.83C23.281,104.933 28.14,110.287 33.85,114.62" style="fill:none;stroke:rgb(163,175,183);stroke-width:1px;"/>
        <path d="M101.77,21.46C92.076,14.673 80.524,11.032 68.691,11.032C37.048,11.032 11.011,37.069 11.011,68.712C11.011,73.784 11.679,78.833 13,83.73" style="fill:none;stroke:rgb(163,175,183);stroke-width:1px;"/>
        <path d="M54.25,124.49C58.953,125.702 63.79,126.316 68.647,126.316C100.284,126.316 126.317,100.283 126.317,68.646C126.317,56.151 122.256,43.989 114.75,34" style="fill:none;stroke:rgb(163,175,183);stroke-width:1px;"/>
        <path d="M44.93,50.8L67.16,44.11C68.164,43.807 69.207,43.654 70.256,43.654C74.977,43.654 79.169,46.769 80.53,51.29C80.833,52.294 80.986,53.337 80.986,54.386C80.986,59.107 77.871,63.299 73.35,64.66L55.54,70" style="fill:none;stroke:rgb(163,175,183);stroke-width:1px;"/>
        <path d="M73.35,64.66L76,63.87C82.684,61.863 89.837,65.708 91.85,72.39C92.21,73.582 92.393,74.821 92.393,76.067C92.393,81.668 88.694,86.64 83.33,88.25L58.46,95.73" style="fill:none;stroke:rgb(163,175,183);stroke-width:1px;"/>
        <path d="M62.88,94.4L49.36,49.47" style="fill:none;stroke:rgb(163,175,183);stroke-width:1px;"/>
        <path d="M55.03,41.72L56.7,47.26" style="fill:none;stroke:rgb(163,175,183);stroke-width:1px;"/>
        <path d="M61.24,39.79L62.91,45.33" style="fill:none;stroke:rgb(163,175,183);stroke-width:1px;"/>
        <path d="M78.93,95.59L77.26,90.05" style="fill:none;stroke:rgb(163,175,183);stroke-width:1px;"/>
        <path d="M72.72,97.52L71.05,91.98" style="fill:none;stroke:rgb(163,175,183);stroke-width:1px;"/>
    </g>
</svg>
