<svg xmlns="http://www.w3.org/2000/svg" viewBox="0 0 100 100"><defs><style>.cls-1{fill:#d3eaf3;}.cls-2{fill:#b1e1f3;}.cls-3{fill:#f2f2f2;}.cls-4{fill:#cfe9f3;}.cls-5{fill:#a521ff;}.cls-6{fill:#a0bec7;}.cls-7{fill:#3d4652;}.cls-8{fill:#e1efdb;fill-opacity:0.7;}</style></defs><title>analysis</title><g id="Camada_2" data-name="Camada 2"><g id="Capa_1" data-name="Capa 1"><circle class="cls-1" cx="50" cy="50" r="50"/><circle class="cls-2" cx="50" cy="50" r="41.1" transform="translate(-2.69 2.84) rotate(-3.17)"/><path class="cls-3" d="M59.1,24.8H31.9a2.33,2.33,0,0,0-2.2,2.6v43A2.39,2.39,0,0,0,31.9,73H63.6a2.33,2.33,0,0,0,2.2-2.6V31.7Z"/><path class="cls-4" d="M61.5,31.7h4.4l-6.8-6.9v4.5A2.31,2.31,0,0,0,61.5,31.7Z"/><path class="cls-5" d="M45.1,42.9H35.5a1.22,1.22,0,0,1-1.2-1.2V32.1a1.22,1.22,0,0,1,1.2-1.2h9.6a1.22,1.22,0,0,1,1.2,1.2v9.6A1.22,1.22,0,0,1,45.1,42.9Z"/><path class="cls-6" d="M51,51.6H35.1a.9.9,0,0,1,0-1.8H51a.9.9,0,1,1,0,1.8Z"/><path class="cls-6" d="M47.4,57H35.1a.9.9,0,0,1,0-1.8H47.5a.9.9,0,0,1,.9.9A1.17,1.17,0,0,1,47.4,57Z"/><path class="cls-6" d="M48.2,62.3H35.1a.9.9,0,0,1,0-1.8H48.2a.9.9,0,1,1,0,1.8Z"/><path class="cls-6" d="M61.1,37.7h-10a.86.86,0,0,1-.8-.8v-.1a.86.86,0,0,1,.8-.8H61a.86.86,0,0,1,.8.8v.1A.67.67,0,0,1,61.1,37.7Z"/><path class="cls-6" d="M61.1,42.9h-10a.86.86,0,0,1-.8-.8V42a.86.86,0,0,1,.8-.8H61a.86.86,0,0,1,.8.8v.1A.67.67,0,0,1,61.1,42.9Z"/><path class="cls-7" d="M72.2,74.1a2.71,2.71,0,0,1-2-.8l-8.9-8.9c-1.1-1.1.9-.9,1.9-2s.9-3.1,2-1.9l8.9,8.9a2.84,2.84,0,0,1,0,4A2.74,2.74,0,0,1,72.2,74.1Z"/><path class="cls-5" d="M64.7,67.7l-2.6-2.6,4-4,2.6,2.6a9.58,9.58,0,0,1-1.6,2.2A15.72,15.72,0,0,1,64.7,67.7Z"/><circle class="cls-8" cx="57" cy="56" r="9.1"/><path class="cls-7" d="M57,66.7A10.7,10.7,0,1,1,67.7,56,10.71,10.71,0,0,1,57,66.7Zm0-18.2a7.6,7.6,0,1,0,7.6,7.6A7.6,7.6,0,0,0,57,48.5Z"/></g></g></svg>