<?xml version="1.0" encoding="utf-8"?>
<!-- Generator: Adobe Illustrator 22.1.0, SVG Export Plug-In . SVG Version: 6.00 Build 0)  -->
<svg version="1.1" id="Camada_1" xmlns="http://www.w3.org/2000/svg" xmlns:xlink="http://www.w3.org/1999/xlink" x="0px" y="0px"
	 viewBox="0 0 41 41" style="enable-background:new 0 0 41 41;" xml:space="preserve">
<style type="text/css">
	.st0{fill:url(#SVGID_1_);}
	.st1{clip-path:url(#SVGID_3_);}
	.st2{fill:#828F98;}
	.st3{fill:#93A4AD;}
	.st4{fill:#C9DAE4;}
</style>
<title>avatar-business</title>
<g id="Camada_2_1_">
	<g id="Camada_1-2">
		
			<linearGradient id="SVGID_1_" gradientUnits="userSpaceOnUse" x1="0.5" y1="21.94" x2="40.5" y2="21.94" gradientTransform="matrix(1 0 0 -1 0 42.44)">
			<stop  offset="0" style="stop-color:#3F8CB9"/>
			<stop  offset="1" style="stop-color:#47CBFF"/>
		</linearGradient>
		<circle class="st0" cx="20.5" cy="20.5" r="20"/>
		<g>
			<defs>
				<circle id="SVGID_2_" cx="20.5" cy="20.5" r="20"/>
			</defs>
			<clipPath id="SVGID_3_">
				<use xlink:href="#SVGID_2_"  style="overflow:visible;"/>
			</clipPath>
			<g class="st1">
				<rect x="12.1" y="13.6" class="st2" width="16.5" height="1.9"/>
				<rect x="9.9" y="20.5" class="st2" width="21" height="1.9"/>
				<rect x="10.6" y="22.4" class="st3" width="19.5" height="19.5"/>
				<rect x="15.8" y="8.6" class="st2" width="9.1" height="1.3"/>
				<rect x="20.1" y="-0.7" class="st2" width="0.5" height="9.3"/>
				<rect x="17.9" y="7.5" class="st3" width="4.9" height="1.1"/>
				<rect x="16.3" y="9.9" class="st3" width="8" height="3.7"/>
				<rect x="12.6" y="15.5" class="st3" width="15.5" height="5"/>
				<rect x="14" y="16" class="st4" width="1.7" height="4.5"/>
				<rect x="16.2" y="16" class="st4" width="1.7" height="4.5"/>
				<rect x="18.4" y="16" class="st4" width="1.7" height="4.5"/>
				<rect x="20.6" y="16" class="st4" width="1.7" height="4.5"/>
				<rect x="22.8" y="16" class="st4" width="1.7" height="4.5"/>
				<rect x="25" y="16" class="st4" width="1.7" height="4.5"/>
				<rect x="17.8" y="10" class="st4" width="1.1" height="3.7"/>
				<rect x="19.1" y="10" class="st4" width="1.1" height="3.7"/>
				<rect x="20.5" y="10" class="st4" width="1.1" height="3.7"/>
				<rect x="21.9" y="10" class="st4" width="1.1" height="3.7"/>
				<rect x="12.8" y="23.2" class="st4" width="2.3" height="2.3"/>
				<rect x="16" y="23.2" class="st4" width="2.3" height="2.3"/>
				<rect x="19.2" y="23.2" class="st4" width="2.3" height="2.3"/>
				<rect x="22.4" y="23.2" class="st4" width="2.3" height="2.3"/>
				<rect x="25.5" y="23.2" class="st4" width="2.3" height="2.3"/>
				<rect x="12.8" y="26.3" class="st4" width="2.3" height="2.3"/>
				<rect x="16" y="26.3" class="st4" width="2.3" height="2.3"/>
				<rect x="19.2" y="26.3" class="st4" width="2.3" height="2.3"/>
				<rect x="22.4" y="26.3" class="st4" width="2.3" height="2.3"/>
				<rect x="25.5" y="26.3" class="st4" width="2.3" height="2.3"/>
				<rect x="12.8" y="29.4" class="st4" width="2.3" height="2.3"/>
				<rect x="16" y="29.4" class="st4" width="2.3" height="2.3"/>
				<rect x="19.2" y="29.4" class="st4" width="2.3" height="2.3"/>
				<rect x="22.4" y="29.4" class="st4" width="2.3" height="2.3"/>
				<rect x="25.5" y="29.4" class="st4" width="2.3" height="2.3"/>
				<rect x="12.8" y="32.5" class="st4" width="2.3" height="2.3"/>
				<rect x="16" y="32.5" class="st4" width="2.3" height="2.3"/>
				<rect x="19.2" y="32.5" class="st4" width="2.3" height="2.3"/>
				<rect x="22.4" y="32.5" class="st4" width="2.3" height="2.3"/>
				<rect x="25.5" y="32.5" class="st4" width="2.3" height="2.3"/>
				<rect x="12.8" y="35.7" class="st4" width="2.3" height="2.3"/>
				<rect x="16" y="35.7" class="st4" width="2.3" height="2.3"/>
				<rect x="19.2" y="35.7" class="st4" width="2.3" height="2.3"/>
				<rect x="22.4" y="35.7" class="st4" width="2.3" height="2.3"/>
				<rect x="25.5" y="35.7" class="st4" width="2.3" height="2.3"/>
				<rect x="12.8" y="38.8" class="st4" width="2.3" height="2.3"/>
				<rect x="16" y="38.8" class="st4" width="2.3" height="2.3"/>
				<rect x="19.2" y="38.8" class="st4" width="2.3" height="2.3"/>
				<rect x="22.4" y="38.8" class="st4" width="2.3" height="2.3"/>
				<rect x="25.5" y="38.8" class="st4" width="2.3" height="2.3"/>
			</g>
		</g>
	</g>
</g>
</svg>
