<svg xmlns="http://www.w3.org/2000/svg" viewBox="0 0 500 500"><defs><style>.cls-1{fill:#0d9edc;isolation:isolate;}.cls-2{fill:#fbce9d;}.cls-3{fill:#424a60;}.cls-4{fill:#556080;}.cls-5{fill:#6b5b4b;}</style></defs><title>avatar-default</title><g id="Camada_2" data-name="Camada 2"><g id="Camada_1-2" data-name="Camada 1"><circle class="cls-1" cx="250" cy="250" r="250"/><path class="cls-2" d="M268,359.23l43.62-43.62H291.28a10.52,10.52,0,0,1-10.52-10.48v-5a10.68,10.68,0,0,1,7.14-9.92c44.62-16.79,75.2-90,69-141.79C351,99.59,311.3,60.24,262.43,54.75q-6-.63-11.82-.68h-.34a107.72,107.72,0,0,0-108,107.69c0,46.35,29.3,113.51,70.35,128.68a10.38,10.38,0,0,1,6.58,9.81v4.88a10.49,10.49,0,0,1-10.52,10.48H188.48l43.58,43.61A25.37,25.37,0,0,0,268,359.23Z"/><path class="cls-3" d="M357.68,415.64h0v60q7.86-3.75,15.41-8V431A15.41,15.41,0,0,0,357.68,415.64Z"/><path class="cls-3" d="M142.31,415.64a15.41,15.41,0,0,0-15.4,15.4v36.6q7.54,4.28,15.4,8v-60Z"/><path class="cls-4" d="M434.09,403.13A97.59,97.59,0,0,0,337,315.61H311.57L268,359.23a25.37,25.37,0,0,1-35.89,0l-43.58-43.61H163a97.58,97.58,0,0,0-97.09,87.52,127.59,127.59,0,0,0-.42,15.57,250.91,250.91,0,0,0,61.41,48.94V431a15.41,15.41,0,0,1,15.4-15.4h0v60a248.44,248.44,0,0,0,78,22.57,253.2,253.2,0,0,0,59.52,0,248.26,248.26,0,0,0,77.86-22.56v-60h0A15.41,15.41,0,0,1,373.09,431v36.6a251,251,0,0,0,61.26-48.78A86.06,86.06,0,0,0,434.09,403.13Z"/><path class="cls-5" d="M285.22,101.62c29.14,8,56.54,25.92,74.11,49.54-.1-1.73-.18-3.49-.38-5.18-6-49.8-46.47-89.92-96.28-95.51q-6.09-.63-12.05-.69h-.35A109.69,109.69,0,0,0,142,140.59h0c1.37,2,2.75,4,4.24,5.89.58-.68,1.11-1.34,1.69-2,15.7-18.64,41.87-23,64.16-13.1a54.86,54.86,0,0,0,73.08-29.74Z"/></g></g></svg>