<?xml version="1.0" encoding="UTF-8" standalone="no"?>
<svg
   xmlns:dc="http://purl.org/dc/elements/1.1/"
   xmlns:cc="http://creativecommons.org/ns#"
   xmlns:rdf="http://www.w3.org/1999/02/22-rdf-syntax-ns#"
   xmlns:svg="http://www.w3.org/2000/svg"
   xmlns="http://www.w3.org/2000/svg"
   xmlns:sodipodi="http://sodipodi.sourceforge.net/DTD/sodipodi-0.dtd"
   xmlns:inkscape="http://www.inkscape.org/namespaces/inkscape"
   width="100%"
   height="100%"
   viewBox="0 0 189 40"
   version="1.1"
   xml:space="preserve"
   style="fill-rule:evenodd;clip-rule:evenodd;stroke-linejoin:round;stroke-miterlimit:1.41421;"
   id="svg117"
   sodipodi:docname="capitual-brand-biz.svg"
   inkscape:version="0.92.3 (2405546, 2018-03-11)"><metadata
   id="metadata121"><rdf:RDF><cc:Work
       rdf:about=""><dc:format>image/svg+xml</dc:format><dc:type
         rdf:resource="http://purl.org/dc/dcmitype/StillImage" /></cc:Work></rdf:RDF></metadata><sodipodi:namedview
   pagecolor="#ffffff"
   bordercolor="#666666"
   borderopacity="1"
   objecttolerance="10"
   gridtolerance="10"
   guidetolerance="10"
   inkscape:pageopacity="0"
   inkscape:pageshadow="2"
   inkscape:window-width="640"
   inkscape:window-height="480"
   id="namedview119"
   showgrid="false"
   inkscape:zoom="1.4973545"
   inkscape:cx="94.5"
   inkscape:cy="20"
   inkscape:window-x="0"
   inkscape:window-y="30"
   inkscape:window-maximized="0"
   inkscape:current-layer="svg117" />
    <g
   id="g215"><g
     transform="translate(-0.0029,0.0273192)"
     id="g20">
            <path
   d="m 44.3,18.48 c 0,-3.42 2,-5.48 6,-5.48 0.675,0.005 1.346,0.092 2,0.26 0.86,0.21 1,0.44 1,1.3 v 0.34 c 0,0.92 -0.26,1.1 -1.09,0.87 -0.627,-0.199 -1.283,-0.29 -1.94,-0.27 -2.5,0 -3.39,0.84 -3.39,3 V 21 c 0,2.28 1,3 3.58,3 0.672,-0.017 1.342,-0.094 2,-0.23 0.86,-0.18 1.07,0 1.07,0.89 V 25 c 0,0.86 -0.24,1.1 -1.1,1.31 -0.694,0.172 -1.405,0.259 -2.12,0.26 -4.17,0 -6.13,-1.83 -6.13,-5.49 z"
   style="fill:#1e1e2d;fill-rule:nonzero"
   id="path18"
   inkscape:connector-curvature="0" />
        </g><g
     transform="translate(-0.0029,0.0273192)"
     id="g24">
            <path
   d="m 66.06,22.35 c 0,2.9 -1.7,4.18 -5.57,4.18 -3.52,0 -5.3,-1.33 -5.3,-4 0,-2.67 1.88,-3.94 5.33,-3.94 h 2.87 v -1.31 c 0,-1.54 -1,-2 -3.08,-2 -0.919,-0.014 -1.837,0.063 -2.74,0.23 -0.76,0.13 -1,0 -1,-0.84 v -0.36 c 0,-0.76 0.21,-1 0.94,-1.12 0.873,-0.135 1.756,-0.198 2.64,-0.19 3.79,0 5.91,1.17 5.91,4.28 z M 63.39,20.6 h -2.87 c -1.8,0 -2.64,0.52 -2.64,1.85 0,1.33 1,1.8 2.56,1.8 2,0 3,-0.39 3,-2 z"
   style="fill:#1e1e2d;fill-rule:nonzero"
   id="path22"
   inkscape:connector-curvature="0" />
        </g><g
     transform="translate(-0.0029,0.0273192)"
     id="g28">
            <path
   d="m 67.6,18.56 c 0,-3.73 2.19,-5.56 6,-5.56 4,0 6,1.77 6,5.56 v 2.27 c 0,3.79 -1.81,5.7 -5.44,5.7 -1.85,0 -3.13,-0.58 -3.84,-1.7 v 4.79 c 0,0.94 -0.23,1.18 -1.17,1.18 h -0.31 c -1,0 -1.18,-0.24 -1.18,-1.18 z m 9.25,0.08 c 0,-2.2 -0.68,-3.14 -3.27,-3.14 -2.59,0 -3.32,0.94 -3.32,3.14 v 2.25 c 0,2.16 0.74,3.1 3.32,3.1 2.58,0 3.27,-0.91 3.27,-3.1 z"
   style="fill:#1e1e2d;fill-rule:nonzero"
   id="path26"
   inkscape:connector-curvature="0" />
        </g><g
     transform="translate(-0.0029,0.0273192)"
     id="g32">
            <path
   d="m 83.89,11.51 c 0.315,-0.303 0.494,-0.723 0.494,-1.16 0,-0.437 -0.179,-0.857 -0.494,-1.16 -0.308,-0.308 -0.725,-0.48 -1.16,-0.48 -0.9,0 -1.64,0.74 -1.64,1.64 0,0.435 0.172,0.852 0.48,1.16 0.641,0.626 1.679,0.626 2.32,0 z"
   style="fill:#1e1e2d;fill-rule:nonzero"
   id="path30"
   inkscape:connector-curvature="0" />
        </g><g
     transform="translate(-0.0029,0.0273192)"
     id="g36">
            <path
   d="m 84.08,14.46 c 0,-0.651 -0.529,-1.18 -1.18,-1.18 h -0.33 c -0.651,0 -1.18,0.529 -1.18,1.18 v 10.6 c 0,0.651 0.529,1.18 1.18,1.18 h 0.33 c 0.651,0 1.18,-0.529 1.18,-1.18 z"
   style="fill:#1e1e2d"
   id="path34"
   inkscape:connector-curvature="0" />
        </g><g
     transform="translate(-0.0029,0.0273192)"
     id="g40">
            <path
   d="m 85.93,14.33 c 0,-0.73 0.18,-0.94 0.88,-1.07 L 88.2,13 88.51,10.55 c 0.11,-0.76 0.32,-0.94 1.07,-0.94 h 0.34 c 0.76,0 0.94,0.18 0.94,0.94 V 13 h 3.66 c 0.86,0 1.1,0.18 1.1,1.1 v 0.31 c 0,0.92 -0.24,1.1 -1.1,1.1 h -3.66 v 6.21 c 0,1.52 0.68,2.27 2,2.27 0.72,0.013 1.439,-0.065 2.14,-0.23 0.86,-0.18 1.07,0 1.07,0.91 V 25 c 0,0.86 -0.21,1.12 -1.07,1.3 -0.699,0.134 -1.408,0.205 -2.12,0.21 -3.13,0 -4.7,-1.59 -4.7,-4.81 v -6.19 h -1.34 c -0.73,0 -0.91,-0.18 -0.91,-0.91 z"
   style="fill:#1e1e2d;fill-rule:nonzero"
   id="path38"
   inkscape:connector-curvature="0" />
        </g><g
     transform="translate(-0.0029,0.0273192)"
     id="g44">
            <path
   d="m 100.32,21.43 c 0,1.78 0.68,2.56 3,2.56 2.32,0 3,-0.78 3,-2.56 v -7.26 c 0,-0.94 0.24,-1.17 1.18,-1.17 h 0.34 c 0.94,0 1.17,0.23 1.17,1.17 v 7.26 c 0,3.37 -1.69,5.1 -5.67,5.1 -3.78,0 -5.69,-1.7 -5.69,-5.1 v -7.26 c 0,-0.94 0.24,-1.17 1.18,-1.17 h 0.34 c 0.94,0 1.17,0.23 1.17,1.17 z"
   style="fill:#1e1e2d;fill-rule:nonzero"
   id="path42"
   inkscape:connector-curvature="0" />
        </g><g
     transform="translate(-0.0029,0.0273192)"
     id="g48">
            <path
   d="m 121.4,22.35 c 0,2.9 -1.7,4.18 -5.56,4.18 -3.53,0 -5.3,-1.33 -5.3,-4 0,-2.67 1.88,-3.94 5.32,-3.94 h 2.88 v -1.31 c 0,-1.54 -1,-2 -3.08,-2 -0.922,-0.014 -1.843,0.063 -2.75,0.23 -0.75,0.13 -1,0 -1,-0.84 v -0.36 c 0,-0.76 0.21,-1 0.94,-1.12 0.877,-0.135 1.763,-0.199 2.65,-0.19 3.79,0 5.9,1.17 5.9,4.28 z m -2.66,-1.75 h -2.88 c -1.8,0 -2.63,0.52 -2.63,1.85 0,1.33 1,1.8 2.56,1.8 2,0 2.95,-0.39 2.95,-2 z"
   style="fill:#1e1e2d;fill-rule:nonzero"
   id="path46"
   inkscape:connector-curvature="0" />
        </g><g
     transform="translate(-0.0029,0.0273192)"
     id="g52">
            <path
   d="m 122.94,9.81 c 0,-0.94 0.24,-1.18 1.18,-1.18 h 0.34 c 0.94,0 1.18,0.24 1.18,1.18 v 12.25 c 0,1.39 0.39,1.86 1.22,1.86 0.83,0 1,0.13 1,1 v 0.26 c 0,0.86 -0.21,1 -1.08,1.2 -0.119,0.016 -0.241,0.016 -0.36,0 -2.09,0 -3.48,-1.23 -3.48,-3.87 z"
   style="fill:#1e1e2d;fill-rule:nonzero"
   id="path50"
   inkscape:connector-curvature="0" />
        </g><g
     transform="translate(-0.0029,0.0273192)"
     id="g56">
            <path
   d="M 39.18,22.05 38.32,21.19 35.22,18.09 34,16.86 c 0.95,4.508 -0.315,9.208 -3.4,12.63 l -0.51,0.53 -0.54,0.52 c -5.46,4.927 -13.86,4.927 -19.32,0 H 6.68 c 0.29,0.53 0.61,1 1,1.55 3.288,4.737 8.701,7.569 14.467,7.569 9.129,0 16.821,-7.099 17.553,-16.199 0.042,-0.523 -0.148,-1.039 -0.52,-1.41 z"
   style="fill:url(#_Linear1);fill-rule:nonzero"
   id="path54"
   inkscape:connector-curvature="0" />
        </g><g
     transform="translate(-0.0029,0.0273192)"
     id="g60">
            <path
   d="m 34,16.86 -4.43,0.55 c -0.983,0.124 -1.702,1.013 -1.62,2 0.009,0.151 0.013,0.303 0.013,0.455 0,4.427 -3.643,8.07 -8.07,8.07 -4.427,0 -8.07,-3.643 -8.07,-8.07 0,-4.427 3.643,-8.07 8.07,-8.07 0.166,0 0.331,0.005 0.497,0.015 0.959,0.048 1.801,-0.666 1.91,-1.62 L 22.86,5.76 C 18.352,4.805 13.649,6.071 10.23,9.16 L 9.69,9.67 9.18,10.21 c -2.283,2.624 -3.542,5.987 -3.542,9.466 0,7.91 6.51,14.42 14.42,14.42 3.486,0 6.856,-1.264 9.482,-3.556 l 0.54,-0.52 0.51,-0.53 C 33.678,26.07 34.948,21.369 34,16.86 Z"
   style="fill:#1e1e2d;fill-rule:nonzero"
   id="path58"
   inkscape:connector-curvature="0" />
        </g><g
     transform="translate(-0.0029,0.0273192)"
     id="g64">
            <path
   d="M 9.68,30 C 4.287,24.604 4.062,15.815 9.17,10.15 L 9.68,9.61 10.22,9.1 C 13.639,6.011 18.342,4.745 22.85,5.7 l -1.23,-1.22 -4,-3.95 C 17.263,0.162 16.762,-0.031 16.25,0 7.133,0.712 0.011,8.412 0.011,17.557 c 0,4.664 1.853,9.142 5.149,12.443 0.757,0.763 1.584,1.453 2.47,2.06 6.746,4.638 15.879,3.996 21.91,-1.54 C 23.869,35.627 15.076,35.397 9.68,30 Z"
   style="fill:url(#_Linear2);fill-rule:nonzero"
   id="path62"
   inkscape:connector-curvature="0" />
        </g><g
     transform="translate(-0.0029,0.0273192)"
     id="g68">
            <path
   d="M 7.92,31.3 C 7.036,30.693 6.209,30.007 5.45,29.25 0.976,24.891 -0.815,18.442 0.77,12.4 -1.13,18.618 0.562,25.403 5.16,30 c 0.757,0.763 1.584,1.453 2.47,2.06 6.746,4.638 15.879,3.996 21.91,-1.54 -2.152,1.945 -4.845,3.19 -7.72,3.57 -4.817,1.08 -9.873,0.065 -13.9,-2.79 z"
   style="fill:#00ffff;fill-rule:nonzero"
   id="path66"
   inkscape:connector-curvature="0" />
        </g><g
     transform="matrix(1.2179,0,0,1.2179,134.423,24.8681)"
     id="g72">
            <path
   d="m 2.208,-7.8 c -0.912,0 -1.296,0.396 -1.296,1.296 v 5.208 C 0.912,-0.396 1.296,0 2.208,0 H 3.864 C 5.784,0 6.48,-0.792 6.48,-2.172 6.48,-3.216 6.096,-3.804 4.944,-4.008 V -4.032 C 5.904,-4.26 6.24,-4.788 6.24,-5.76 6.24,-7.092 5.508,-7.8 3.672,-7.8 Z m 1.656,4.224 c 1.26,0 1.668,0.432 1.668,1.356 0,0.96 -0.42,1.344 -1.812,1.344 H 2.412 c -0.396,0 -0.564,-0.168 -0.564,-0.564 V -3.576 Z M 3.672,-6.924 c 1.212,0 1.62,0.396 1.62,1.248 0,0.852 -0.408,1.272 -1.62,1.272 H 1.848 V -6.36 c 0,-0.396 0.168,-0.564 0.564,-0.564 z"
   style="fill:#646464;fill-rule:nonzero"
   id="path70"
   inkscape:connector-curvature="0" />
        </g><g
     transform="matrix(1.2179,0,0,1.2179,134.423,24.8681)"
     id="g76">
            <path
   d="m 8.64,-5.532 c 0,-0.3 -0.06,-0.384 -0.384,-0.384 H 8.124 c -0.3,0 -0.384,0.084 -0.384,0.384 v 3.408 c 0,1.5 0.84,2.244 2.508,2.244 1.764,0 2.496,-0.792 2.496,-2.244 v -3.408 c 0,-0.3 -0.06,-0.384 -0.384,-0.384 h -0.132 c -0.3,0 -0.384,0.084 -0.384,0.384 v 3.408 c 0,0.96 -0.384,1.392 -1.596,1.392 -1.212,0 -1.608,-0.444 -1.608,-1.392 z"
   style="fill:#646464;fill-rule:nonzero"
   id="path74"
   inkscape:connector-curvature="0" />
        </g><g
     transform="matrix(1.2179,0,0,1.2179,134.423,24.8681)"
     id="g80">
            <path
   d="m 13.944,-0.552 c 0,0.252 0.084,0.36 0.384,0.444 0.564,0.156 1.128,0.228 1.692,0.228 1.548,0 2.268,-0.48 2.268,-1.548 0,-0.852 -0.384,-1.224 -1.2,-1.608 l -1.524,-0.696 c -0.42,-0.192 -0.636,-0.456 -0.636,-0.792 0,-0.48 0.336,-0.672 1.212,-0.672 0.528,0 1.032,0.072 1.5,0.228 0.276,0.084 0.384,0.012 0.384,-0.288 v -0.108 c 0,-0.276 -0.072,-0.348 -0.36,-0.444 -0.444,-0.156 -0.936,-0.228 -1.5,-0.228 -1.452,0 -2.124,0.468 -2.124,1.512 0,0.828 0.348,1.188 1.116,1.56 l 1.464,0.696 c 0.576,0.276 0.78,0.48 0.78,0.864 0,0.516 -0.384,0.684 -1.308,0.684 -0.612,0 -1.2,-0.084 -1.764,-0.24 -0.288,-0.06 -0.384,0.012 -0.384,0.312 z"
   style="fill:#646464;fill-rule:nonzero"
   id="path78"
   inkscape:connector-curvature="0" />
        </g><g
     transform="matrix(1.2179,0,0,1.2179,134.423,24.8681)"
     id="g84">
            <path
   d="M 19.74,-0.384 C 19.74,-0.06 19.8,0 20.124,0 h 0.132 c 0.3,0 0.384,-0.06 0.384,-0.384 v -5.148 c 0,-0.3 -0.084,-0.384 -0.384,-0.384 h -0.132 c -0.324,0 -0.384,0.084 -0.384,0.384 z m 0.456,-7.968 c -0.336,0 -0.6,0.264 -0.6,0.588 0,0.324 0.264,0.576 0.6,0.576 0.324,0 0.576,-0.252 0.576,-0.576 0,-0.324 -0.252,-0.588 -0.576,-0.588 z"
   style="fill:#646464;fill-rule:nonzero"
   id="path82"
   inkscape:connector-curvature="0" />
        </g><g
     transform="matrix(1.2179,0,0,1.2179,134.423,24.8681)"
     id="g88">
            <path
   d="m 23.1,-3.792 c 0,-0.948 0.396,-1.392 1.608,-1.392 1.212,0 1.584,0.432 1.584,1.392 v 3.408 c 0,0.324 0.06,0.384 0.384,0.384 h 0.144 c 0.324,0 0.384,-0.06 0.384,-0.384 v -3.408 c 0,-1.452 -0.732,-2.244 -2.496,-2.244 -1.668,0 -2.508,0.744 -2.508,2.244 v 3.408 C 22.2,-0.06 22.284,0 22.584,0 h 0.132 C 23.04,0 23.1,-0.06 23.1,-0.384 Z"
   style="fill:#646464;fill-rule:nonzero"
   id="path86"
   inkscape:connector-curvature="0" />
        </g><g
     transform="matrix(1.2179,0,0,1.2179,134.423,24.8681)"
     id="g92">
            <path
   d="m 33.492,-3.636 c 0,-1.584 -0.876,-2.4 -2.46,-2.4 -1.692,0 -2.532,0.84 -2.532,2.532 v 1.116 c 0,1.776 0.888,2.508 2.772,2.508 0.576,0 1.128,-0.072 1.644,-0.228 0.324,-0.096 0.372,-0.18 0.372,-0.432 v -0.108 c 0,-0.3 -0.096,-0.396 -0.384,-0.312 -0.564,0.156 -1.104,0.228 -1.632,0.228 -1.332,0 -1.872,-0.432 -1.872,-1.524 v -0.36 h 3.624 c 0.324,0 0.396,-0.072 0.432,-0.372 0.024,-0.156 0.036,-0.372 0.036,-0.648 z M 29.4,-3.768 c 0,-0.972 0.54,-1.464 1.62,-1.464 1.08,0 1.62,0.492 1.62,1.464 v 0.396 H 29.4 Z"
   style="fill:#646464;fill-rule:nonzero"
   id="path90"
   inkscape:connector-curvature="0" />
        </g><g
     transform="matrix(1.2179,0,0,1.2179,134.423,24.8681)"
     id="g96">
            <path
   d="m 34.644,-0.552 c 0,0.252 0.084,0.36 0.384,0.444 0.564,0.156 1.128,0.228 1.692,0.228 1.548,0 2.268,-0.48 2.268,-1.548 0,-0.852 -0.384,-1.224 -1.2,-1.608 l -1.524,-0.696 c -0.42,-0.192 -0.636,-0.456 -0.636,-0.792 0,-0.48 0.336,-0.672 1.212,-0.672 0.528,0 1.032,0.072 1.5,0.228 0.276,0.084 0.384,0.012 0.384,-0.288 v -0.108 c 0,-0.276 -0.072,-0.348 -0.36,-0.444 -0.444,-0.156 -0.936,-0.228 -1.5,-0.228 -1.452,0 -2.124,0.468 -2.124,1.512 0,0.828 0.348,1.188 1.116,1.56 l 1.464,0.696 c 0.576,0.276 0.78,0.48 0.78,0.864 0,0.516 -0.384,0.684 -1.308,0.684 -0.612,0 -1.2,-0.084 -1.764,-0.24 -0.288,-0.06 -0.384,0.012 -0.384,0.312 z"
   style="fill:#646464;fill-rule:nonzero"
   id="path94"
   inkscape:connector-curvature="0" />
        </g><g
     transform="matrix(1.2179,0,0,1.2179,134.423,24.8681)"
     id="g100">
            <path
   d="m 40.14,-0.552 c 0,0.252 0.084,0.36 0.384,0.444 0.564,0.156 1.128,0.228 1.692,0.228 1.548,0 2.268,-0.48 2.268,-1.548 0,-0.852 -0.384,-1.224 -1.2,-1.608 L 41.76,-3.732 c -0.42,-0.192 -0.636,-0.456 -0.636,-0.792 0,-0.48 0.336,-0.672 1.212,-0.672 0.528,0 1.032,0.072 1.5,0.228 0.276,0.084 0.384,0.012 0.384,-0.288 v -0.108 c 0,-0.276 -0.072,-0.348 -0.36,-0.444 -0.444,-0.156 -0.936,-0.228 -1.5,-0.228 -1.452,0 -2.124,0.468 -2.124,1.512 0,0.828 0.348,1.188 1.116,1.56 l 1.464,0.696 c 0.576,0.276 0.78,0.48 0.78,0.864 0,0.516 -0.384,0.684 -1.308,0.684 -0.612,0 -1.2,-0.084 -1.764,-0.24 -0.288,-0.06 -0.384,0.012 -0.384,0.312 z"
   style="fill:#646464;fill-rule:nonzero"
   id="path98"
   inkscape:connector-curvature="0" />
        </g></g>
    <defs
   id="defs115">
        <linearGradient
   id="_Linear1"
   x1="0"
   y1="0"
   x2="1"
   y2="0"
   gradientUnits="userSpaceOnUse"
   gradientTransform="matrix(-9.54,-9.55,9.55,-9.54,31.86,35.73)"><stop
     offset="0"
     style="stop-color:rgb(179,33,254);stop-opacity:1"
     id="stop103" /><stop
     offset="1"
     style="stop-color:rgb(131,33,254);stop-opacity:1"
     id="stop105" /></linearGradient>
        <linearGradient
   id="_Linear2"
   x1="0"
   y1="0"
   x2="1"
   y2="0"
   gradientUnits="userSpaceOnUse"
   gradientTransform="matrix(-21.73,21.73,-21.73,-21.73,26.3,8.87)"><stop
     offset="0"
     style="stop-color:rgb(0,255,255);stop-opacity:1"
     id="stop108" /><stop
     offset="0.5"
     style="stop-color:rgb(8,225,254);stop-opacity:1"
     id="stop110" /><stop
     offset="1"
     style="stop-color:rgb(5,147,254);stop-opacity:1"
     id="stop112" /></linearGradient>
    
        
        
        
        
        
        
        
        
        
        
        
        
        
        
        
        
        
        
        
        
        
        
        
        
        
    </defs>
</svg>