<svg xmlns="http://www.w3.org/2000/svg" xmlns:xlink="http://www.w3.org/1999/xlink" viewBox="0 0 70.22 70.21"><defs><style>.cls-1{fill:url(#Gradiente_sem_nome_11);}.cls-2{fill:#1e1e2d;}.cls-3{fill:url(#Gradiente_sem_nome_22);}.cls-4{fill:aqua;}</style><linearGradient id="Gradiente_sem_nome_11" x1="56.34" y1="63.18" x2="39.46" y2="46.3" gradientUnits="userSpaceOnUse"><stop offset="0" stop-color="#b321fe"/><stop offset="1" stop-color="#8321fe"/></linearGradient><linearGradient id="Gradiente_sem_nome_22" x1="46.51" y1="15.69" x2="8.09" y2="54.1" gradientUnits="userSpaceOnUse"><stop offset="0" stop-color="aqua"/><stop offset="0.5" stop-color="#08e1fe"/><stop offset="1" stop-color="#0593fe"/></linearGradient></defs><title>capitual-logo</title><g id="Camada_2" data-name="Camada 2"><g id="Camada_1-2" data-name="Camada 1"><path class="cls-1" d="M69.28,39l-1.53-1.52L62.29,32l-2.18-2.18h0a25.49,25.49,0,0,1-6,22.33c-.29.32-.6.64-.91,1s-.63.61-1,.9a25.49,25.49,0,0,1-34.16,0H11.82c.51.93,1.06,1.84,1.67,2.73a31.76,31.76,0,0,0,3.63,4.37A31.15,31.15,0,0,0,70.21,41.48,3.23,3.23,0,0,0,69.28,39Z"/><path class="cls-2" d="M60.1,29.81l-7.83,1a3.29,3.29,0,0,0-2.87,3.46A14.27,14.27,0,1,1,36,20.82a3.25,3.25,0,0,0,3.38-2.88l1-7.83a25.45,25.45,0,0,0-22.32,6q-.48.44-1,.9c-.31.31-.6.63-.9.95a25.5,25.5,0,0,0,36,36c.32-.29.64-.59,1-.9s.61-.63.91-1A25.49,25.49,0,0,0,60.1,29.81Z"/><path class="cls-3" d="M17.12,53.09A25.51,25.51,0,0,1,16.22,18c.29-.32.59-.64.9-.95s.63-.61,1-.9a25.45,25.45,0,0,1,22.32-6h0L38.22,7.93l-7-7A3.19,3.19,0,0,0,28.73,0,31.14,31.14,0,0,0,9.12,53.09a31.64,31.64,0,0,0,4.37,3.63A31.15,31.15,0,0,0,52.23,54,25.49,25.49,0,0,1,17.12,53.09Z"/><path class="cls-4" d="M14,55.35a32.37,32.37,0,0,1-4.37-3.63A30.7,30.7,0,0,1,1.37,21.93,31.14,31.14,0,0,0,9.12,53.09a31.64,31.64,0,0,0,4.37,3.63A31.15,31.15,0,0,0,52.23,54a25.33,25.33,0,0,1-13.65,6.33A30.87,30.87,0,0,1,14,55.35Z"/></g></g></svg>