<svg xmlns="http://www.w3.org/2000/svg" viewBox="0 0 85 85"><defs><style>.cls-1{fill:#008de4;}.cls-2,.cls-3{fill:none;stroke-linecap:round;stroke-linejoin:round;stroke-width:2px;}.cls-2{stroke:#fff;}.cls-3{stroke:#1ca7eb;}</style></defs><title>coin_dash_new</title><g id="Camada_2" data-name="Camada 2"><g id="Camada_1-2" data-name="Camada 1"><circle class="cls-1" cx="42.5" cy="42.5" r="42.5"/><path class="cls-2" d="M48.58,27.57H35.33l-1.1,6.14h12c5.89,0,7.63,2.14,7.58,5.69a25.35,25.35,0,0,1-1.15,5.89C51.71,48,49.85,51,42.86,51H31.23l-1.1,6.14H43.35c4.67,0,6.65-.54,8.75-1.51,4.66-2.15,7.43-6.75,8.54-12.75C62.29,33.92,60.23,27.57,48.58,27.57Z"/><path class="cls-2" d="M29.61,39.25c-3.47,0-4,2.27-4.29,3.63-.43,1.79-.57,2.52-.57,2.52H38.31c3.48,0,4-2.26,4.3-3.63.43-1.79.57-2.52.57-2.52Z"/><path class="cls-3" d="M11.86,61.31a36.23,36.23,0,0,0,8.94,9.85"/><path class="cls-3" d="M63.15,13.07A36,36,0,0,0,7.79,51.9"/><path class="cls-3" d="M33.52,77.32a36.4,36.4,0,0,0,9,1.13A35.95,35.95,0,0,0,71.24,20.91"/></g></g></svg>