<svg xmlns="http://www.w3.org/2000/svg" viewBox="0 0 85 85"><defs><style>.cls-1{fill:#ffb251;}.cls-2,.cls-3,.cls-4{fill:none;stroke-linecap:round;stroke-linejoin:round;}.cls-2{stroke:#de9538;}.cls-2,.cls-3{stroke-width:2px;}.cls-3,.cls-4{stroke:#fff;}.cls-4{stroke-width:1.64px;}</style></defs><title>btc_coin</title><g id="Camada_2" data-name="Camada 2"><g id="Camada_1-2" data-name="Camada 1"><circle class="cls-1" cx="42.5" cy="42.5" r="42.5"/><path class="cls-2" d="M11.86,61.31a36.23,36.23,0,0,0,8.94,9.85"/><path class="cls-2" d="M63.15,13.07A36,36,0,0,0,7.79,51.9"/><path class="cls-2" d="M33.52,77.32a36.4,36.4,0,0,0,9,1.13A35.95,35.95,0,0,0,71.24,20.91"/><path class="cls-3" d="M37.32,26.2,50,30.47a6.19,6.19,0,0,1,3.88,7.84h0A6.19,6.19,0,0,1,46,42.19L35.89,38.77"/><path class="cls-3" d="M46,42.19l1.5.51A7.33,7.33,0,0,1,52.14,52h0a7.33,7.33,0,0,1-9.29,4.6L28.68,51.81"/><line class="cls-3" x1="31.2" y1="52.66" x2="39.84" y2="27.05"/><line class="cls-4" x1="45.08" y1="25.31" x2="44.02" y2="28.46"/><line class="cls-4" x1="48.64" y1="26.47" x2="47.58" y2="29.63"/><line class="cls-4" x1="38.34" y1="58.57" x2="39.4" y2="55.42"/><line class="cls-4" x1="34.78" y1="57.41" x2="35.84" y2="54.25"/></g></g></svg>