<svg xmlns="http://www.w3.org/2000/svg" viewBox="0 0 85 85"><defs><style>.cls-1{fill:#639c55;}.cls-2,.cls-3{fill:none;stroke-linecap:round;stroke-linejoin:round;stroke-width:2px;}.cls-2{stroke:#57894a;}.cls-3{stroke:#fff;}</style></defs><title>coin_brl</title><g id="Camada_2" data-name="Camada 2"><g id="Camada_1-2" data-name="Camada 1"><circle class="cls-1" cx="42.5" cy="42.5" r="42.5"/><path class="cls-2" d="M11.86,61.31a36.23,36.23,0,0,0,8.94,9.85"/><path class="cls-2" d="M63.15,13.07A36,36,0,0,0,7.79,51.9"/><path class="cls-2" d="M33.52,77.32a36.4,36.4,0,0,0,9,1.13A35.95,35.95,0,0,0,71.24,20.91"/><path class="cls-3" d="M60.56,34.61h0a4.87,4.87,0,0,0-4.87-4.87H50.45a5.84,5.84,0,0,0-5.84,5.84h0a5.83,5.83,0,0,0,5.84,5.83h5.76a6.93,6.93,0,0,1,6.93,6.93h0a6.92,6.92,0,0,1-6.93,6.92H49.47a4.87,4.87,0,0,1-4.86-4.87V48.92"/><line class="cls-3" x1="50.91" y1="25.4" x2="50.91" y2="29.74"/><line class="cls-3" x1="55.59" y1="25.4" x2="55.59" y2="29.74"/><line class="cls-3" x1="50.91" y1="55.26" x2="50.91" y2="59.6"/><line class="cls-3" x1="55.59" y1="55.26" x2="55.59" y2="59.6"/><path class="cls-3" d="M21.86,29.74H34.48a5.84,5.84,0,0,1,5.83,5.84h0a5.83,5.83,0,0,1-5.83,5.83H24.37"/><line class="cls-3" x1="24.37" y1="29.74" x2="24.37" y2="55.26"/><line class="cls-3" x1="31.09" y1="41.41" x2="39.61" y2="55.26"/></g></g></svg>