<svg xmlns="http://www.w3.org/2000/svg" viewBox="0 0 85 85"><defs><style>.cls-1{fill:#5a9f7e;}.cls-2,.cls-3{fill:none;stroke-linecap:round;stroke-linejoin:round;stroke-width:2px;}.cls-2{stroke:#4f8c6f;}.cls-3{stroke:#fff;}</style></defs><title>coin_usd</title><g id="Camada_2" data-name="Camada 2"><g id="Camada_1-2" data-name="Camada 1"><circle class="cls-1" cx="42.5" cy="42.5" r="42.5"/><path class="cls-2" d="M11.86,61.31a36.23,36.23,0,0,0,8.94,9.85"/><path class="cls-2" d="M63.15,13.07A36,36,0,0,0,7.79,51.9"/><path class="cls-2" d="M33.52,77.32a36.4,36.4,0,0,0,9,1.13A35.95,35.95,0,0,0,71.24,20.91"/><path class="cls-3" d="M49.64,34.06h0a5.19,5.19,0,0,0-5.19-5.2H38.84A6.24,6.24,0,0,0,32.6,35.1h0a6.24,6.24,0,0,0,6.24,6.24H45a7.4,7.4,0,0,1,7.4,7.4h0a7.4,7.4,0,0,1-7.4,7.4H37.8a5.2,5.2,0,0,1-5.2-5.2V49.36"/><line class="cls-3" x1="39.33" y1="24.22" x2="39.33" y2="28.86"/><line class="cls-3" x1="44.34" y1="24.22" x2="44.34" y2="28.86"/><line class="cls-3" x1="39.33" y1="56.14" x2="39.33" y2="60.78"/><line class="cls-3" x1="44.34" y1="56.14" x2="44.34" y2="60.78"/></g></g></svg>