<svg xmlns="http://www.w3.org/2000/svg" viewBox="0 0 85 85"><defs><style>.cls-1{fill:#bebebe;}.cls-2,.cls-3{fill:none;stroke-linecap:round;stroke-linejoin:round;stroke-width:2px;}.cls-2{stroke:#a3a3a3;}.cls-3{stroke:#fff;}</style></defs><title>coin_litecoin</title><g id="Camada_2" data-name="Camada 2"><g id="Camada_1-2" data-name="Camada 1"><circle class="cls-1" cx="42.5" cy="42.5" r="42.5"/><path class="cls-2" d="M11.86,61.31a36.23,36.23,0,0,0,8.94,9.85"/><path class="cls-2" d="M63.15,13.07A36,36,0,0,0,7.79,51.9"/><path class="cls-2" d="M33.52,77.32a36.4,36.4,0,0,0,9,1.13A35.95,35.95,0,0,0,71.24,20.91"/><path class="cls-3" d="M40.61,52.33l2.1-7.92,5-1.82,1.24-4.66,0-.12L44,39.61,47.52,26.3h-10L32.88,43.66,29,45.07l-1.27,4.8,3.85-1.4L28.88,58.7H55.54l1.71-6.37H40.61"/></g></g></svg>