<svg xmlns="http://www.w3.org/2000/svg" viewBox="0 0 85 85"><defs><style>.cls-1{fill:#49c966;}.cls-2,.cls-3,.cls-4{fill:none;stroke-linecap:round;stroke-linejoin:round;}.cls-2,.cls-3{stroke:#fff;}.cls-2,.cls-4{stroke-width:2px;}.cls-3{stroke-width:1.64px;}.cls-4{stroke:#3eab57;}</style></defs><title>btc_cash_coin</title><g id="Camada_2" data-name="Camada 2"><g id="Camada_1-2" data-name="Camada 1"><circle class="cls-1" cx="42.5" cy="42.5" r="42.5"/><path class="cls-2" d="M27.94,32.77l12.8-3.85a6.18,6.18,0,0,1,7.7,4.13h0a6.2,6.2,0,0,1-4.14,7.71L34.05,43.84"/><path class="cls-2" d="M44.3,40.76l1.52-.46A7.33,7.33,0,0,1,55,45.21h0A7.32,7.32,0,0,1,50,54.34L35.73,58.65"/><line class="cls-2" x1="38.27" y1="57.89" x2="30.48" y2="32"/><line class="cls-3" x1="33.75" y1="27.54" x2="34.71" y2="30.73"/><line class="cls-3" x1="37.33" y1="26.43" x2="38.29" y2="29.62"/><line class="cls-3" x1="47.52" y1="58.57" x2="46.56" y2="55.38"/><line class="cls-3" x1="43.94" y1="59.68" x2="42.98" y2="56.49"/><path class="cls-4" d="M11.86,61.31a36.23,36.23,0,0,0,8.94,9.85"/><path class="cls-4" d="M63.15,13.07A36,36,0,0,0,7.79,51.9"/><path class="cls-4" d="M33.52,77.32a36.4,36.4,0,0,0,9,1.13A35.95,35.95,0,0,0,71.24,20.91"/></g></g></svg>