<svg xmlns="http://www.w3.org/2000/svg" viewBox="0 0 85 85"><defs><style>.cls-1{fill:#3b5ba0;}.cls-2,.cls-3{fill:none;stroke-linecap:round;stroke-linejoin:round;stroke-width:2px;}.cls-2{stroke:#34508c;}.cls-3{stroke:#fff;}</style></defs><title>coin_eur</title><g id="Camada_2" data-name="Camada 2"><g id="Camada_1-2" data-name="Camada 1"><circle class="cls-1" cx="42.5" cy="42.5" r="42.5"/><path class="cls-2" d="M11.86,61.31a36.23,36.23,0,0,0,8.94,9.85"/><path class="cls-2" d="M63.15,13.07A36,36,0,0,0,7.79,51.9"/><path class="cls-2" d="M33.52,77.32a36.4,36.4,0,0,0,9,1.13A35.95,35.95,0,0,0,71.24,20.91"/><path class="cls-3" d="M50.38,50A7.42,7.42,0,0,1,43,57.39H39.19A7.42,7.42,0,0,1,31.77,50V35a7.42,7.42,0,0,1,7.42-7.42H43A7.42,7.42,0,0,1,50.38,35"/><line class="cls-3" x1="27.66" y1="46.28" x2="39.83" y2="46.28"/><line class="cls-3" x1="27.66" y1="38.72" x2="39.83" y2="38.72"/></g></g></svg>