<svg xmlns="http://www.w3.org/2000/svg" viewBox="0 0 100 100"><defs><style>.cls-1{fill:#f7f7f7;}.cls-2{fill:#ebebeb;}.cls-3{fill:#fabe5a;}.cls-4{fill:#1e1e2d;}</style></defs><title>compliance</title><g id="Camada_2" data-name="Camada 2"><g id="Capa_1" data-name="Capa 1"><circle class="cls-1" cx="50" cy="50" r="50"/><circle class="cls-2" cx="50" cy="50" r="41.1" transform="translate(-2.69 2.84) rotate(-3.17)"/><g id="Layer_1-2" data-name="Layer 1-2"><path class="cls-3" d="M73,59,54.4,26.3a5.08,5.08,0,0,0-6.9-1.9,5,5,0,0,0-1.9,1.9L27,59a5.06,5.06,0,0,0,1.9,6.9,5.53,5.53,0,0,0,2.5.7H68.5A5.18,5.18,0,0,0,73,59Z"/><path class="cls-4" d="M52.3,59.2a3,3,0,0,1-2,.8,3.72,3.72,0,0,1-2-.7,2.72,2.72,0,0,1-.9-2.1,2.8,2.8,0,0,1,2.8-2.8h.1a3,3,0,0,1,2,.8,2.79,2.79,0,0,1,.8,2A3,3,0,0,1,52.3,59.2Z"/><path class="cls-4" d="M53,40.2l-.7,8.3a5.93,5.93,0,0,1-.5,2.3,1.78,1.78,0,0,1-1.6,1,1.46,1.46,0,0,1-1.5-.9,6.87,6.87,0,0,1-.5-2.4l-.5-8.1c-.1-1.6-.2-2.7-.2-3.4a3.49,3.49,0,0,1,.8-2.4,2.88,2.88,0,0,1,2.1-.9A2.23,2.23,0,0,1,52.5,35a6.34,6.34,0,0,1,.5,3A8.09,8.09,0,0,1,53,40.2Z"/></g></g></g></svg>