<svg xmlns="http://www.w3.org/2000/svg" viewBox="0 0 100 100"><defs><style>.cls-1{fill:#ededff;}.cls-2{fill:#cfcfff;}.cls-3{fill:#f0f0f0;}.cls-4{fill:#fff;}.cls-5{fill:#a521ff;}.cls-6{fill:#00e3ff;}.cls-7{fill:aqua;}.cls-8{fill:#849394;}</style></defs><title>confirm_phone</title><g id="Camada_2" data-name="Camada 2"><g id="Capa_1" data-name="Capa 1"><circle class="cls-1" cx="50" cy="50" r="50"/><circle class="cls-2" cx="50" cy="50" r="41.1" transform="translate(-2.69 2.84) rotate(-3.17)"/><path class="cls-3" d="M62,88.1l.3,1.1a42.12,42.12,0,0,0,15.4-8.8L60.6,23.3a5.42,5.42,0,0,0-6.7-3.6L25.7,28.2a5.42,5.42,0,0,0-3.6,6.7L38.5,89.4a40.69,40.69,0,0,0,11.6,1.7,37.1,37.1,0,0,0,6.7-.6l-.2-.8Z"/><rect class="cls-4" x="33.47" y="28.32" width="32.7" height="58.3" transform="translate(-14.42 16.75) rotate(-16.71)"/><path class="cls-5" d="M70.8,70.8a51.73,51.73,0,0,1-15.1-1.9,50.43,50.43,0,0,1-15.6-7.3,59.68,59.68,0,0,0,6,7.3A50.55,50.55,0,0,0,68.5,82.1l5.2-1.6Z"/><path class="cls-6" d="M69.8,67.6a4.4,4.4,0,0,1-1-.2c-.3-.1-.6-.1-.9-.2s-.7-.1-1-.2a3.55,3.55,0,0,0-1-.2c-.3-.1-.6-.1-.8-.2-.4-.1-.8-.2-1.1-.3s-.5-.1-.7-.2c-.4-.1-.9-.3-1.3-.4-.2-.1-.4-.1-.5-.2-.5-.2-.9-.4-1.4-.6-.1-.1-.3-.1-.4-.2-.5-.2-1-.5-1.6-.7a.35.35,0,0,1-.2-.1c-.6-.3-1.1-.6-1.7-.9h-.1c-.8-.4-1.6-.9-2.4-1.4a3,3,0,0,1-.7-.5c-.6-.4-1.1-.8-1.7-1.2-.3-.2-.5-.4-.8-.6L49,58.1c-.3-.2-.5-.5-.8-.7a18,18,0,0,1-2-1.9,42.4,42.4,0,0,1-12-23.9l-8.5,2.6,4.6,15.3c1.1,1.3,2.2,2.6,3.4,3.8A50.84,50.84,0,0,0,38,57.1c1,.8,2,1.6,3,2.3A53.57,53.57,0,0,0,70.3,69Z"/><path class="cls-7" d="M70.2,68.9a52.25,52.25,0,0,1-29.3-9.6c-1-.7-2-1.5-3-2.3a50.84,50.84,0,0,1-4.3-3.8c-1.2-1.2-2.3-2.5-3.4-3.8l1.5,4.9c.4.4.7.8,1.1,1.2a53.39,53.39,0,0,0,4.4,3.9,31.55,31.55,0,0,0,2.9,2.2h0a49.39,49.39,0,0,0,15.6,7.3,48.11,48.11,0,0,0,15.1,1.8Z"/><path class="cls-8" d="M62,88.1l-5.5,1.7.2.8a50.71,50.71,0,0,0,5.6-1.3Z"/><rect class="cls-8" x="36.36" y="25.82" width="8.8" height="2.2" transform="translate(-6.02 12.86) rotate(-16.71)"/></g></g></svg>