<svg xmlns="http://www.w3.org/2000/svg" viewBox="0 0 100 100"><defs><style>.cls-1{fill:#cff2ff;}.cls-2{fill:#b0e9ff;}.cls-3{fill:#d07c40;}.cls-4{fill:#efefef;}.cls-5{fill:#26a6d1;}.cls-6{fill:#efc75e;}.cls-7{fill:#e8c15b;}.cls-8{fill:#d6d9db;}.cls-9{fill:#e2574c;}</style></defs><title>confirm_email</title><g id="Camada_2" data-name="Camada 2"><g id="Capa_1" data-name="Capa 1"><circle class="cls-1" cx="50" cy="50" r="50"/><circle class="cls-2" cx="50" cy="50" r="41.1" transform="translate(-2.69 2.84) rotate(-3.17)"/><path class="cls-3" d="M25.8,45.1,50,30.7,74.2,45.1V66.3H25.8Z"/><path class="cls-4" d="M31.1,26.9H68.9a1.54,1.54,0,0,1,1.5,1.5V54.9a1.54,1.54,0,0,1-1.5,1.5H31.1a1.54,1.54,0,0,1-1.5-1.5V28.4A1.42,1.42,0,0,1,31.1,26.9Z"/><path class="cls-5" d="M65.7,30l2.4-3h.8a1.54,1.54,0,0,1,1.5,1.5V30ZM46,30l2.4-3h5.3l-2.4,3ZM29.5,30V28.5A1.54,1.54,0,0,1,31,27h3.8l-2.4,3Z"/><path class="cls-6" d="M74.2,70.8a2.33,2.33,0,0,1-2.3,2.3H28a2.33,2.33,0,0,1-2.3-2.3V45.1L49.9,55.7,74.1,45.1l.1,25.7Z"/><path class="cls-7" d="M74.2,70.8a2.33,2.33,0,0,1-2.3,2.3H28a2.33,2.33,0,0,1-2.3-2.3V66.3L74.1,45.1V70.8Z"/><path class="cls-8" d="M57.79,40.37l-2.47.26a1,1,0,0,0-.88,1.06A4.39,4.39,0,0,1,53,45.21a4.55,4.55,0,0,1-6,.09,4.45,4.45,0,0,1-.18-6.52,4.38,4.38,0,0,1,3.44-1.32,1,1,0,0,0,1.06-.88l.26-2.47a7.81,7.81,0,0,0-7,1.85l-.26.26-.27.27A8,8,0,0,0,55.41,47.77l.27-.27.26-.26a7.56,7.56,0,0,0,1.85-6.87"/><path class="cls-9" d="M55.9,30l2.4-3h5.3l-2.4,3ZM36.2,30l2.4-3h5.3l-2.4,3Z"/></g></g></svg>