<!--?xml version="1.0" encoding="UTF-8" standalone="no"?-->

<svg width="100%" height="100%" viewBox="0 0 512 512" version="1.1" xmlns="http://www.w3.org/2000/svg" xmlns:xlink="http://www.w3.org/1999/xlink" xml:space="preserve" xmlns:serif="http://www.serif.com/" style="fill-rule: evenodd; clip-rule: evenodd; stroke-linejoin: round; stroke-miterlimit: 1.41421;" class="">
    <g>
        <g transform="matrix(0.981295,0,0,0.981295,4.78846,4.78846)">
            <path d="M414.948,432L415.854,432C468.911,432 512,388.914 512,336.297C512,298.182 490.222,265.537 458.475,250.105C462.1,241.939 463.913,233.321 463.913,224.249C463.913,188.869 435.353,160.294 399.981,160.294L394.544,160.294C367.328,112.208 315.178,80 255.77,80C190.012,80 132.87,120.374 108.84,177.53C47.159,187.055 0,240.126 0,304.089C0,374.851 57.143,432 127.885,432L414.948,432Z" style="fill:none;stroke:rgb(219,82,77);stroke-width:9.17px;" class="gjuSPEmD_0"></path>
        </g>
        <g transform="matrix(0.981295,0,0,0.981295,4.78846,4.78846)">
            <path d="M328.77,215.177C338.3,224.702 338.3,239.673 328.77,249.198L289.775,288.212L328.77,327.218C338.3,336.751 338.3,351.722 328.77,361.239C319.708,370.319 304.304,370.319 295.211,361.239L255.77,322.234L216.767,361.239C207.698,370.319 192.277,370.319 183.208,361.239C173.686,351.722 173.686,336.752 183.208,327.218L222.212,288.212L183.208,249.198C173.686,239.673 173.686,224.702 183.208,215.177C192.277,205.652 207.698,205.652 216.767,215.177L255.77,254.191L295.211,215.177C304.304,205.652 319.708,205.652 328.77,215.177Z" style="fill:none;stroke:rgb(219,82,77);stroke-width:9.17px;" class="gjuSPEmD_1"></path>
        </g>
    </g>
<style data-made-with="vivus-instant">.gjuSPEmD_0{stroke-dasharray:1416 1418;stroke-dashoffset:1417;}.start .gjuSPEmD_0{animation:gjuSPEmD_draw 2000ms linear 0ms forwards;}.gjuSPEmD_1{stroke-dasharray:743 745;stroke-dashoffset:744;}.start .gjuSPEmD_1{animation:gjuSPEmD_draw 2000ms linear 1000ms forwards;}@keyframes gjuSPEmD_draw{100%{stroke-dashoffset:0;}}@keyframes gjuSPEmD_fade{0%{stroke-opacity:1;}94.44444444444444%{stroke-opacity:1;}100%{stroke-opacity:0;}}</style></svg>
