<!--?xml version="1.0" encoding="UTF-8" standalone="no"?-->

<svg width="100%" height="100%" viewBox="0 0 32 32" version="1.1" xmlns="http://www.w3.org/2000/svg" xmlns:xlink="http://www.w3.org/1999/xlink" xml:space="preserve" xmlns:serif="http://www.serif.com/" style="fill-rule: evenodd; clip-rule: evenodd; stroke-linejoin: round; stroke-miterlimit: 1.41421;" class="">
    <g>
        <g transform="matrix(0.977348,0,0,0.977348,0.362429,0.339778)">
            <path d="M28.816,15.703C28.924,15.317 29,14.92 29,14.5C29,12.015 26.985,10 24.5,10C24.219,10 23.945,10.033 23.678,10.083C22.607,6.009 18.911,3 14.5,3C9.252,3 5,7.252 5,12.5C5,12.765 5.019,13.024 5.039,13.283C2.129,14.132 0,16.815 0,20C0,23.866 3.134,27 7,27L26,27C29.314,27 32,24.314 32,21C32,18.704 30.71,16.712 28.816,15.703Z" style="fill:none;stroke:rgb(58,173,115);stroke-width:0.56px;" class="amNsKqPw_0"></path>
        </g>
        <path d="M21.545,12.386C20.959,11.8 19.935,11.874 19.348,12.461L14.45,17.359L12.53,15.44C11.945,14.853 10.937,14.796 10.351,15.383C9.764,15.969 9.875,17.031 10.462,17.617L13.388,20.543C13.974,21.129 14.924,21.129 15.511,20.543L21.574,14.479C22.16,13.894 22.132,12.972 21.545,12.386Z" style="fill:none;stroke:rgb(58,173,115);stroke-width:0.55px;" class="amNsKqPw_1"></path>
    </g>
<style data-made-with="vivus-instant">.amNsKqPw_0{stroke-dasharray:93 95;stroke-dashoffset:94;}.start .amNsKqPw_0{animation:amNsKqPw_draw 800ms linear 0ms forwards;}.amNsKqPw_1{stroke-dasharray:35 37;stroke-dashoffset:36;}.start .amNsKqPw_1{animation:amNsKqPw_draw 800ms linear 500ms forwards;}@keyframes amNsKqPw_draw{100%{stroke-dashoffset:0;}}@keyframes amNsKqPw_fade{0%{stroke-opacity:1;}94.44444444444444%{stroke-opacity:1;}100%{stroke-opacity:0;}}</style></svg>
