<svg xmlns="http://www.w3.org/2000/svg" viewBox="0 0 100 100"><defs><style>.cls-1{fill:#fff6d4;}.cls-2{fill:#ffe78c;}.cls-3{fill:none;}.cls-4{fill:#787680;}.cls-5{fill:#f1cfa2;}.cls-6{fill:#a478bf;}.cls-7{fill:#ffdaaa;}.cls-8{fill:#846099;}.cls-9{fill:#3d9ae2;}.cls-10{fill:#1e81ce;}.cls-11{fill:#debf95;}.cls-12{fill:#c7ab85;}</style></defs><title>denied</title><g id="Camada_2" data-name="Camada 2"><g id="Capa_1" data-name="Capa 1"><circle class="cls-1" cx="50" cy="50" r="50"/><circle class="cls-2" cx="50" cy="50" r="41.1" transform="translate(-2.69 2.84) rotate(-3.17)"/><path class="cls-3" d="M44.79,59.79c-.3-.1-.6-.21-.89-.33C44.19,59.58,44.49,59.69,44.79,59.79Z"/><path class="cls-3" d="M48.19,60.54c-.44,0-.89-.12-1.32-.2C47.31,60.42,47.75,60.49,48.19,60.54Z"/><path class="cls-3" d="M50,60.64c-.5,0-1,0-1.48-.07C49,60.61,49.49,60.64,50,60.64Z"/><path class="cls-3" d="M30.61,39.46a3,3,0,0,0-.43.24A3,3,0,0,1,30.61,39.46Z"/><path class="cls-3" d="M32.24,39.08a4.53,4.53,0,0,0-.74.07A4.42,4.42,0,0,1,32.24,39.08Z"/><path class="cls-3" d="M31.35,39.2a2.69,2.69,0,0,0-.55.17A2.69,2.69,0,0,1,31.35,39.2Z"/><path class="cls-3" d="M46.43,60.24c-.38-.08-.76-.18-1.13-.29A11,11,0,0,0,46.43,60.24Z"/><path class="cls-3" d="M51.49,60.57c-.48,0-1,.07-1.48.07C50.51,60.64,51,60.61,51.49,60.57Z"/><path class="cls-3" d="M56.1,59.46c-.29.12-.59.23-.89.33C55.51,59.69,55.81,59.58,56.1,59.46Z"/><path class="cls-3" d="M50,91.1h0Z"/><path class="cls-3" d="M53.13,60.34c-.43.08-.88.15-1.32.2C52.25,60.49,52.69,60.42,53.13,60.34Z"/><path class="cls-3" d="M54.7,60c-.37.11-.75.21-1.13.29A11,11,0,0,0,54.7,60Z"/><path class="cls-4" d="M30.61,39.46l.19-.09a2.69,2.69,0,0,1,.55-.17l.15-.05a4.53,4.53,0,0,1,.74-.07h1.27V35.27a14.36,14.36,0,0,0,2.54,0h0A1.26,1.26,0,0,1,37.31,34h4.25a24.82,24.82,0,0,0,9.71-6.34,45.11,45.11,0,0,0,10,6.34h1.43a1.26,1.26,0,0,1,1.19.9,10.66,10.66,0,0,0,2.61.37v3.81h1.27a3.78,3.78,0,0,1,2.54,1V37.81a20.3,20.3,0,1,0-40.6,0v2.24l.25-.18.23-.17A3,3,0,0,1,30.61,39.46Z"/><path class="cls-5" d="M33.51,40.35V39.08H32.24a4.42,4.42,0,0,0-.74.07l-.15.05a2.69,2.69,0,0,0-.55.17l-.19.09a3,3,0,0,0-.43.24l-.23.17a3.79,3.79,0,0,0,2.29,6.82h1.48a17.64,17.64,0,0,1-.21-2.54Z"/><path class="cls-5" d="M30.8,39.37l-.19.09Z"/><path class="cls-5" d="M31.5,39.15l-.15.05Z"/><path class="cls-5" d="M30,39.87l.23-.17Z"/><path class="cls-6" d="M70.36,67.81,57.61,64.45,60.15,74.6l-5.86-1.46L52.54,78.4,55,90.78a40.89,40.89,0,0,0,11.48-3.13V80.94H69v5.49a41.31,41.31,0,0,0,11.73-9.18A15.24,15.24,0,0,0,70.36,67.81Z"/><path class="cls-5" d="M66.49,39.08v5.07a17.64,17.64,0,0,1-.21,2.54h1.48a3.81,3.81,0,1,0,0-7.61Z"/><path class="cls-7" d="M48.73,35.27v1.27h2.54V35.27A1.27,1.27,0,0,1,52.54,34h8.72a45.11,45.11,0,0,1-10-6.34A24.82,24.82,0,0,1,41.56,34h5.9A1.27,1.27,0,0,1,48.73,35.27Z"/><path class="cls-7" d="M44.79,59.79l.51.16c.37.11.75.21,1.13.29l.44.1c.43.08.88.15,1.32.2l.32,0c.48,0,1,.07,1.48.07h0c.5,0,1,0,1.48-.07l.32,0c.44,0,.89-.12,1.32-.2l.44-.1c.38-.08.76-.18,1.13-.29l.51-.16c.3-.1.6-.21.89-.33s.35-.13.51-.21a16.5,16.5,0,0,0,9.67-12.56H65.22V40.35H64v2.53a1.26,1.26,0,0,1-1.26,1.27H53.81v1.27a3.81,3.81,0,1,1-7.62,0V44.15H37.31a1.26,1.26,0,0,1-1.26-1.27V40.35H34.78v6.34H33.72a16.5,16.5,0,0,0,9.67,12.56c.16.08.34.14.51.21S44.49,59.69,44.79,59.79Zm5.47-8.4a3,3,0,1,1,0,6,2.89,2.89,0,0,1-3-3A3,3,0,0,1,50.26,51.39Z"/><path class="cls-7" d="M64,37.81h2.54V35.27a10.66,10.66,0,0,1-2.61-.37,1.16,1.16,0,0,1,.07.37Z"/><path class="cls-7" d="M36.05,35.28a14.36,14.36,0,0,1-2.54,0v2.54h2.54Z"/><path class="cls-7" d="M52.81,42.61h9.61V35.54H52.81Zm3.9-4.43a1.17,1.17,0,0,1,.42-.27,1.19,1.19,0,0,1,.72-.08.85.85,0,0,1,.24.08.91.91,0,0,1,.22.11,1.56,1.56,0,0,1,.2.16,1.31,1.31,0,0,1,.37.9,1.2,1.2,0,0,1-.79,1.16,1.3,1.3,0,0,1-.48.11,1.26,1.26,0,0,1-.9-.37,2.36,2.36,0,0,1-.28-.42A1.32,1.32,0,0,1,56.71,38.18Z"/><path class="cls-7" d="M37.58,42.61h9.61V35.54H37.58Zm3.91-4.43a1.17,1.17,0,0,1,.42-.27,1.27,1.27,0,0,1,1.38.27,1.35,1.35,0,0,1,.37.9,1.28,1.28,0,0,1-.37.9,1.71,1.71,0,0,1-.42.28,1.32,1.32,0,0,1-.48.09,1.26,1.26,0,0,1-.9-.37,1.28,1.28,0,0,1-.37-.9A1.31,1.31,0,0,1,41.49,38.18Z"/><path class="cls-7" d="M34.78,44.15v-3.8H33.51v3.8a17.64,17.64,0,0,0,.21,2.54h1.06Z"/><path class="cls-7" d="M66.49,40.35H65.22v6.34h1.06a17.64,17.64,0,0,0,.21-2.54Z"/><polygon class="cls-8" points="54.29 73.14 60.15 74.6 57.61 64.45 50 72.06 54.29 73.14"/><path class="cls-7" d="M57.61,64.45V61.32a16.5,16.5,0,0,1-15.22,0v3.13L50,72.06Z"/><path class="cls-9" d="M52.54,78.4H47.46L45,90.78a40.46,40.46,0,0,0,4.57.31h.88A40.46,40.46,0,0,0,55,90.78Z"/><polygon class="cls-10" points="50 72.06 45.71 73.14 47.46 78.4 52.54 78.4 54.29 73.14 50 72.06"/><path class="cls-7" d="M48.73,45.42a1.27,1.27,0,1,0,2.54,0V43.35h.09a1.45,1.45,0,0,1-.09-.47v-3.8H48.73v3.8a1.45,1.45,0,0,1-.09.47h.09Z"/><polygon class="cls-8" points="42.39 64.45 39.85 74.6 45.71 73.14 50 72.06 42.39 64.45"/><path class="cls-6" d="M31,86.43V80.94h2.54v6.71A40.89,40.89,0,0,0,45,90.78L47.46,78.4l-1.75-5.26L39.85,74.6l2.54-10.15L29.64,67.81a15.24,15.24,0,0,0-10.4,9.44A41.31,41.31,0,0,0,31,86.43Z"/><path class="cls-5" d="M57.61,61.32V58.78c-.33.17-.66.33-1,.47-.16.08-.34.14-.51.21s-.59.23-.89.33L54.7,60a11,11,0,0,1-1.13.29l-.44.1c-.44.08-.88.15-1.32.2l-.32,0c-.49,0-1,.07-1.48.07h0c-.5,0-1,0-1.48-.07l-.32,0c-.44,0-.88-.12-1.32-.2l-.44-.1A11,11,0,0,1,45.3,60l-.51-.16c-.3-.1-.6-.21-.89-.33s-.35-.13-.51-.21c-.34-.14-.67-.3-1-.47v2.54A16.5,16.5,0,0,0,57.61,61.32Z"/><path class="cls-5" d="M46.87,60.34l-.44-.1Z"/><path class="cls-5" d="M48.51,60.57l-.32,0Z"/><path class="cls-5" d="M53.57,60.24l-.44.1Z"/><path class="cls-5" d="M45.3,60l-.51-.16Z"/><path class="cls-5" d="M51.81,60.54l-.32,0Z"/><path class="cls-5" d="M43.39,59.25c.16.08.34.14.51.21C43.73,59.39,43.55,59.33,43.39,59.25Z"/><path class="cls-5" d="M55.21,59.79,54.7,60Z"/><path class="cls-5" d="M56.61,59.25c-.16.08-.34.14-.51.21C56.27,59.39,56.45,59.33,56.61,59.25Z"/><path class="cls-5" d="M50,60.64h0Z"/><path class="cls-11" d="M52.54,45.42a2.54,2.54,0,0,1-5.08,0V44.15H46.19v1.27a3.81,3.81,0,1,0,7.62,0V44.15H52.54Z"/><path class="cls-11" d="M51.36,43.35h-.09v2.07a1.27,1.27,0,1,1-2.54,0V43.35h-.09a1.27,1.27,0,0,1-1.18.8v1.27a2.54,2.54,0,0,0,5.08,0V44.15A1.27,1.27,0,0,1,51.36,43.35Z"/><path class="cls-10" d="M62.69,34H61.26a18.92,18.92,0,0,0,2.62.9A1.26,1.26,0,0,0,62.69,34Z"/><path class="cls-10" d="M41.56,34H37.31a1.26,1.26,0,0,0-1.26,1.27h0c.41,0,.83-.08,1.24-.15A24,24,0,0,0,41.56,34Z"/><path class="cls-10" d="M66.49,39.08V37.81H64V35.27a1.16,1.16,0,0,0-.07-.37,18.92,18.92,0,0,1-2.62-.9H52.54a1.27,1.27,0,0,0-1.27,1.27v1.27H48.73V35.27A1.27,1.27,0,0,0,47.46,34h-5.9a24,24,0,0,1-4.27,1.13c-.41.07-.83.12-1.24.15v2.53H33.51v1.27h1.27v1.27h1.27v2.53a1.26,1.26,0,0,0,1.26,1.27h8.88v-.8h1.27V37.81h5.08v5.54h1.27v.8h8.88A1.26,1.26,0,0,0,64,42.88V40.35h1.27V39.08Zm-19.3,3.53H37.58V35.54h9.61Zm15.23,0H52.81V35.54h9.61Z"/><rect class="cls-10" x="33.51" y="39.08" width="1.27" height="1.27"/><rect class="cls-10" x="65.22" y="39.08" width="1.27" height="1.27"/><path class="cls-10" d="M48.73,42.88v-3.8h2.54v3.8a1.45,1.45,0,0,0,.09.47h1.18V37.81H47.46v5.54h1.18A1.45,1.45,0,0,0,48.73,42.88Z"/><rect class="cls-10" x="46.19" y="43.35" width="1.27" height="0.81"/><rect class="cls-10" x="52.54" y="43.35" width="1.27" height="0.81"/><path class="cls-10" d="M52.54,44.15v-.8H51.36A1.27,1.27,0,0,0,52.54,44.15Z"/><path class="cls-10" d="M48.64,43.35H47.46v.8A1.27,1.27,0,0,0,48.64,43.35Z"/><path class="cls-8" d="M31,80.94v5.49c.83.43,1.68.84,2.54,1.22V80.94Z"/><path class="cls-8" d="M66.49,80.94v6.71c.86-.38,1.71-.79,2.54-1.22V80.94Z"/><path class="cls-12" d="M56.71,40a1.26,1.26,0,0,0,.9.37,1.51,1.51,0,0,0,.9-.37,1.28,1.28,0,0,0,.37-.9,1.31,1.31,0,0,0-.37-.9,1.56,1.56,0,0,0-.2-.16.91.91,0,0,0-.22-.11.85.85,0,0,0-.24-.08,1.19,1.19,0,0,0-.72.08,1.17,1.17,0,0,0-.42.27,1.32,1.32,0,0,0-.28,1.38A2.36,2.36,0,0,0,56.71,40Z"/><path class="cls-12" d="M42.39,40.35a1.32,1.32,0,0,0,.48-.09,1.71,1.71,0,0,0,.42-.28,1.28,1.28,0,0,0,.37-.9,1.35,1.35,0,0,0-.37-.9,1.27,1.27,0,0,0-1.38-.27,1.17,1.17,0,0,0-.42.27,1.31,1.31,0,0,0-.37.9,1.28,1.28,0,0,0,.37.9A1.26,1.26,0,0,0,42.39,40.35Z"/><path class="cls-11" d="M50.26,57.39a3,3,0,1,0-3-3A2.89,2.89,0,0,0,50.26,57.39Z"/></g></g></svg>