<svg xmlns="http://www.w3.org/2000/svg" viewBox="0 0 100 100"><defs><style>.cls-1{fill:#f7f7f7;}.cls-2{fill:#eeeeef;}.cls-3,.cls-4{fill:none;stroke:#76838f;}.cls-3{stroke-miterlimit:10;}.cls-4{stroke-linecap:round;stroke-linejoin:round;}</style></defs><title>doc-back</title><g id="Camada_2" data-name="Camada 2"><g id="Capa_1" data-name="Capa 1"><circle class="cls-1" cx="50" cy="50" r="50"/><circle class="cls-2" cx="50" cy="50" r="41.1" transform="translate(-3.42 96.33) rotate(-85.93)"/><path class="cls-3" d="M70.7,66.9H29.2a2.65,2.65,0,0,1-2.6-2.6V35.7a2.65,2.65,0,0,1,2.6-2.6H70.7a2.65,2.65,0,0,1,2.6,2.6V64.3A2.52,2.52,0,0,1,70.7,66.9Z"/><path class="cls-4" d="M32.2,40.3h25a.8.8,0,0,0,0-1.6h-25a.8.8,0,1,0,0,1.6Z"/><path class="cls-4" d="M60.4,40.3h.8a.8.8,0,0,0,0-1.6h-.8a.8.8,0,0,0,0,1.6Z"/><path class="cls-4" d="M50,52.4H32.2a.8.8,0,1,0,0,1.6H50a.8.8,0,1,0,0-1.6Z"/><path class="cls-4" d="M54.8,52.4H53.2a.8.8,0,1,0,0,1.6h1.6a.8.8,0,1,0,0-1.6Z"/><path class="cls-4" d="M58.8,52.4H58A.8.8,0,0,0,58,54h.8a.86.86,0,0,0,.8-.8A.79.79,0,0,0,58.8,52.4Z"/><path class="cls-4" d="M63.7,52.4H62.1a.8.8,0,1,0,0,1.6h1.6a.8.8,0,1,0,0-1.6Z"/><path class="cls-4" d="M66.3,52.7a1,1,0,0,0,0,1.2,1,1,0,0,0,1.2,0,1,1,0,0,0,0-1.2A.91.91,0,0,0,66.3,52.7Z"/><path class="cls-4" d="M32.2,45.2H66.9a.8.8,0,0,0,0-1.6H32.2a.8.8,0,1,0,0,1.6Z"/><path class="cls-4" d="M66.9,48.4H32.2a.8.8,0,1,0,0,1.6H66.9a.8.8,0,1,0,0-1.6Z"/></g></g></svg>