<svg xmlns="http://www.w3.org/2000/svg" viewBox="0 0 100 100"><defs><style>.cls-1{fill:#f7f7f7;}.cls-2{fill:#eeeeef;}.cls-3,.cls-4{fill:none;stroke:#76838f;}.cls-3{stroke-miterlimit:10;}.cls-4{stroke-linecap:round;stroke-linejoin:round;}</style></defs><title>idcard</title><g id="Camada_2" data-name="Camada 2"><g id="Capa_1" data-name="Capa 1"><circle class="cls-1" cx="50" cy="50" r="50"/><circle class="cls-2" cx="50" cy="50" r="41.1" transform="translate(-3.42 96.33) rotate(-85.93)"/><path class="cls-3" d="M70.7,66.9H29.2a2.65,2.65,0,0,1-2.6-2.6V35.7a2.65,2.65,0,0,1,2.6-2.6H70.7a2.65,2.65,0,0,1,2.6,2.6V64.3A2.52,2.52,0,0,1,70.7,66.9Z"/><path class="cls-4" d="M43.7,55.8l-3-1.5a.6.6,0,0,1-.3-.6v-.9a5,5,0,0,0,2.9-3.6,1.5,1.5,0,0,0,1.1-1.5v-.8a1.69,1.69,0,0,0-.9-1.4c-.4-3-2.4-4.3-5.6-4.3h-.4a4.77,4.77,0,0,1-3.1-.7,3.63,3.63,0,0,1-.9-.8.19.19,0,0,0-.3.1,4.4,4.4,0,0,0,.2,1c.3,1.3.1,1.1-.4,2.4a8.65,8.65,0,0,0-.6,2.3,1.69,1.69,0,0,0-.9,1.4v.8a1.63,1.63,0,0,0,1.1,1.5,5,5,0,0,0,2.9,3.6v.9a.71.71,0,0,1-.3.6l-3.1,1.5a2.88,2.88,0,0,0-1.4,2.3v1c0,.9,3.2,1.4,7.2,1.4s7.2-.4,7.2-1.4v-1A2.44,2.44,0,0,0,43.7,55.8Z"/><path class="cls-4" d="M50,44.4h8.1a.8.8,0,1,0,0-1.6H50a.86.86,0,0,0-.8.8A.79.79,0,0,0,50,44.4Z"/><path class="cls-4" d="M61.2,44.4H62a.8.8,0,1,0,0-1.6h-.8a.8.8,0,1,0,0,1.6Z"/><path class="cls-4" d="M50.8,56.5H50a.8.8,0,0,0,0,1.6h.8a.86.86,0,0,0,.8-.8A.79.79,0,0,0,50.8,56.5Z"/><path class="cls-4" d="M55.6,56.5H54a.8.8,0,0,0,0,1.6h1.6a.86.86,0,0,0,.8-.8A.74.74,0,0,0,55.6,56.5Z"/><path class="cls-4" d="M59.6,56.5h-.8a.8.8,0,0,0,0,1.6h.8a.86.86,0,0,0,.8-.8A.74.74,0,0,0,59.6,56.5Z"/><path class="cls-4" d="M64.5,56.5H62.9a.8.8,0,0,0,0,1.6h1.6a.86.86,0,0,0,.8-.8A.79.79,0,0,0,64.5,56.5Z"/><path class="cls-4" d="M67.1,56.7a1,1,0,0,0,0,1.2,1,1,0,0,0,1.2,0,1,1,0,0,0,0-1.2A.91.91,0,0,0,67.1,56.7Z"/><path class="cls-4" d="M50,49.2H67.7a.8.8,0,0,0,0-1.6H50a.86.86,0,0,0-.8.8A.79.79,0,0,0,50,49.2Z"/><path class="cls-4" d="M67.7,52.4H50A.8.8,0,0,0,50,54H67.7a.8.8,0,1,0,0-1.6Z"/></g></g></svg>