<svg xmlns="http://www.w3.org/2000/svg" viewBox="0 0 107.15 97.63" style=""><defs><style>.cls-1{fill:none;stroke:#6c9;stroke-linecap:round;stroke-linejoin:round;}</style></defs><title>e-voucher-success</title><g id="Camada_2" data-name="Camada 2"><g id="Camada_1-2" data-name="Camada 1"><path class="cls-1 sSXtfEbV_0" d="M28,95.45.5,67.93a4.45,4.45,0,0,0,0-6.28L61.65.5a4.45,4.45,0,0,0,6.28,0L95.45,28a4.45,4.45,0,0,0,0,6.28L34.31,95.45A4.45,4.45,0,0,0,28,95.45Z"></path><path class="cls-1 sSXtfEbV_1" d="M75.53,20.43L63.87,32.08"></path><path class="cls-1 sSXtfEbV_2" d="M33.04,62.92L21.38,74.57"></path><path class="cls-1 sSXtfEbV_3" d="M43.67,35.73A4.09,4.09 0,1,1 51.849999999999994,35.73A4.09,4.09 0,1,1 43.67,35.73"></path><path class="cls-1 sSXtfEbV_4" d="M44.099999999999994,60.22A4.09,4.09 0,1,1 52.28,60.22A4.09,4.09 0,1,1 44.099999999999994,60.22"></path><path class="cls-1 sSXtfEbV_5" d="M68.83,47.98L27.13,47.98"></path><path class="cls-1 sSXtfEbV_6" d="M55.36,83.28l5.15,5.14L100,49a3.91,3.91,0,1,1,5.52,5.53l-41,41a5.65,5.65,0,0,1-8,0L39.44,78.4A3.9,3.9,0,0,1,45,72.88l3.87,3.86"></path><path class="cls-1 sSXtfEbV_7" d="M27.26,22.58L32.28,17.56"></path><path class="cls-1 sSXtfEbV_8" d="M6.78,43.06L24.69,25.14"></path></g></g><style data-made-with="vivus-instant">.sSXtfEbV_0{stroke-dasharray:279 281;stroke-dashoffset:280;animation:sSXtfEbV_draw 666ms ease-in-out 0ms forwards;}.sSXtfEbV_1{stroke-dasharray:17 19;stroke-dashoffset:18;animation:sSXtfEbV_draw 666ms ease-in-out 41ms forwards;}.sSXtfEbV_2{stroke-dasharray:17 19;stroke-dashoffset:18;animation:sSXtfEbV_draw 666ms ease-in-out 83ms forwards;}.sSXtfEbV_3{stroke-dasharray:26 28;stroke-dashoffset:27;animation:sSXtfEbV_draw 666ms ease-in-out 125ms forwards;}.sSXtfEbV_4{stroke-dasharray:26 28;stroke-dashoffset:27;animation:sSXtfEbV_draw 666ms ease-in-out 166ms forwards;}.sSXtfEbV_5{stroke-dasharray:42 44;stroke-dashoffset:43;animation:sSXtfEbV_draw 666ms ease-in-out 208ms forwards;}.sSXtfEbV_6{stroke-dasharray:185 187;stroke-dashoffset:186;animation:sSXtfEbV_draw 666ms ease-in-out 250ms forwards;}.sSXtfEbV_7{stroke-dasharray:8 10;stroke-dashoffset:9;animation:sSXtfEbV_draw 666ms ease-in-out 291ms forwards;}.sSXtfEbV_8{stroke-dasharray:26 28;stroke-dashoffset:27;animation:sSXtfEbV_draw 666ms ease-in-out 333ms forwards;}@keyframes sSXtfEbV_draw{100%{stroke-dashoffset:0;}}@keyframes sSXtfEbV_fade{0%{stroke-opacity:1;}92.3076923076923%{stroke-opacity:1;}100%{stroke-opacity:0;}}</style></svg>