<svg xmlns="http://www.w3.org/2000/svg" viewBox="0 0 16 19.64"><defs><style>.cls-1{fill:#526069;}</style></defs><title>Ativo 10</title><g id="Camada_2" data-name="Camada 2"><g id="Camada_1-2" data-name="Camada 1"><path class="cls-1" d="M13.82,7.31v-2A5.57,5.57,0,0,0,8,0,5.57,5.57,0,0,0,2.18,5.27v2A2.63,2.63,0,0,0,0,9.9V17a2.63,2.63,0,0,0,2.63,2.63H13.37A2.63,2.63,0,0,0,16,17V9.9a2.64,2.64,0,0,0-2.18-2.59Zm-10.91-2A4.84,4.84,0,0,1,8,.73a4.84,4.84,0,0,1,5.09,4.54v2H2.91ZM15.27,17a1.9,1.9,0,0,1-1.9,1.9H2.63A1.9,1.9,0,0,1,.73,17V9.9A1.9,1.9,0,0,1,2.63,8H13.37a1.9,1.9,0,0,1,1.9,1.9Z"/><path class="cls-1" d="M8,10.18a1.46,1.46,0,0,0-1.46,1.46v2.18a1.46,1.46,0,0,0,2.91,0V11.64A1.45,1.45,0,0,0,8,10.18Zm.73,3.64a.73.73,0,0,1-1.46,0V11.64a.73.73,0,0,1,1.46,0Z"/></g></g></svg>