<svg xmlns="http://www.w3.org/2000/svg" viewBox="0 0 158.32 158.32"><defs><style>.cls-1{fill:none;stroke:#ff5d66;stroke-linecap:round;stroke-linejoin:round;}</style></defs><title>error</title><g id="Camada_2" data-name="Camada 2"><g id="Camada_1-2" data-name="Camada 1"><path class="cls-1" d="M16.9,31.08A78.66,78.66,0,1,0,30.67,17.22"/><path class="cls-1" d="M148.34,83.46c.09-1.42.13-2.86.13-4.3"/><path class="cls-1" d="M79.16,148.47a69.34,69.34,0,0,0,67.84-55"/><path class="cls-1" d="M90.57,61.39l-9.86,9.86a2.2,2.2,0,0,1-3.1,0L50.49,44.12a4.5,4.5,0,0,0-6.37,6.37L71.25,77.61a2.2,2.2,0,0,1,0,3.1L44.12,107.83a4.5,4.5,0,1,0,6.37,6.37L77.61,87.07a2.2,2.2,0,0,1,3.1,0l27.12,27.13a4.5,4.5,0,0,0,6.37-6.37L87.07,80.71a2.2,2.2,0,0,1,0-3.1L114.2,50.49a4.5,4.5,0,0,0-6.37-6.37L95.44,56.52"/></g></g></svg>