<svg xmlns="http://www.w3.org/2000/svg" viewBox="0 0 47.84 41.75"><defs><style>.cls-1,.cls-2{fill:none;}.cls-1{stroke:#76838f;stroke-linecap:round;stroke-linejoin:round;}</style></defs><title>evoucher</title><g id="Camada_2" data-name="Camada 2"><g id="Capa_1" data-name="Capa 1"><polyline class="cls-1" points="34.49 9.96 3.49 9.96 3.49 32.5 34.49 32.5"/><polyline class="cls-1" points="38.72 32.5 44.35 32.5 44.35 9.96 38.72 9.96"/><path class="cls-1" d="M34.49,12.77H9.12A2.82,2.82,0,0,1,6.3,15.59V26.87a2.81,2.81,0,0,1,2.82,2.81H34.49"/><path class="cls-1" d="M38.72,29.68a2.81,2.81,0,0,1,2.81-2.81V15.59a2.81,2.81,0,0,1-2.81-2.82"/><polygon class="cls-1" points="38.72 32.5 37.31 36.73 35.9 36.73 34.49 32.5 38.72 32.5"/><rect class="cls-1" x="34.49" y="12.77" width="4.23" height="19.73"/><path class="cls-1" d="M38.72,4.32v8.45H34.49V4.32A1.41,1.41,0,0,1,35.9,2.91h1.41A1.41,1.41,0,0,1,38.72,4.32Z"/><path class="cls-1" d="M12.84,20.46s-1.6-.48-1.6-1.56a1.41,1.41,0,0,1,2.82,0,.7.7,0,1,0,1.4,0,2.79,2.79,0,0,0-2.11-2.69v-.62a.71.71,0,0,0-1.41,0v.62A2.79,2.79,0,0,0,9.83,18.9c0,2.15,2.52,2.88,2.62,2.91s1.61.48,1.61,1.56a1.41,1.41,0,0,1-2.82,0,.7.7,0,0,0-.71-.7.7.7,0,0,0-.7.7,2.79,2.79,0,0,0,2.11,2.69v.81a.71.71,0,0,0,1.41,0v-.81a2.79,2.79,0,0,0,2.11-2.69C15.46,21.22,12.94,20.49,12.84,20.46Z"/><polyline class="cls-1" points="35.9 36.73 36.6 38.84 37.31 36.73"/><path class="cls-1" d="M19.49,25.56s5.69-2.11,6.63-3.46-.54-2.17-1.79-1.62-2.56,4.93-1.91,6.08,2.81-.43,3.18-1.15c0,0,.11,1.5,1.28.44s1.78-1.2,1.69-.48.52.7,1.59-.31.74.64,1.44.57a1,1,0,0,0,.89-.5"/><line class="cls-1" x1="17.19" y1="18.41" x2="32.1" y2="18.41"/><line class="cls-1" x1="17.19" y1="15.59" x2="26.46" y2="15.59"/><rect class="cls-2" width="47.84" height="41.75"/></g></g></svg>