<svg xmlns="http://www.w3.org/2000/svg" viewBox="0 0 21 21"><defs><style>.cls-1,.cls-2{fill:none;stroke:#526069;}.cls-1{stroke-miterlimit:10;}.cls-2{stroke-linecap:round;stroke-linejoin:round;}</style></defs><title>icon_litecoin</title><g id="Camada_2" data-name="Camada 2"><g id="Camada_1-2" data-name="Camada 1"><circle class="cls-1" cx="10.5" cy="10.5" r="10"/><path class="cls-2" d="M3.63,14.72a8.44,8.44,0,0,0,2,2.21"/><path class="cls-2" d="M15.13,3.9A8.06,8.06,0,0,0,2.44,10.5a8.14,8.14,0,0,0,.28,2.11"/><path class="cls-2" d="M8.49,18.31a8.26,8.26,0,0,0,2,.25,8.06,8.06,0,0,0,6.44-12.9"/><path class="cls-2" d="M10,12.41l.51-1.93L11.71,10,12,8.91v0l-1.19.44.86-3.23H9.24L8.11,10.3l-.93.35-.31,1.16.93-.34L7.14,14h6.48L14,12.41H10"/></g></g></svg>