<svg xmlns="http://www.w3.org/2000/svg" viewBox="0 0 254.54 168.44"><defs><style>.cls-1,.cls-2,.cls-3,.cls-4,.cls-5,.cls-6,.cls-7{fill:none;}.cls-2,.cls-3,.cls-4,.cls-7{stroke:#e2e2e2;stroke-miterlimit:10;}.cls-3{stroke-dasharray:5.1 5.1;}.cls-4{stroke-dasharray:4.22 4.22;}.cls-5,.cls-6,.cls-8{stroke:#76838f;stroke-linecap:round;stroke-linejoin:round;}.cls-6{fill-rule:evenodd;}.cls-7{stroke-dasharray:4.17 4.17;}.cls-8{fill:#fff;stroke-width:1.19px;}.cls-9{fill:#31567a;}.cls-10{fill:#aeb6ba;}.cls-11{fill:#d4d9dc;}.cls-12{fill:#e2e2e2;}</style></defs><title>icon-wallet-electronic</title><g id="Camada_2" data-name="Camada 2"><g id="Capa_1" data-name="Capa 1"><rect class="cls-1" width="254.54" height="168.44"/><path class="cls-2" d="M127.27,129.39a18.77,18.77,0,0,0,.12,2"/><path class="cls-3" d="M128.42,136.37a20.26,20.26,0,0,0,3.52,6.74"/><path class="cls-2" d="M133.7,145a15,15,0,0,0,1.56,1.25"/><circle class="cls-2" cx="136.9" cy="147.46" r="2.14"/><path class="cls-2" d="M190.76,30.67s.58.47,1.48,1.33"/><path class="cls-4" d="M195.14,35.07c4.77,5.56,11.17,15.8,6.61,27.15-5.17,12.88-21.6,16.77-29.32,17.9"/><path class="cls-2" d="M170.34,80.39c-1.26.14-2,.18-2,.18"/><path class="cls-5" d="M162.05,63.21v-6.3h0a6.33,6.33,0,0,0-6.31-6.3h-63a6.3,6.3,0,1,0,0,12.6Z"/><path class="cls-6" d="M171.5,91.58a3.15,3.15,0,0,0-3.15-3.15H152.59a3.15,3.15,0,0,0-3.15,3.15V101a3.15,3.15,0,0,0,3.15,3.15h15.76A3.15,3.15,0,0,0,171.5,101Z"/><path class="cls-5" d="M162.05,83.7h0a1.58,1.58,0,0,1-1.56-1.56v0a1.58,1.58,0,0,1,.13-.6,1.91,1.91,0,0,1,.33-.52,1.66,1.66,0,0,1,2.24,0,2.18,2.18,0,0,1,.33.52,1.57,1.57,0,0,1,.12.6,1.65,1.65,0,0,1-.45,1.12,1.74,1.74,0,0,1-.26.19.94.94,0,0,1-.26.14,1,1,0,0,1-.29.1A1.63,1.63,0,0,1,162.05,83.7Z"/><path class="cls-5" d="M160.47,75.82a1.58,1.58,0,1,1,1.58,1.58A1.6,1.6,0,0,1,160.47,75.82Z"/><path class="cls-5" d="M162.05,71.09a1.58,1.58,0,0,1-1.12-2.69,1.57,1.57,0,0,1,1.72-.33,1.91,1.91,0,0,1,.52.33,1.65,1.65,0,0,1,.45,1.12,1.63,1.63,0,0,1,0,.31,1.4,1.4,0,0,1-.09.29.94.94,0,0,1-.14.26l-.19.26a2.18,2.18,0,0,1-.52.33A1.57,1.57,0,0,1,162.05,71.09Z"/><path class="cls-5" d="M154.17,69.52a1.58,1.58,0,1,1,1.57,1.57A1.58,1.58,0,0,1,154.17,69.52Zm-6.31,0a1.58,1.58,0,1,1,1.58,1.57A1.6,1.6,0,0,1,147.86,69.52Zm-6.3,0a1.58,1.58,0,1,1,1.58,1.57A1.58,1.58,0,0,1,141.56,69.52Zm-6.3,0a1.58,1.58,0,1,1,1.57,1.57A1.58,1.58,0,0,1,135.26,69.52Zm-6.31,0a1.58,1.58,0,1,1,1.58,1.57A1.6,1.6,0,0,1,129,69.52Zm-6.3,0a1.58,1.58,0,1,1,1.58,1.57A1.58,1.58,0,0,1,122.65,69.52Zm-6.3,0a1.58,1.58,0,1,1,1.57,1.57A1.58,1.58,0,0,1,116.35,69.52Zm-6.31,0a1.58,1.58,0,1,1,1.58,1.57A1.6,1.6,0,0,1,110,69.52Zm-6.3,0a1.58,1.58,0,1,1,1.58,1.57A1.58,1.58,0,0,1,103.74,69.52Zm-6.3,0A1.58,1.58,0,1,1,99,71.09,1.58,1.58,0,0,1,97.44,69.52Z"/><path class="cls-5" d="M92.71,71.09h0a1.58,1.58,0,1,1,1.59-1.58h0l0,.31a1,1,0,0,1-.1.29.94.94,0,0,1-.14.26,2.93,2.93,0,0,1-.19.26A1.65,1.65,0,0,1,92.71,71.09Z"/><path class="cls-5" d="M162.05,112.06a1.53,1.53,0,0,1-.6-.12,1.43,1.43,0,0,1-.85-.85,1.48,1.48,0,0,1,0-1.2,1.38,1.38,0,0,1,.85-.85,1.57,1.57,0,0,1,1.72.33,2,2,0,0,1,.33.52,1.57,1.57,0,0,1-.85,2A1.57,1.57,0,0,1,162.05,112.06Z"/><path class="cls-5" d="M160.47,116.79a1.58,1.58,0,1,1,1.58,1.58A1.58,1.58,0,0,1,160.47,116.79Z"/><path class="cls-5" d="M162.05,124.67a1.54,1.54,0,0,1-.6-.13,1.77,1.77,0,0,1-.52-.33l-.19-.23a1.11,1.11,0,0,1-.14-.29.94.94,0,0,1-.1-.28,1.67,1.67,0,0,1,0-.63.85.85,0,0,1,.1-.28,1.11,1.11,0,0,1,.14-.29l.19-.23a1.58,1.58,0,0,1,.52-.33,1.48,1.48,0,0,1,1.2,0,1.44,1.44,0,0,1,.52.33l.19.23a1.55,1.55,0,0,1,.14.29,1.15,1.15,0,0,1,.09.28,1.67,1.67,0,0,1,0,.63,1.31,1.31,0,0,1-.09.28,1.55,1.55,0,0,1-.14.29l-.19.23a1.44,1.44,0,0,1-.52.33A1.58,1.58,0,0,1,162.05,124.67Z"/><path class="cls-5" d="M154.17,123.09a1.58,1.58,0,1,1,1.57,1.58A1.58,1.58,0,0,1,154.17,123.09Zm-6.31,0a1.58,1.58,0,1,1,1.58,1.58A1.59,1.59,0,0,1,147.86,123.09Zm-6.3,0a1.58,1.58,0,1,1,1.58,1.58A1.58,1.58,0,0,1,141.56,123.09Zm-6.3,0a1.58,1.58,0,1,1,1.57,1.58A1.58,1.58,0,0,1,135.26,123.09Zm-6.31,0a1.58,1.58,0,1,1,1.58,1.58A1.59,1.59,0,0,1,129,123.09Zm-6.3,0a1.58,1.58,0,1,1,1.58,1.58A1.58,1.58,0,0,1,122.65,123.09Zm-6.3,0a1.58,1.58,0,1,1,1.57,1.58A1.58,1.58,0,0,1,116.35,123.09Zm-6.31,0a1.58,1.58,0,1,1,1.58,1.58A1.59,1.59,0,0,1,110,123.09Zm-6.3,0a1.58,1.58,0,1,1,1.58,1.58A1.58,1.58,0,0,1,103.74,123.09Zm-6.3,0A1.58,1.58,0,1,1,99,124.67,1.58,1.58,0,0,1,97.44,123.09Z"/><path class="cls-5" d="M92.71,124.67a1.54,1.54,0,0,1-.6-.13,1.44,1.44,0,0,1-.52-.33,2.11,2.11,0,0,1-.19-.23,1.55,1.55,0,0,1-.14-.29.92.92,0,0,1-.09-.28,1.34,1.34,0,0,1,0-.63.84.84,0,0,1,.09-.28,1.55,1.55,0,0,1,.14-.29,2.11,2.11,0,0,1,.19-.23,1.44,1.44,0,0,1,.52-.33,1.57,1.57,0,0,1,1.72.33l.19.23a1.11,1.11,0,0,1,.14.29.85.85,0,0,1,.1.28,1.67,1.67,0,0,1,0,.63.94.94,0,0,1-.1.28A1.11,1.11,0,0,1,94,124l-.19.23A1.66,1.66,0,0,1,92.71,124.67Z"/><path class="cls-5" d="M157.32,99.46a3.16,3.16,0,1,1,3.15-3.15A3.17,3.17,0,0,1,157.32,99.46Z"/><line class="cls-5" x1="86.41" y1="80.55" x2="94.29" y2="80.55"/><polyline class="cls-5" points="86.41 88.43 103.74 88.43 108.5 83.66 121.19 83.66 126 88.47 133.48 88.47 137.86 84.09"/><polyline class="cls-5" points="86.41 96.31 105.32 96.31 110.05 91.58 119.5 91.58 124.23 96.31 136.83 96.31"/><polyline class="cls-5" points="86.41 104.19 106.94 104.19 111.64 99.48 117.84 99.48 122.51 104.16 133.74 104.16 137.98 108.4"/><line class="cls-5" x1="86.41" y1="112.06" x2="111.62" y2="112.06"/><circle class="cls-5" cx="97.44" cy="80.57" r="3.15"/><circle class="cls-5" cx="139.99" cy="82.12" r="3.15"/><circle class="cls-5" cx="139.99" cy="96.31" r="3.15"/><circle class="cls-5" cx="139.99" cy="110.49" r="3.15"/><circle class="cls-5" cx="114.77" cy="112.06" r="3.15"/><path class="cls-5" d="M86.41,56.91v66.53a6,6,0,0,0,6,5.95h69.82a6,6,0,0,0,6-5.95V104.18"/><path class="cls-5" d="M168.35,88.43V69.17a6,6,0,0,0-5.95-6h-.35"/><path class="cls-2" d="M75.34,69.51s-.59-.43-1.66-1.11"/><path class="cls-7" d="M70.11,66.26C63,62.25,50,56.39,39.65,59.85c-15.11,5-8.74,18.54,2.07,17.57,7.91-.71,21.64-1.24,28.46-1.47"/><path class="cls-2" d="M72.27,75.88l2-.06"/><circle class="cls-8" cx="85.3" cy="77.47" r="11.03"/><rect class="cls-8" x="146.61" y="10.81" width="96.59" height="19.85" rx="6.07"/><rect class="cls-9" x="153.08" y="16.5" width="8.49" height="8.49" rx="1.47"/><rect class="cls-10" x="166.63" y="16.5" width="28.57" height="3.48" rx="1.74"/><rect class="cls-11" x="166.63" y="21.51" width="70.24" height="3.48" rx="1.74"/><line class="cls-2" x1="60.98" y1="108.92" x2="60.98" y2="118.37"/><line class="cls-2" x1="56.26" y1="113.64" x2="65.71" y2="113.64"/><line class="cls-2" x1="224.98" y1="52.18" x2="224.98" y2="61.64"/><line class="cls-2" x1="220.26" y1="56.91" x2="229.71" y2="56.91"/><line class="cls-2" x1="75.34" y1="13.94" x2="75.34" y2="23.39"/><line class="cls-2" x1="70.62" y1="18.67" x2="80.07" y2="18.67"/><circle class="cls-12" cx="48.68" cy="40.44" r="3.26"/><circle class="cls-12" cx="203.32" cy="88.47" r="3.26"/><path class="cls-9" d="M87.94,77.38c0,2.65-1,4.12-2.71,4.12-1.52,0-2.55-1.43-2.58-4s1.13-4,2.71-4S87.94,74.9,87.94,77.38Zm-4.23.12c0,2,.62,3.18,1.58,3.18s1.6-1.26,1.6-3.25-.5-3.18-1.59-3.18C84.38,74.25,83.71,75.38,83.71,77.5Z"/><ellipse class="cls-12" cx="128.95" cy="159.56" rx="41.78" ry="5.04"/></g></g></svg>