<svg xmlns="http://www.w3.org/2000/svg" viewBox="0 0 254.54 168.44"><defs><style>.cls-1,.cls-10,.cls-4,.cls-6,.cls-8{fill:none;}.cls-1,.cls-4{stroke:#e2e2e2;stroke-miterlimit:10;}.cls-1{stroke-dasharray:4.22 4.22;}.cls-2,.cls-7{fill:#fff;}.cls-3{fill:#d4d9dc;}.cls-5{fill:#e2e2e2;}.cls-6{stroke:#76838f;}.cls-6,.cls-7,.cls-8,.cls-9{stroke-linecap:round;stroke-linejoin:round;}.cls-7,.cls-8{stroke:#ff5d66;}.cls-9{fill:#31567a;stroke:#31567a;}</style></defs><title>icon-contacts</title><g id="Camada_2" data-name="Camada 2"><g id="Camada_1-2" data-name="Camada 1"><rect class="cls-1" x="55.78" y="70.97" width="36.09" height="10.6" rx="4.62" ry="4.62"/><rect class="cls-1" x="152.58" y="72.4" width="63.29" height="10.6" rx="4.62" ry="4.62"/><rect class="cls-1" x="70.96" y="94.46" width="25.2" height="15.75" rx="6.87" ry="6.87"/><rect class="cls-1" x="151.43" y="94.46" width="50.41" height="15.75" rx="6.87" ry="6.87"/><rect class="cls-1" x="193.25" y="44.34" width="25.2" height="15.75" rx="6.87" ry="6.87"/><rect class="cls-1" x="60.65" y="44.34" width="124.58" height="15.75" rx="6.87" ry="6.87"/><path class="cls-1" d="M164.87,16.81h-65a8,8,0,0,0-8,7.65,7.87,7.87,0,0,0,7.87,8.1h11.74a8.16,8.16,0,0,1,8.16,8.16v2.44A7.87,7.87,0,0,0,127.52,51h9.74a7.87,7.87,0,0,0,7.87-7.87V40.72a8.16,8.16,0,0,1,8.16-8.16H165a7.88,7.88,0,0,0,7.87-8.1A8,8,0,0,0,164.87,16.81Z"/><path class="cls-2" d="M158.43,30.51h6.43A2.1,2.1,0,0,1,167,32.6v63A1.06,1.06,0,0,0,168,96.65h0a2.1,2.1,0,0,1,2.1,2.1V124a2.09,2.09,0,0,1-2.1,2.09H94.32a4.4,4.4,0,0,1-4.41-4.41V34.92a4.41,4.41,0,0,1,4.41-4.41Z"/><rect class="cls-3" x="89.91" y="70.09" width="58.56" height="16.02"/><line class="cls-4" x1="45.95" y1="56.91" x2="45.95" y2="66.37"/><line class="cls-4" x1="41.23" y1="61.64" x2="50.68" y2="61.64"/><line class="cls-4" x1="186.95" y1="31.93" x2="186.95" y2="41.39"/><line class="cls-4" x1="182.23" y1="36.66" x2="191.68" y2="36.66"/><circle class="cls-5" cx="201.95" cy="130.51" r="3.26"/><circle class="cls-5" cx="77.08" cy="33.92" r="3.26"/><ellipse class="cls-5" cx="130.01" cy="150.33" rx="41.78" ry="5.04"/><path class="cls-6" d="M111.43,30.51h32.63a4.41,4.41,0,0,1,4.41,4.41v6.65"/><path class="cls-6" d="M148.47,64.28V121.7a4.4,4.4,0,0,1-4.41,4.41H94.32a4.4,4.4,0,0,1-4.41-4.41V34.92a4.41,4.41,0,0,1,4.41-4.41h8.21"/><path class="cls-6" d="M153.64,63V121.7a4.4,4.4,0,0,1-4.41,4.41h-5.17"/><path class="cls-6" d="M144.06,30.51h5.17a4.41,4.41,0,0,1,4.41,4.41v7.89"/><path class="cls-6" d="M158.43,58.38V121.7a4.4,4.4,0,0,1-4.41,4.41h-5.17"/><path class="cls-6" d="M148.85,30.51H154a4.41,4.41,0,0,1,4.41,4.41V47.47"/><path class="cls-6" d="M153.64,30.51h5.17a4.41,4.41,0,0,1,4.41,4.41V121.7a4.4,4.4,0,0,1-4.41,4.41h-5.17"/><path class="cls-6" d="M158.43,30.51h6.43A2.1,2.1,0,0,1,167,32.6v63A1.06,1.06,0,0,0,168,96.65h0a2.1,2.1,0,0,1,2.1,2.1V124a2.09,2.09,0,0,1-2.1,2.09h-9.58"/><line class="cls-6" x1="144.06" y1="91.58" x2="144.06" y2="103.45"/><line class="cls-6" x1="144.06" y1="105.88" x2="144.06" y2="111.81"/><line class="cls-6" x1="144.06" y1="113.64" x2="144.06" y2="119.57"/><circle class="cls-7" cx="148.47" cy="52.93" r="11.36"/><line class="cls-6" x1="89.91" y1="70.09" x2="148.47" y2="70.09"/><line class="cls-6" x1="89.91" y1="86.11" x2="148.47" y2="86.11"/><line class="cls-8" x1="143.53" y1="47.98" x2="153.41" y2="57.87"/><line class="cls-8" x1="153.41" y1="47.98" x2="143.53" y2="57.87"/><path class="cls-9" d="M111.43,30.51V47.63L107,43.06l-4.45,4.57V29A1.44,1.44,0,0,1,104,27.55h8.59"/><path class="cls-9" d="M112.57,27.55h0a1.14,1.14,0,0,1,1.14,1.14v1.83a0,0,0,0,1,0,0h-2.28a0,0,0,0,1,0,0V28.69A1.14,1.14,0,0,1,112.57,27.55Z"/><rect class="cls-10" width="254.54" height="168.44"/></g></g></svg>