<svg xmlns="http://www.w3.org/2000/svg" viewBox="0 0 21 21"><defs><style>.cls-1,.cls-2,.cls-3{fill:none;stroke:#526069;}.cls-1{stroke-miterlimit:10;}.cls-2,.cls-3{stroke-linecap:round;stroke-linejoin:round;}.cls-3{stroke-width:0.89px;}</style></defs><title>btc_cash_icon</title><g id="Camada_2" data-name="Camada 2"><g id="Camada_1-2" data-name="Camada 1"><circle class="cls-1" cx="10.5" cy="10.5" r="10"/><path class="cls-2" d="M3.63,14.72a8.44,8.44,0,0,0,2,2.21"/><path class="cls-2" d="M15.13,3.9A8.06,8.06,0,0,0,2.44,10.5a8.14,8.14,0,0,0,.28,2.11"/><path class="cls-2" d="M8.49,18.31a8.26,8.26,0,0,0,2,.25,8.06,8.06,0,0,0,6.44-12.9"/><path class="cls-3" d="M6.19,7.59l3.63-1.1A1.75,1.75,0,0,1,12,7.67h0a1.76,1.76,0,0,1-1.17,2.18l-2.91.87"/><path class="cls-3" d="M10.83,9.85l.42-.13a2.08,2.08,0,0,1,2.59,1.39h0a2.08,2.08,0,0,1-1.39,2.59l-4,1.22"/><line class="cls-3" x1="9.12" y1="14.7" x2="6.91" y2="7.37"/><line class="cls-3" x1="7.84" y1="6.1" x2="8.11" y2="7.01"/><line class="cls-3" x1="8.85" y1="5.79" x2="9.12" y2="6.69"/><line class="cls-3" x1="11.74" y1="14.9" x2="11.46" y2="13.99"/><line class="cls-3" x1="10.72" y1="15.21" x2="10.45" y2="14.31"/></g></g></svg>