<?xml version="1.0" encoding="UTF-8" standalone="no"?>
<!DOCTYPE svg PUBLIC "-//W3C//DTD SVG 1.1//EN" "http://www.w3.org/Graphics/SVG/1.1/DTD/svg11.dtd">
<svg width="100%" height="100%" viewBox="0 0 24 24" version="1.1" xmlns="http://www.w3.org/2000/svg" xmlns:xlink="http://www.w3.org/1999/xlink" xml:space="preserve" xmlns:serif="http://www.serif.com/" style="fill-rule:evenodd;clip-rule:evenodd;stroke-linejoin:round;stroke-miterlimit:1.41421;">
    <path d="M6.5,16.999C6.776,16.999 7,16.775 7,16.499C7,11.812 10.813,7.999 15.5,7.999L19.293,7.999L17.146,10.146C16.951,10.341 16.951,10.658 17.146,10.853C17.244,10.95 17.372,10.999 17.5,10.999C17.628,10.999 17.756,10.95 17.853,10.854L20.853,7.854C20.867,7.84 20.872,7.822 20.884,7.808C20.913,7.772 20.943,7.735 20.961,7.691C20.979,7.648 20.983,7.602 20.988,7.557C20.991,7.537 21,7.52 21,7.499C21,7.452 20.985,7.41 20.973,7.367C20.968,7.349 20.969,7.329 20.962,7.311C20.936,7.246 20.897,7.189 20.847,7.141L17.853,4.147C17.658,3.952 17.341,3.952 17.146,4.147C16.951,4.342 16.951,4.659 17.146,4.854L19.291,6.999L15.5,6.999C10.262,6.999 6,11.261 6,16.499C6,16.775 6.224,16.999 6.5,16.999ZM23.5,18.999L0.5,18.999C0.224,18.999 0,19.223 0,19.499C0,19.775 0.224,19.999 0.5,19.999L23.5,19.999C23.776,19.999 24,19.775 24,19.499C24,19.223 23.776,18.999 23.5,18.999Z" style="fill:rgb(82,96,105);fill-rule:nonzero;"/>
</svg>
