<svg xmlns="http://www.w3.org/2000/svg" viewBox="0 0 29.34 31"><defs><style>.cls-1{fill:none;stroke:#76838f;stroke-linecap:round;stroke-linejoin:round;}</style></defs><title>icon-invoices</title><g id="Camada_2" data-name="Camada 2"><g id="Camada_1-2" data-name="Camada 1"><path class="cls-1" d="M3.21.5H5.92A2.71,2.71,0,0,1,8.62,3.21v7.21a0,0,0,0,1,0,0H1.23A.73.73,0,0,1,.5,9.69V3.21A2.71,2.71,0,0,1,3.21.5Z"/><path class="cls-1" d="M4.56.5h19.7a4.58,4.58,0,0,1,4.58,4.57V30.5L24.1,28.77l-5,1.73-5.37-1.85L8.62,30.5V10.41"/><line class="cls-1" x1="12.21" y1="6.58" x2="25.25" y2="6.58"/><line class="cls-1" x1="12.21" y1="12.01" x2="25.25" y2="12.01"/><line class="cls-1" x1="16.11" y1="17.45" x2="25.25" y2="17.45"/><line class="cls-1" x1="16.11" y1="22.89" x2="25.25" y2="22.89"/></g></g></svg>