<svg xmlns="http://www.w3.org/2000/svg" viewBox="0 0 21 21"><defs><style>.a,.b{fill:none;stroke:#526069;}.a{stroke-miterlimit:10;}.b{stroke-linecap:round;stroke-linejoin:round;}</style></defs><title>icon_eur</title><circle class="a" cx="10.5" cy="10.5" r="10"/><path class="b" d="M3.63165,14.71771a8.1014,8.1014,0,0,0,2.003,2.20729"/><path class="b" d="M15.12982,3.903A8.063,8.063,0,0,0,2.71961,12.60785"/><path class="b" d="M8.48663,18.30531A8.06057,8.06057,0,0,0,16.94326,5.65882"/><path class="b" d="M13.54243,12.49931a1.98938,1.98938,0,0,1-1.98938,1.98938H10.546a1.98939,1.98939,0,0,1-1.98938-1.98938V8.50069A1.98939,1.98939,0,0,1,10.546,6.51131h1.0071a1.98938,1.98938,0,0,1,1.98938,1.98938"/><line class="b" x1="7.45757" y1="11.51276" x2="10.71664" y2="11.51276"/><line class="b" x1="7.45757" y1="9.48724" x2="10.71664" y2="9.48724"/></svg>