<svg xmlns="http://www.w3.org/2000/svg" viewBox="0 0 21 21"><defs><style>.cls-1,.cls-2,.cls-3{fill:none;stroke:#526069;}.cls-1{stroke-miterlimit:10;}.cls-2,.cls-3{stroke-linecap:round;stroke-linejoin:round;}.cls-3{stroke-width:0.89px;}</style></defs><title>btc_icon</title><g id="Camada_2" data-name="Camada 2"><g id="Camada_1-2" data-name="Camada 1"><circle class="cls-1" cx="10.5" cy="10.5" r="10"/><path class="cls-2" d="M3.63,14.72a8.44,8.44,0,0,0,2,2.21"/><path class="cls-2" d="M15.13,3.9A8.06,8.06,0,0,0,2.44,10.5a8.14,8.14,0,0,0,.28,2.11"/><path class="cls-2" d="M8.49,18.31a8.26,8.26,0,0,0,2,.25,8.06,8.06,0,0,0,6.44-12.9"/><path class="cls-3" d="M8.53,6l3.67.94a1.76,1.76,0,0,1,1.27,2.13h0a1.76,1.76,0,0,1-2.13,1.27L8.4,9.59"/><path class="cls-3" d="M11.34,10.34l.43.11A2.08,2.08,0,0,1,13.27,13h0a2.08,2.08,0,0,1-2.53,1.49l-4.1-1.05"/><line class="cls-3" x1="7.37" y1="13.61" x2="9.26" y2="6.19"/><line class="cls-3" x1="10.71" y1="5.59" x2="10.48" y2="6.5"/><line class="cls-3" x1="11.74" y1="5.84" x2="11.51" y2="6.75"/><line class="cls-3" x1="9.51" y1="15.13" x2="9.74" y2="14.22"/><line class="cls-3" x1="8.48" y1="14.88" x2="8.71" y2="13.96"/></g></g></svg>