<svg xmlns="http://www.w3.org/2000/svg" viewBox="0 0 21 21"><defs><style>.cls-1,.cls-2,.cls-3{fill:none;stroke:#526069;}.cls-1{stroke-miterlimit:10;}.cls-2,.cls-3{stroke-linecap:round;stroke-linejoin:round;}.cls-3{stroke-width:1.19px;}</style></defs><title>icon_dash_new</title><g id="Camada_2" data-name="Camada 2"><g id="Camada_1-2" data-name="Camada 1"><circle class="cls-1" cx="10.5" cy="10.5" r="10"/><path class="cls-2" d="M3.63,14.72a8.44,8.44,0,0,0,2,2.21"/><path class="cls-2" d="M15.13,3.9A8.06,8.06,0,0,0,2.44,10.5a8.14,8.14,0,0,0,.28,2.11"/><path class="cls-2" d="M8.49,18.31a8.26,8.26,0,0,0,2,.25,8.06,8.06,0,0,0,6.44-12.9"/><path class="cls-3" d="M11.68,6H8.08l-.3,1.67H11c1.6,0,2.08.58,2.06,1.55a7.31,7.31,0,0,1-.31,1.6c-.25.72-.76,1.55-2.66,1.54H7L6.67,14h3.59a5.05,5.05,0,0,0,2.38-.41A4.45,4.45,0,0,0,15,10.16C15.41,7.74,14.85,6,11.68,6Z"/><path class="cls-3" d="M6.53,9.19a1.06,1.06,0,0,0-1.17,1c-.12.49-.16.69-.16.69H8.89a1.07,1.07,0,0,0,1.17-1l.15-.68Z"/></g></g></svg>