<?xml version="1.0" encoding="UTF-8" standalone="no"?>
<svg
   xmlns:dc="http://purl.org/dc/elements/1.1/"
   xmlns:cc="http://creativecommons.org/ns#"
   xmlns:rdf="http://www.w3.org/1999/02/22-rdf-syntax-ns#"
   xmlns:svg="http://www.w3.org/2000/svg"
   xmlns="http://www.w3.org/2000/svg"
   xmlns:sodipodi="http://sodipodi.sourceforge.net/DTD/sodipodi-0.dtd"
   xmlns:inkscape="http://www.inkscape.org/namespaces/inkscape"
   viewBox="0 0 31 27.01"
   version="1.1"
   id="svg28"
   sodipodi:docname="icon-evouchers.svg"
   inkscape:version="0.92.1 r15371">
  <metadata
     id="metadata32">
    <rdf:RDF>
      <cc:Work
         rdf:about="">
        <dc:format>image/svg+xml</dc:format>
        <dc:type
           rdf:resource="http://purl.org/dc/dcmitype/StillImage" />
      </cc:Work>
    </rdf:RDF>
  </metadata>
  <sodipodi:namedview
     pagecolor="#ffffff"
     bordercolor="#666666"
     borderopacity="1"
     objecttolerance="10"
     gridtolerance="10"
     guidetolerance="10"
     inkscape:pageopacity="0"
     inkscape:pageshadow="2"
     inkscape:window-width="2560"
     inkscape:window-height="1004"
     id="namedview30"
     showgrid="false"
     inkscape:zoom="17.475009"
     inkscape:cx="11.088992"
     inkscape:cy="8.7913811"
     inkscape:window-x="0"
     inkscape:window-y="0"
     inkscape:window-maximized="1"
     inkscape:current-layer="svg28" />
  <defs
     id="defs4">
    <style
       id="style2">.cls-1{fill:none;stroke:#fff;stroke-linecap:round;stroke-linejoin:round;}</style>
  </defs>
  <title
     id="title6">icon-payments</title>
  <g
     id="g1074"
     transform="matrix(1.2809933,0,0,-1.2809933,5.5645109,26.230432)"
     style="stroke:#ffffff">
    <path
       d="m 0,0 -3.118,2.853 c 1.733,1.585 1.733,4.158 0,5.745 L 9.345,20 c 1.734,-1.587 4.545,-1.587 6.279,0 l 3.118,-2.853 c -1.734,-1.586 -1.734,-4.159 0,-5.745 L 6.278,0 C 4.545,1.586 1.733,1.586 0,0 Z"
       style="fill:none;stroke:#ffffff;stroke-width:1;stroke-linecap:round;stroke-linejoin:round;stroke-miterlimit:10;stroke-dasharray:none;stroke-opacity:1"
       id="path1076"
       inkscape:connector-curvature="0" />
  </g>
  <g
     id="g1078"
     transform="matrix(1.2809933,0,0,-1.2809933,25.381126,4.4459862)"
     style="stroke:#ffffff">
    <path
       d="M 0,0 -3.24,-2.964"
       style="fill:none;stroke:#ffffff;stroke-width:1;stroke-linecap:round;stroke-linejoin:round;stroke-miterlimit:10;stroke-dasharray:none;stroke-opacity:1"
       id="path1080"
       inkscape:connector-curvature="0" />
  </g>
  <g
     id="g1082"
     transform="matrix(1.2809933,0,0,-1.2809933,10.250641,18.288018)"
     style="stroke:#ffffff">
    <path
       d="M 0,0 -3.239,-2.964"
       style="fill:none;stroke:#ffffff;stroke-width:1;stroke-linecap:round;stroke-linejoin:round;stroke-miterlimit:10;stroke-dasharray:none;stroke-opacity:1"
       id="path1084"
       inkscape:connector-curvature="0" />
  </g>
  <g
     id="g1086"
     transform="matrix(1.2809933,0,0,-1.2809933,16.524305,10.375577)"
     style="stroke:#ffffff">
    <path
       d="M 0,0 C 0.444,0.407 0.444,1.066 0,1.473 -0.444,1.88 -1.165,1.88 -1.609,1.473 -2.054,1.066 -2.054,0.407 -1.609,0 -1.165,-0.406 -0.444,-0.406 0,0 Z"
       style="fill:none;stroke:#ffffff;stroke-width:1;stroke-linecap:round;stroke-linejoin:round;stroke-miterlimit:10;stroke-dasharray:none;stroke-opacity:1"
       id="path1088"
       inkscape:connector-curvature="0" />
  </g>
  <g
     id="g1090"
     transform="matrix(1.2809933,0,0,-1.2809933,16.679273,18.353091)"
     style="stroke:#ffffff">
    <path
       d="M 0,0 C 0.444,0.407 0.444,1.066 0,1.473 -0.444,1.88 -1.165,1.88 -1.609,1.473 -2.054,1.066 -2.054,0.407 -1.609,0 -1.165,-0.406 -0.444,-0.406 0,0 Z"
       style="fill:none;stroke:#ffffff;stroke-width:1;stroke-linecap:round;stroke-linejoin:round;stroke-miterlimit:10;stroke-dasharray:none;stroke-opacity:1"
       id="path1092"
       inkscape:connector-curvature="0" />
  </g>
  <g
     id="g1094"
     transform="matrix(1.2809933,0,0,-1.2809933,22.995501,13.420499)"
     style="stroke:#ffffff">
    <path
       d="M 0,0 H -11.591"
       style="fill:none;stroke:#ffffff;stroke-width:1;stroke-linecap:round;stroke-linejoin:round;stroke-miterlimit:10;stroke-dasharray:none;stroke-opacity:1"
       id="path1096"
       inkscape:connector-curvature="0" />
  </g>
</svg>
