<svg xmlns="http://www.w3.org/2000/svg" viewBox="0 0 31 27.01"><defs><style>.cls-1{fill:none;stroke:#fff;stroke-linecap:round;stroke-linejoin:round;}</style></defs><title>icon-payments</title><g id="Camada_2" data-name="Camada 2"><g id="Camada_1-2" data-name="Camada 1"><rect class="cls-1" x="7.04" y="0.5" width="21.24" height="4.74" rx="1.74" ry="1.74"/><path class="cls-1" d="M18.79,6.59a2.37,2.37,0,0,0-2.14-1.35H2.87A2.37,2.37,0,0,0,.5,7.61h0A2.37,2.37,0,0,0,2.87,10h10A10,10,0,0,1,18.79,6.59Z"/><path class="cls-1" d="M12.82,10H7.48a2.37,2.37,0,0,0-2.37,2.37h0a2.37,2.37,0,0,0,2.37,2.37h3.11A9.88,9.88,0,0,1,12.82,10Z"/><path class="cls-1" d="M10.43,16.48a10.19,10.19,0,0,1,.16-1.76H2.87A2.37,2.37,0,0,0,.5,17.09h0a2.38,2.38,0,0,0,2.37,2.37h8A10.19,10.19,0,0,1,10.43,16.48Z"/><path class="cls-1" d="M10.88,19.46h-8A2.37,2.37,0,0,0,.5,21.83h0a2.37,2.37,0,0,0,2.37,2.36H14.05A10,10,0,0,1,10.88,19.46Z"/><circle class="cls-1" cx="20.47" cy="16.48" r="10.03"/><path class="cls-1" d="M23.15,14.32v-.25a2.31,2.31,0,0,0-2.32-2.31h-.6a2.31,2.31,0,0,0-2.32,2.31h0a2.32,2.32,0,0,0,2.32,2.32h.5A2.31,2.31,0,0,1,23,18.7v.17a2.32,2.32,0,0,1-2.31,2.32h-.5a2.32,2.32,0,0,1-2.32-2.32v-.34"/><line class="cls-1" x1="20.53" y1="11.76" x2="20.53" y2="10.61"/><line class="cls-1" x1="20.53" y1="22.33" x2="20.53" y2="21.19"/></g></g></svg>