<svg xmlns="http://www.w3.org/2000/svg" viewBox="0 0 21 21"><defs><style>.a,.b{fill:none;stroke:#526069;}.a{stroke-miterlimit:10;}.b{stroke-linecap:round;stroke-linejoin:round;}</style></defs><title>icon_usd</title><circle class="a" cx="10.5" cy="10.5" r="10"/><path class="b" d="M3.63165,14.71771a8.1014,8.1014,0,0,0,2.003,2.20729"/><path class="b" d="M15.12982,3.903A8.063,8.063,0,0,0,2.71961,12.60785"/><path class="b" d="M8.48663,18.30531A8.06057,8.06057,0,0,0,16.94326,5.65882"/><path class="b" d="M12.3037,8.36966h0A1.31226,1.31226,0,0,0,10.99144,7.0574H9.57526A1.57481,1.57481,0,0,0,8.00045,8.6322h0A1.57481,1.57481,0,0,0,9.57526,10.207h1.5565a1.86779,1.86779,0,0,1,1.86779,1.8678h0a1.86779,1.86779,0,0,1-1.86779,1.86779H9.31271a1.31226,1.31226,0,0,1-1.31226-1.31226v-.39887"/><line class="b" x1="9.70018" y1="5.88545" x2="9.70018" y2="7.0574"/><line class="b" x1="10.96369" y1="5.88545" x2="10.96369" y2="7.0574"/><line class="b" x1="9.70018" y1="13.9426" x2="9.70018" y2="15.11455"/><line class="b" x1="10.96369" y1="13.9426" x2="10.96369" y2="15.11455"/></svg>