<svg xmlns="http://www.w3.org/2000/svg" viewBox="0 0 10.86 13"><defs><style>.cls-1{fill:none;stroke:#76838f;stroke-linecap:round;stroke-linejoin:round;}</style></defs><title>icon-copy</title><g id="Camada_2" data-name="Camada 2"><g id="Camada_1-2" data-name="Camada 1"><path class="cls-1" d="M8.53,11.39v.33a.78.78,0,0,1-.78.78H1.28a.78.78,0,0,1-.78-.78V3.22a.78.78,0,0,1,.78-.78h.36"/><path class="cls-1" d="M9.58,10.56H3.11a.78.78,0,0,1-.78-.78V1.28A.78.78,0,0,1,3.11.5H7.83L10.36,3V9.78A.78.78,0,0,1,9.58,10.56Z"/><polygon class="cls-1" points="10.36 3 7.83 3 7.83 0.5 10.36 3"/></g></g></svg>