<svg xmlns="http://www.w3.org/2000/svg" viewBox="0 0 31 31"><defs><style>.cls-1{fill:none;stroke:#f1f4f5;stroke-linecap:round;stroke-linejoin:round;}</style></defs><title>icon-settings</title><g id="Camada_2" data-name="Camada 2"><g id="Camada_1-2" data-name="Camada 1"><path class="cls-1" d="M29.6,13H27.86A12.58,12.58,0,0,0,26,8.51l1.23-1.22a.91.91,0,0,0,0-1.28L25,3.78a.91.91,0,0,0-1.28,0L22.49,5A12.58,12.58,0,0,0,18,3.14V1.4a.9.9,0,0,0-.9-.9H13.92a.9.9,0,0,0-.9.9V3.14A12.58,12.58,0,0,0,8.51,5L7.29,3.78A.91.91,0,0,0,6,3.78L3.78,6a.91.91,0,0,0,0,1.28L5,8.51A12.58,12.58,0,0,0,3.14,13H1.4a.9.9,0,0,0-.9.9v3.16a.9.9,0,0,0,.9.9H3.14A12.58,12.58,0,0,0,5,22.49L3.78,23.71a.91.91,0,0,0,0,1.28L6,27.22a.91.91,0,0,0,1.28,0L8.51,26A12.58,12.58,0,0,0,13,27.86V29.6a.9.9,0,0,0,.9.9h3.16a.9.9,0,0,0,.9-.9V27.86A12.58,12.58,0,0,0,22.49,26l1.22,1.23a.91.91,0,0,0,1.28,0L27.22,25a.91.91,0,0,0,0-1.28L26,22.49A12.58,12.58,0,0,0,27.86,18H29.6a.9.9,0,0,0,.9-.9V13.92A.9.9,0,0,0,29.6,13Z"/><circle class="cls-1" cx="15.5" cy="15.5" r="4.23"/><path class="cls-1" d="M22,11.53a7.66,7.66,0,0,0-1.89-2.08"/><path class="cls-1" d="M11.14,21.71a7.59,7.59,0,0,0,11.69-8.19"/><path class="cls-1" d="M17.4,8.15a8,8,0,0,0-1.9-.24A7.59,7.59,0,0,0,9.43,20.06"/></g></g></svg>