<svg xmlns="http://www.w3.org/2000/svg" viewBox="0 0 22.45 21"><defs><style>.cls-1{fill:none;stroke:#0bb4f5;stroke-linecap:round;stroke-linejoin:round;}</style></defs><title>icon-wallet-blue</title><g id="Camada_2" data-name="Camada 2"><g id="Camada_1-2" data-name="Camada 1"><line class="cls-1" x1="2.81" y1="2.86" x2="15.66" y2="2.86"/><path class="cls-1" d="M22,14.73H16.59a1.64,1.64,0,0,1-1.68-1.61h0a1.64,1.64,0,0,1,1.68-1.61H22Z"/><path class="cls-1" d="M20.47,11.51V6.69A1.5,1.5,0,0,0,19,5.18H2.84A2.34,2.34,0,0,1,.5,2.84V19A1.5,1.5,0,0,0,2,20.5H19A1.5,1.5,0,0,0,20.47,19V14.73H22V11.51Z"/><path class="cls-1" d="M2.69.5H17A1.68,1.68,0,0,1,18.7,2.18v3a0,0,0,0,1,0,0h-16A2.19,2.19,0,0,1,.5,3V2.69A2.19,2.19,0,0,1,2.69.5Z"/></g></g></svg>