<svg xmlns="http://www.w3.org/2000/svg" viewBox="0 0 21 21"><defs><style>.a,.b{fill:none;stroke:#526069;}.a{stroke-miterlimit:10;}.b{stroke-linecap:round;stroke-linejoin:round;}</style></defs><title>icon_brl</title><circle class="a" cx="10.5" cy="10.5" r="10"/><path class="b" d="M3.63165,14.71771a8.1014,8.1014,0,0,0,2.003,2.20729"/><path class="b" d="M15.12982,3.903A8.063,8.063,0,0,0,2.71961,12.60785"/><path class="b" d="M8.48663,18.30531A8.06057,8.06057,0,0,0,16.94326,5.65882"/><path class="b" d="M15.002,8.5322h0a1.21215,1.21215,0,0,0-1.21215-1.21215H12.48175A1.45465,1.45465,0,0,0,11.0271,8.77471h0a1.45466,1.45466,0,0,0,1.45465,1.45466H13.9195a1.72529,1.72529,0,0,1,1.72529,1.72529h0A1.72529,1.72529,0,0,1,13.9195,13.68H12.23924A1.21214,1.21214,0,0,1,11.0271,12.4678v-.36843"/><line class="b" x1="12.59715" y1="6.23751" x2="12.59715" y2="7.32005"/><line class="b" x1="13.76426" y1="6.23751" x2="13.76426" y2="7.32005"/><line class="b" x1="12.59715" y1="13.67995" x2="12.59715" y2="14.76249"/><line class="b" x1="13.76426" y1="13.67995" x2="13.76426" y2="14.76249"/><path class="b" d="M5.35521,7.32005H8.50133A1.45466,1.45466,0,0,1,9.956,8.77471h0a1.45467,1.45467,0,0,1-1.45466,1.45466H5.98105"/><line class="b" x1="5.98105" y1="7.32005" x2="5.98105" y2="13.67995"/><line class="b" x1="7.6556" y1="10.22937" x2="9.77986" y2="13.67995"/></svg>