<svg xmlns="http://www.w3.org/2000/svg" viewBox="0 0 31 28.97"><defs><style>.cls-1{fill:none;stroke:#fff;stroke-linecap:round;stroke-linejoin:round;}</style></defs><title>icon-wallet</title><g id="Camada_2" data-name="Camada 2"><g id="Camada_1-2" data-name="Camada 1"><line class="cls-1" x1="3.73" y1="3.8" x2="21.7" y2="3.8"/><path class="cls-1" d="M30.5,20.4H23a2.3,2.3,0,0,1-2.35-2.25h0A2.3,2.3,0,0,1,23,15.9h7.5Z"/><path class="cls-1" d="M28.43,15.9V9.15A2.11,2.11,0,0,0,26.33,7H3.77A3.27,3.27,0,0,1,.5,3.77V26.36a2.11,2.11,0,0,0,2.11,2.11H26.33a2.11,2.11,0,0,0,2.1-2.11v-6H30.5V15.9Z"/><path class="cls-1" d="M2.69.5H24.27a1.68,1.68,0,0,1,1.68,1.68V7a0,0,0,0,1,0,0H2.69A2.19,2.19,0,0,1,.5,4.85V2.69A2.19,2.19,0,0,1,2.69.5Z"/></g></g></svg>