<?xml version="1.0" encoding="UTF-8" standalone="no"?>
<!DOCTYPE svg PUBLIC "-//W3C//DTD SVG 1.1//EN" "http://www.w3.org/Graphics/SVG/1.1/DTD/svg11.dtd">
<svg width="100%" height="100%" viewBox="0 0 60 60" version="1.1" xmlns="http://www.w3.org/2000/svg" xmlns:xlink="http://www.w3.org/1999/xlink" xml:space="preserve" xmlns:serif="http://www.serif.com/" style="fill-rule:evenodd;clip-rule:evenodd;stroke-linejoin:round;stroke-miterlimit:1.41421;">
    <path d="M48,1L12,1C12,1 12,1 12,1C14.194,1 16,2.806 16,5C16,5 16,5 16,5C16,37.854 16,26.165 16,59L19,56.75L22,59L25,56.75L28,59L31,56.75L34,59L37,56.75L40,59L43,56.75L46,59L49,56.75L52,59L52,5C52,5 52,5 52,5C52,2.806 50.194,1 48,1C48,1 48,1 48,1Z" style="fill:white;fill-rule:nonzero;"/>
    <path d="M52,55L49.6,53.2C49.245,52.934 48.754,52.934 48.4,53.2L46.6,54.55C46.245,54.816 45.754,54.816 45.4,54.55L43.6,53.2C43.245,52.934 42.754,52.934 42.4,53.2L40.6,54.55C40.245,54.816 39.754,54.816 39.4,54.55L37.6,53.2C37.245,52.934 36.754,52.934 36.4,53.2L34.6,54.55C34.245,54.816 33.754,54.816 33.4,54.55L31.6,53.2C31.245,52.934 30.754,52.934 30.4,53.2L28.6,54.55C28.245,54.816 27.754,54.816 27.4,54.55L25.6,53.2C25.245,52.934 24.754,52.934 24.4,53.2L22.6,54.55C22.245,54.816 21.754,54.816 21.4,54.55L19.6,53.2C19.245,52.934 18.754,52.934 18.4,53.2L16,55L16,59L19,56.75L22,59L25,56.75L28,59L31,56.75L34,59L37,56.75L40,59L43,56.75L46,59L49,56.75L52,59L52,55Z" style="fill:rgb(102,102,102);fill-opacity:0.2;fill-rule:nonzero;"/>
    <g transform="matrix(1,0,0,1,6.99566e-05,0)">
        <path d="M52,60C51.784,60 51.573,59.93 51.4,59.8L49,58L46.6,59.8C46.245,60.066 45.755,60.066 45.4,59.8L43,58L40.6,59.8C40.245,60.066 39.755,60.066 39.4,59.8L37,58L34.6,59.8C34.245,60.066 33.755,60.066 33.4,59.8L31,58L28.6,59.8C28.245,60.066 27.755,60.066 27.4,59.8L25,58L22.6,59.8C22.245,60.066 21.755,60.066 21.4,59.8L19,58L16.6,59.8C16.427,59.93 16.216,60 16,60C15.451,60 15,59.549 15,59C15,59 15,59 15,59L15,5C14.998,3.355 13.645,2.002 12,2C11.451,2 11,1.549 11,1C11,0.451 11.451,0 12,0L48,0C50.742,0.003 52.997,2.258 53,5L53,59C53,59 53,59 53,59C53,59.549 52.549,60 52,60C52,60 52,60 52,60ZM43,55.75C43.216,55.75 43.427,55.82 43.6,55.95L46,57.75L48.4,55.95C48.755,55.684 49.245,55.684 49.6,55.95L51,57L51,5C50.998,3.355 49.645,2.002 48,2L15.998,2C16.649,2.864 17.001,3.918 17,5L17,57L18.4,55.95C18.755,55.684 19.245,55.684 19.6,55.95L22,57.75L24.4,55.95C24.755,55.684 25.245,55.684 25.6,55.95L28,57.75L30.4,55.95C30.755,55.684 31.245,55.684 31.6,55.95L34,57.75L36.4,55.95C36.755,55.684 37.245,55.684 37.6,55.95L40,57.75L42.4,55.95C42.573,55.82 42.784,55.75 43,55.75Z" style="fill:rgb(102,102,102);fill-rule:nonzero;"/>
    </g>
    <g>
        <g opacity="0.5">
            <path d="M34,47C31.817,47.008 30.013,45.222 30,43.04C30,42.491 30.451,42.04 31,42.04C31.549,42.04 32,42.491 32,43.04C32.022,44.122 32.918,45 34,45C35.082,45 35.978,44.122 36,43.04C36,41.514 33.751,40.836 33.729,40.83C33.576,40.787 30,39.744 30,36.696C30.022,34.517 31.821,32.736 34,32.736C36.179,32.736 37.978,34.517 38,36.696C38,37.244 37.549,37.696 37,37.696C36.451,37.696 36,37.244 36,36.696C35.978,35.614 35.082,34.736 34,34.736C32.918,34.736 32.022,35.614 32,36.696C32,38.229 34.252,38.899 34.274,38.906C34.424,38.948 38,39.992 38,43.04C37.987,45.222 36.183,47.008 34,47Z" style="fill:rgb(179,179,179);fill-rule:nonzero;"/>
            <path d="M34,34.736C34,34.736 34,34.736 34,34.736C33.451,34.736 33,34.285 33,33.736C33,33.736 33,33.736 33,33.736L33,32C33,31.451 33.451,31 34,31C34.549,31 35,31.451 35,32L35,33.736C35,34.285 34.549,34.736 34,34.736C34,34.736 34,34.736 34,34.736Z" style="fill:rgb(179,179,179);fill-rule:nonzero;"/>
            <path d="M34,49C34,49 34,49 34,49C33.451,49 33,48.549 33,48C33,48 33,48 33,48L33,46C33,45.451 33.451,45 34,45C34.549,45 35,45.451 35,46L35,48C35,48.549 34.549,49 34,49C34,49 34,49 34,49Z" style="fill:rgb(179,179,179);fill-rule:nonzero;"/>
        </g>
    </g>
    <path d="M39,20L22,20C21.451,20 21,19.549 21,19C21,18.451 21.451,18 22,18L39,18C39.549,18 40,18.451 40,19C40,19.549 39.549,20 39,20Z" style="fill:rgb(179,179,179);fill-opacity:0.5;fill-rule:nonzero;"/>
    <path d="M46,20L43,20C42.451,20 42,19.549 42,19C42,18.451 42.451,18 43,18L46,18C46.549,18 47,18.451 47,19C47,19.549 46.549,20 46,20Z" style="fill:rgb(179,179,179);fill-opacity:0.5;fill-rule:nonzero;"/>
    <path d="M39,24L22,24C21.451,24 21,23.549 21,23C21,22.451 21.451,22 22,22L39,22C39.549,22 40,22.451 40,23C40,23.549 39.549,24 39,24Z" style="fill:rgb(179,179,179);fill-opacity:0.5;fill-rule:nonzero;"/>
    <path d="M46,24L43,24C42.451,24 42,23.549 42,23C42,22.451 42.451,22 43,22L46,22C46.549,22 47,22.451 47,23C47,23.549 46.549,24 46,24Z" style="fill:rgb(179,179,179);fill-opacity:0.5;fill-rule:nonzero;"/>
    <path d="M39,28L22,28C21.451,28 21,27.549 21,27C21,26.451 21.451,26 22,26L39,26C39.549,26 40,26.451 40,27C40,27.549 39.549,28 39,28Z" style="fill:rgb(179,179,179);fill-opacity:0.5;fill-rule:nonzero;"/>
    <path d="M46,28L43,28C42.451,28 42,27.549 42,27C42,26.451 42.451,26 43,26L46,26C46.549,26 47,26.451 47,27C47,27.549 46.549,28 46,28Z" style="fill:rgb(179,179,179);fill-opacity:0.5;fill-rule:nonzero;"/>
    <path d="M25,12L22,12C21.451,12 21,11.549 21,11C21,10.451 21.451,10 22,10L25,10C25.549,10 26,10.451 26,11C26,11.549 25.549,12 25,12Z" style="fill:rgb(179,179,179);fill-opacity:0.5;fill-rule:nonzero;"/>
    <path d="M46,16L22,16C21.451,16 21,15.549 21,15C21,14.451 21.451,14 22,14L46,14C46.549,14 47,14.451 47,15C47,15.549 46.549,16 46,16Z" style="fill:rgb(179,179,179);fill-opacity:0.5;fill-rule:nonzero;"/>
    <path d="M47,7C47.002,6.452 47.452,6.002 48,6C48.548,6.002 48.998,6.452 49,7C48.998,7.548 48.548,7.998 48,8C47.452,7.998 47.002,7.548 47,7ZM43,7C43.002,6.452 43.452,6.002 44,6C44.548,6.002 44.998,6.452 45,7C44.998,7.548 44.548,7.998 44,8C43.452,7.998 43.002,7.548 43,7ZM39,7C39.002,6.452 39.452,6.002 40,6C40.548,6.002 40.998,6.452 41,7C40.998,7.548 40.548,7.998 40,8C39.452,7.998 39.002,7.548 39,7ZM35,7C35.002,6.452 35.452,6.002 36,6C36.548,6.002 36.998,6.452 37,7C36.998,7.548 36.548,7.998 36,8C35.452,7.998 35.002,7.548 35,7ZM31,7C31.002,6.452 31.452,6.002 32,6C32.548,6.002 32.998,6.452 33,7C32.998,7.548 32.548,7.998 32,8C31.452,7.998 31.002,7.548 31,7ZM27,7C27.002,6.452 27.452,6.002 28,6C28.548,6.002 28.998,6.452 29,7C28.998,7.548 28.548,7.998 28,8C27.452,7.998 27.002,7.548 27,7ZM23,7C23,6.999 23,6.997 23,6.996C23,6.45 23.45,6 23.996,6C23.997,6 23.999,6 24,6C24.548,6.002 24.998,6.452 25,7C24.998,7.548 24.548,7.998 24,8C23.999,8 23.998,8 23.996,8C23.45,8 23,7.55 23,7.004C23,7.002 23,7.001 23,7ZM19,7C19.002,6.452 19.452,6.002 20,6C20.548,6.002 20.998,6.452 21,7C20.998,7.548 20.548,7.998 20,8C19.452,7.998 19.002,7.548 19,7Z" style="fill:rgb(179,179,179);fill-opacity:0.5;fill-rule:nonzero;"/>
    <path d="M47,53C47.002,52.452 47.452,52.002 48,52C48.548,52.002 48.998,52.452 49,53C48.998,53.548 48.548,53.998 48,54C47.452,53.998 47.002,53.548 47,53ZM43,53C43.002,52.452 43.452,52.002 44,52C44.548,52.002 44.998,52.452 45,53C44.998,53.548 44.548,53.998 44,54C43.452,53.998 43.002,53.548 43,53ZM39,53C39.002,52.452 39.452,52.002 40,52C40.548,52.002 40.998,52.452 41,53C40.998,53.548 40.548,53.998 40,54C39.452,53.998 39.002,53.548 39,53ZM35,53C35.002,52.452 35.452,52.002 36,52C36.548,52.002 36.998,52.452 37,53C36.998,53.548 36.548,53.998 36,54C35.452,53.998 35.002,53.548 35,53ZM31,53C31.002,52.452 31.452,52.002 32,52C32.548,52.002 32.998,52.452 33,53C32.998,53.548 32.548,53.998 32,54C31.452,53.998 31.002,53.548 31,53ZM27,53C27.002,52.452 27.452,52.002 28,52C28.548,52.002 28.998,52.452 29,53C28.998,53.548 28.548,53.998 28,54C27.452,53.998 27.002,53.548 27,53ZM23,53C23,52.999 23,52.997 23,52.996C23,52.45 23.45,52 23.996,52C23.997,52 23.999,52 24,52C24.548,52.002 24.998,52.452 25,53C24.998,53.548 24.548,53.998 24,54C23.999,54 23.998,54 23.996,54C23.45,54 23,53.55 23,53.004C23,53.002 23,53.001 23,53ZM19,53C19.002,52.452 19.452,52.002 20,52C20.548,52.002 20.998,52.452 21,53C20.998,53.548 20.548,53.998 20,54C19.452,53.998 19.002,53.548 19,53Z" style="fill:rgb(179,179,179);fill-opacity:0.5;fill-rule:nonzero;"/>
    <path d="M16,5C16,5 16,5 16,5C16,2.806 14.194,1 12,1C12,1 12,1 12,1L12,1C9.806,1 8,2.806 8,5L8,32L8,32L8,38L11,35.75L14,38L16,36.5C16,28.763 16,25.852 16,5Z" style="fill:rgb(230,230,230);fill-rule:nonzero;"/>
    <path d="M12,6L12,6C14.209,6 16,6.01 16,6.01L16,5C16,5 16,5 16,5C16,2.806 14.194,1 12,1C12,1 12,1 12,1L12,1C9.806,1 8,2.806 8,5L8,10C8,7.806 9.806,6 12,6Z" style="fill:rgb(115,115,115);fill-opacity:0.2;fill-rule:nonzero;"/>
    <g transform="matrix(1,0,0,1,-0.000100365,-2.93197e-08)">
        <path d="M8,39C8,39 8,39 8,39C7.451,39 7,38.549 7,38C7,38 7,38 7,38L7,5C7,2.257 9.257,0 12,0C14.743,0 17,2.257 17,5L17,36.5C17,36.815 16.851,37.111 16.6,37.3L14.6,38.8C14.245,39.066 13.755,39.066 13.4,38.8L11,37L8.6,38.8C8.427,38.93 8.216,39 8,39ZM11,34.75C11.216,34.75 11.427,34.82 11.6,34.95L14,36.75L15,36L15,5C15,3.354 13.646,2 12,2C10.354,2 9,3.354 9,5L9,36L10.4,34.95C10.573,34.82 10.784,34.75 11,34.75Z" style="fill:rgb(102,102,102);fill-rule:nonzero;"/>
    </g>
</svg>
