<svg xmlns="http://www.w3.org/2000/svg" viewBox="0 0 100 100"><defs><style>.cls-1{fill:#ffe4db;}.cls-2{fill:#ffc2ad;}.cls-3{fill:#ff6d3b;}.cls-4{fill:#fcbb51;}.cls-5{fill:#ffd55c;}.cls-6{fill:#fff;}</style></defs><title>medal</title><g id="Camada_2" data-name="Camada 2"><g id="Capa_1" data-name="Capa 1"><circle class="cls-1" cx="50" cy="50" r="50"/><circle class="cls-2" cx="50" cy="50" r="41.1" transform="translate(-2.69 2.84) rotate(-3.17)"/><path class="cls-3" d="M50.8,68.3V80.1l5.3-2.5,5.3,2.5V64.8A20.29,20.29,0,0,1,50.8,68.3Z"/><path class="cls-3" d="M38.5,64.8V80.1l5.3-2.5,5.3,2.5V68.3A20.29,20.29,0,0,1,38.5,64.8Z"/><path class="cls-4" d="M70.5,47.7A20.6,20.6,0,1,1,49.9,27.1,20.57,20.57,0,0,1,70.5,47.7Z"/><path class="cls-5" d="M48.2,32.2a2.07,2.07,0,0,0,3.6,0c1-1.4,2.1-1.2,2.5.5a2.06,2.06,0,0,0,3.3,1.4c1.5-.9,2.4-.3,2.1,1.4a2.12,2.12,0,0,0,2.6,2.6c1.7-.3,2.4.6,1.4,2.1a2,2,0,0,0,1.4,3.3c1.7.4,1.9,1.5.5,2.5a2.07,2.07,0,0,0,0,3.6c1.4,1,1.2,2.1-.5,2.5a2.06,2.06,0,0,0-1.4,3.3c.9,1.5.3,2.4-1.4,2.1a2.12,2.12,0,0,0-2.6,2.6c.3,1.7-.6,2.4-2.1,1.4a2,2,0,0,0-3.3,1.4c-.4,1.7-1.5,1.9-2.5.5a2.07,2.07,0,0,0-3.6,0c-1,1.4-2.1,1.2-2.5-.5a2.06,2.06,0,0,0-3.3-1.4c-1.4.9-2.4.3-2.1-1.4a2.12,2.12,0,0,0-2.6-2.6c-1.7.3-2.4-.6-1.4-2.1a2,2,0,0,0-1.4-3.3c-1.7-.4-1.9-1.5-.5-2.5a2.07,2.07,0,0,0,0-3.6c-1.4-1-1.2-2.1.5-2.5a2.06,2.06,0,0,0,1.4-3.3c-.9-1.5-.3-2.4,1.4-2.1a2.12,2.12,0,0,0,2.6-2.6c-.3-1.7.6-2.4,2.1-1.4a2,2,0,0,0,3.3-1.4C46,30.9,47.1,30.7,48.2,32.2Z"/><path class="cls-6" d="M53.4,43.5l4.8,1.1a.62.62,0,0,1,.3,1l-3.2,3.7a.44.44,0,0,0-.1.5l.4,4.9c0,.5-.4.8-.8.6l-4.5-1.9a.45.45,0,0,0-.5,0l-4.5,1.9a.57.57,0,0,1-.8-.6l.4-4.8a.9.9,0,0,0-.1-.5l-3.2-3.7a.64.64,0,0,1,.3-1l4.7-1.1c.2,0,.3-.1.4-.3l2.5-4.2a.57.57,0,0,1,1,0L53,43.3A.52.52,0,0,0,53.4,43.5Z"/></g></g></svg>