<svg xmlns="http://www.w3.org/2000/svg" viewBox="0 0 100 100"><defs><style>.cls-1{fill:#f7f7f7;}.cls-2{fill:#eeeeef;}.cls-3,.cls-4{fill:none;stroke:#76838f;}.cls-3{stroke-miterlimit:10;}.cls-4{stroke-linecap:round;stroke-linejoin:round;}</style></defs><title>microphone</title><g id="Camada_2" data-name="Camada 2"><g id="Capa_1" data-name="Capa 1"><circle class="cls-1" cx="50" cy="50" r="50"/><circle class="cls-2" cx="50" cy="50" r="41.1" transform="translate(-3.42 96.33) rotate(-85.93)"/><path class="cls-3" d="M50,25.8h0a9.6,9.6,0,0,0-9.6,9.6V50.7A9.6,9.6,0,0,0,50,60.3h0a9.6,9.6,0,0,0,9.6-9.6V35.4A9.6,9.6,0,0,0,50,25.8Z"/><path class="cls-4" d="M50,65.7a15,15,0,0,1-3.7-.5v6.4h7.5V65.1A12.56,12.56,0,0,1,50,65.7Z"/><path class="cls-3" d="M45.8,36.5H40.3v3h5.5a1.5,1.5,0,0,0,0-3Z"/><path class="cls-3" d="M45.8,41.6H40.3v3h5.5a1.54,1.54,0,0,0,1.5-1.5A1.47,1.47,0,0,0,45.8,41.6Z"/><path class="cls-3" d="M45.8,46.6H40.3v3h5.5a1.5,1.5,0,0,0,0-3Z"/><path class="cls-3" d="M54.1,49.7h5.5v-3H54.1a1.5,1.5,0,0,0,0,3Z"/><path class="cls-3" d="M54.1,44.6h5.5v-3H54.1a1.5,1.5,0,0,0,0,3Z"/><path class="cls-3" d="M54.1,39.6h5.5v-3H54.1a1.5,1.5,0,0,0,0,3Z"/><path class="cls-4" d="M50,65.7A14.72,14.72,0,0,1,35.3,51V41.1a1.2,1.2,0,1,1,2.4,0V51a12.2,12.2,0,0,0,24.4,0V41.1a1.22,1.22,0,0,1,1.2-1.2,1.29,1.29,0,0,1,1.2,1.2V51A14.55,14.55,0,0,1,50,65.7Z"/><rect class="cls-4" x="40.3" y="71.7" width="19.4" height="2.5"/></g></g></svg>