<svg xmlns="http://www.w3.org/2000/svg" viewBox="0 0 336.95 115.41" style=""><defs><style>.cls-1{fill:none;stroke:#a3afb7;stroke-linecap:round;stroke-linejoin:round;}</style></defs><title>money-exchange-illustration</title><g id="Camada_2" data-name="Camada 2"><g id="Camada_1-2" data-name="Camada 1"><path class="cls-1 XwXjtHXe_0" d="M135.72,18V28.49a30,30,0,1,1-13.85,0V18"></path><path class="cls-1 XwXjtHXe_1" d="M121.87,24.9L108.03,17.85L108.03,9.16"></path><path class="cls-1 XwXjtHXe_2" d="M135.72,24.77L149.31,17.85L149.31,9.16"></path><path class="cls-1 XwXjtHXe_3" d="M200.33,96.92V86.43a30,30,0,1,1,13.85,0V96.92"></path><path class="cls-1 XwXjtHXe_4" d="M214.18,90.03L228.03,97.08L228.03,105.77"></path><path class="cls-1 XwXjtHXe_5" d="M200.34,90.16L186.74,97.08L186.74,105.77"></path><path class="cls-1 XwXjtHXe_6" d="M128.8,106.16a48.45,48.45,0,0,0,48.44-47.8"></path><path class="cls-1 XwXjtHXe_7" d="M128.8,97A39.24,39.24,0,0,0,168,59l0-2.55a39.23,39.23,0,0,1,39.21-38"></path><path class="cls-1 XwXjtHXe_8" d="M207.26,9.25a48.45,48.45,0,0,0-48.44,47.81"></path><path class="cls-1 XwXjtHXe_9" d="M249.12,18.47L211.88,18.47"></path><path class="cls-1 XwXjtHXe_10" d="M211.88,9.24L249.12,9.24L249.12,0.5L264.88,13.86L256.69,22.05"></path><path class="cls-1 XwXjtHXe_11" d="M196.63,44.82h12.76a5.9,5.9,0,0,1,5.89,5.9h0a5.9,5.9,0,0,1-5.89,5.9H199.17"></path><path class="cls-1 XwXjtHXe_12" d="M209.39,56.62h1.5a7,7,0,0,1,7,7h0a7,7,0,0,1-7,7H196.63"></path><path class="cls-1 XwXjtHXe_13" d="M199.17,70.61L199.17,44.82"></path><path class="cls-1 XwXjtHXe_14" d="M196.63,64.56L201.36,64.56"></path><path class="cls-1 XwXjtHXe_15" d="M135.26,50.08h0a4.7,4.7,0,0,0-4.7-4.7h-5.08A5.64,5.64,0,0,0,119.84,51h0a5.65,5.65,0,0,0,5.64,5.64h5.58a6.69,6.69,0,0,1,6.69,6.69h0A6.7,6.7,0,0,1,131.06,70h-6.52a4.71,4.71,0,0,1-4.7-4.7V63.91"></path><path class="cls-1 XwXjtHXe_16" d="M125.93,41.18L125.93,45.38"></path><path class="cls-1 XwXjtHXe_17" d="M130.46,41.18L130.46,45.38"></path><path class="cls-1 XwXjtHXe_18" d="M125.93,70.04L125.93,74.24"></path><path class="cls-1 XwXjtHXe_19" d="M130.46,70.04L130.46,74.24"></path><path class="cls-1 XwXjtHXe_20" d="M86.94,96.94L124.18,96.94"></path><path class="cls-1 XwXjtHXe_21" d="M124.18,106.16L86.94,106.16L86.94,114.91L71.17,101.55L79.37,93.35"></path><path class="cls-1 XwXjtHXe_22" d="M183.35999999999999,57.06A23.9,23.9 0,1,1 231.16,57.06A23.9,23.9 0,1,1 183.35999999999999,57.06"></path><path class="cls-1 XwXjtHXe_23" d="M104.9,57.72A23.9,23.9 0,1,1 152.70000000000002,57.72A23.9,23.9 0,1,1 104.9,57.72"></path><path class="cls-1 XwXjtHXe_24" d="M39,51.93a3.09,3.09,0,0,0,.14-1.09,3.75,3.75,0,0,0-.58-2.09A3.05,3.05,0,0,0,36,47.45H15.3a.2.2,0,0,0-.23.17c-.36,1.13-.73,2.25-1.09,3.37l-.34,1H32.42a.23.23,0,0,1,0,.12q-1.45,4.47-2.89,8.94a.17.17,0,0,1-.17.13H10.78c-.08,0-.12,0-.15.11-.46,1.44-.93,2.89-1.4,4.34a.1.1,0,0,0,.1.13H30.19a3.12,3.12,0,0,0,.86-.11,7.93,7.93,0,0,0,4.56-3.56,4.48,4.48,0,0,0,.46-1Q37.54,56.51,39,51.93Z"></path><path class="cls-1 XwXjtHXe_25" d="M19.69,58.48c.45-1.32.89-2.65,1.34-4a.11.11,0,0,0-.11-.15H10.07a.2.2,0,0,0-.19.13c-.45,1.33-.91,2.65-1.36,4a.11.11,0,0,0,.11.16H19.5A.2.2,0,0,0,19.69,58.48Z"></path><path class="cls-1 XwXjtHXe_26" d="M312.17,62.08L321.64,56.48L312.17,40.77L302.7,56.48L312.17,62.08L312.17,62.08Z"></path><path class="cls-1 XwXjtHXe_27" d="M312.17,72.47l9.48-13.34-9.48,5.59-9.47-5.59Z"></path><path class="cls-1 XwXjtHXe_28" d="M270.56,64.18a6.43,6.43,0,0,1-6.43,6.43h-3.26a6.43,6.43,0,0,1-6.43-6.43V51.25a6.43,6.43,0,0,1,6.43-6.43h3.26a6.43,6.43,0,0,1,6.43,6.43"></path><path class="cls-1 XwXjtHXe_29" d="M250.89,60.99L261.43,60.99"></path><path class="cls-1 XwXjtHXe_30" d="M250.89,54.44L261.43,54.44"></path><path class="cls-1 XwXjtHXe_31" d="M74.12,56.7L74.12,70.7"></path><path class="cls-1 XwXjtHXe_32" d="M69.02,62.97L79.21,62.97"></path><path class="cls-1 XwXjtHXe_33" d="M69.02,57.54L79.21,57.54"></path><path class="cls-1 XwXjtHXe_34" d="M83.04,46.02L74.11,56.7L65.19,46.02"></path><path class="cls-1 XwXjtHXe_35" d="M243.69,72.14a23.91,23.91,0,1,0,.68-31"></path><path class="cls-1 XwXjtHXe_36" d="M294,72.14a23.91,23.91,0,1,0,.68-31"></path><path class="cls-1 XwXjtHXe_37" d="M93.26,42a23.91,23.91,0,1,0-.68,31"></path><path class="cls-1 XwXjtHXe_38" d="M42.94,42a23.9,23.9,0,1,0-.67,31"></path></g></g><style data-made-with="vivus-instant">.XwXjtHXe_0{stroke-dasharray:196 198;stroke-dashoffset:197;animation:XwXjtHXe_draw 666ms ease-out 0ms forwards;}.XwXjtHXe_1{stroke-dasharray:25 27;stroke-dashoffset:26;animation:XwXjtHXe_draw 666ms ease-out 8ms forwards;}.XwXjtHXe_2{stroke-dasharray:24 26;stroke-dashoffset:25;animation:XwXjtHXe_draw 666ms ease-out 17ms forwards;}.XwXjtHXe_3{stroke-dasharray:196 198;stroke-dashoffset:197;animation:XwXjtHXe_draw 666ms ease-out 26ms forwards;}.XwXjtHXe_4{stroke-dasharray:25 27;stroke-dashoffset:26;animation:XwXjtHXe_draw 666ms ease-out 35ms forwards;}.XwXjtHXe_5{stroke-dasharray:24 26;stroke-dashoffset:25;animation:XwXjtHXe_draw 666ms ease-out 43ms forwards;}.XwXjtHXe_6{stroke-dasharray:76 78;stroke-dashoffset:77;animation:XwXjtHXe_draw 666ms ease-out 52ms forwards;}.XwXjtHXe_7{stroke-dasharray:124 126;stroke-dashoffset:125;animation:XwXjtHXe_draw 666ms ease-out 61ms forwards;}.XwXjtHXe_8{stroke-dasharray:76 78;stroke-dashoffset:77;animation:XwXjtHXe_draw 666ms ease-out 70ms forwards;}.XwXjtHXe_9{stroke-dasharray:38 40;stroke-dashoffset:39;animation:XwXjtHXe_draw 666ms ease-out 78ms forwards;}.XwXjtHXe_10{stroke-dasharray:79 81;stroke-dashoffset:80;animation:XwXjtHXe_draw 666ms ease-out 87ms forwards;}.XwXjtHXe_11{stroke-dasharray:42 44;stroke-dashoffset:43;animation:XwXjtHXe_draw 666ms ease-out 96ms forwards;}.XwXjtHXe_12{stroke-dasharray:38 40;stroke-dashoffset:39;animation:XwXjtHXe_draw 666ms ease-out 105ms forwards;}.XwXjtHXe_13{stroke-dasharray:26 28;stroke-dashoffset:27;animation:XwXjtHXe_draw 666ms ease-out 114ms forwards;}.XwXjtHXe_14{stroke-dasharray:5 7;stroke-dashoffset:6;animation:XwXjtHXe_draw 666ms ease-out 122ms forwards;}.XwXjtHXe_15{stroke-dasharray:73 75;stroke-dashoffset:74;animation:XwXjtHXe_draw 666ms ease-out 131ms forwards;}.XwXjtHXe_16{stroke-dasharray:5 7;stroke-dashoffset:6;animation:XwXjtHXe_draw 666ms ease-out 140ms forwards;}.XwXjtHXe_17{stroke-dasharray:5 7;stroke-dashoffset:6;animation:XwXjtHXe_draw 666ms ease-out 149ms forwards;}.XwXjtHXe_18{stroke-dasharray:5 7;stroke-dashoffset:6;animation:XwXjtHXe_draw 666ms ease-out 157ms forwards;}.XwXjtHXe_19{stroke-dasharray:5 7;stroke-dashoffset:6;animation:XwXjtHXe_draw 666ms ease-out 166ms forwards;}.XwXjtHXe_20{stroke-dasharray:38 40;stroke-dashoffset:39;animation:XwXjtHXe_draw 666ms ease-out 175ms forwards;}.XwXjtHXe_21{stroke-dasharray:79 81;stroke-dashoffset:80;animation:XwXjtHXe_draw 666ms ease-out 184ms forwards;}.XwXjtHXe_22{stroke-dasharray:151 153;stroke-dashoffset:152;animation:XwXjtHXe_draw 666ms ease-out 192ms forwards;}.XwXjtHXe_23{stroke-dasharray:151 153;stroke-dashoffset:152;animation:XwXjtHXe_draw 666ms ease-out 201ms forwards;}.XwXjtHXe_24{stroke-dasharray:123 125;stroke-dashoffset:124;animation:XwXjtHXe_draw 666ms ease-out 210ms forwards;}.XwXjtHXe_25{stroke-dasharray:32 34;stroke-dashoffset:33;animation:XwXjtHXe_draw 666ms ease-out 219ms forwards;}.XwXjtHXe_26{stroke-dasharray:59 61;stroke-dashoffset:60;animation:XwXjtHXe_draw 666ms ease-out 228ms forwards;}.XwXjtHXe_27{stroke-dasharray:55 57;stroke-dashoffset:56;animation:XwXjtHXe_draw 666ms ease-out 236ms forwards;}.XwXjtHXe_28{stroke-dasharray:60 62;stroke-dashoffset:61;animation:XwXjtHXe_draw 666ms ease-out 245ms forwards;}.XwXjtHXe_29{stroke-dasharray:11 13;stroke-dashoffset:12;animation:XwXjtHXe_draw 666ms ease-out 254ms forwards;}.XwXjtHXe_30{stroke-dasharray:11 13;stroke-dashoffset:12;animation:XwXjtHXe_draw 666ms ease-out 263ms forwards;}.XwXjtHXe_31{stroke-dasharray:14 16;stroke-dashoffset:15;animation:XwXjtHXe_draw 666ms ease-out 271ms forwards;}.XwXjtHXe_32{stroke-dasharray:11 13;stroke-dashoffset:12;animation:XwXjtHXe_draw 666ms ease-out 280ms forwards;}.XwXjtHXe_33{stroke-dasharray:11 13;stroke-dashoffset:12;animation:XwXjtHXe_draw 666ms ease-out 289ms forwards;}.XwXjtHXe_34{stroke-dasharray:28 30;stroke-dashoffset:29;animation:XwXjtHXe_draw 666ms ease-out 298ms forwards;}.XwXjtHXe_35{stroke-dasharray:117 119;stroke-dashoffset:118;animation:XwXjtHXe_draw 666ms ease-out 307ms forwards;}.XwXjtHXe_36{stroke-dasharray:117 119;stroke-dashoffset:118;animation:XwXjtHXe_draw 666ms ease-out 315ms forwards;}.XwXjtHXe_37{stroke-dasharray:117 119;stroke-dashoffset:118;animation:XwXjtHXe_draw 666ms ease-out 324ms forwards;}.XwXjtHXe_38{stroke-dasharray:117 119;stroke-dashoffset:118;animation:XwXjtHXe_draw 666ms ease-out 333ms forwards;}@keyframes XwXjtHXe_draw{100%{stroke-dashoffset:0;}}@keyframes XwXjtHXe_fade{0%{stroke-opacity:1;}92.3076923076923%{stroke-opacity:1;}100%{stroke-opacity:0;}}</style></svg>