<svg xmlns="http://www.w3.org/2000/svg" viewBox="0 0 47.84 41.75"><defs><style>.cls-1,.cls-2{fill:none;}.cls-1{stroke:#76838f;stroke-linecap:round;stroke-linejoin:round;}</style></defs><title>otp</title><g id="Camada_2" data-name="Camada 2"><g id="Capa_1" data-name="Capa 1"><path class="cls-1" d="M35.27,14.59H33.38V10.8a9.46,9.46,0,0,0-18.92,0v3.79H12.57a3.78,3.78,0,0,0-3.78,3.78v17a3.78,3.78,0,0,0,3.78,3.78h22.7a3.78,3.78,0,0,0,3.78-3.78v-17A3.78,3.78,0,0,0,35.27,14.59Zm-17-3.79a5.67,5.67,0,1,1,11.34,0v3.79H18.25ZM32.19,22.5l-9.68,9.7-4.83-4.85"/><rect class="cls-2" width="47.84" height="41.75"/></g></g></svg>