<svg xmlns="http://www.w3.org/2000/svg" viewBox="0 0 100 100"><defs><style>.cls-1{fill:#f7f7f7;}.cls-2{fill:#eeeeef;}.cls-3{fill:none;stroke:#76838f;stroke-linecap:round;stroke-linejoin:round;}</style></defs><title>passport</title><g id="Camada_2" data-name="Camada 2"><g id="Capa_1" data-name="Capa 1"><circle class="cls-1" cx="50" cy="50" r="50"/><circle class="cls-2" cx="50" cy="50" r="41.1" transform="translate(-4.68 5.17) rotate(-5.65)"/><path class="cls-3" d="M33.6,70.5V30.4a2.69,2.69,0,0,1,2.7-2.7H63.8a2.69,2.69,0,0,1,2.7,2.7V69.3"/><path class="cls-3" d="M66.4,66.4v3.1a2.69,2.69,0,0,1-2.7,2.7H35.1a1.58,1.58,0,0,1-1.6-1.6A1.72,1.72,0,0,1,35.1,69H63.7A2.55,2.55,0,0,0,66.4,66.4Z"/><path class="cls-3" d="M40.3,33.1H59.6"/><path class="cls-3" d="M52,65.9H48a.43.43,0,0,1-.4-.4V63.3a.43.43,0,0,1,.4-.4h4a.43.43,0,0,1,.4.4v2.2A.43.43,0,0,1,52,65.9Z"/><circle class="cls-3" cx="50" cy="48.4" r="9.7"/><path class="cls-3" d="M50,38.8a11.84,11.84,0,0,0-4.8,9.7A12.12,12.12,0,0,0,50,58.2"/><path class="cls-3" d="M50.2,58.1A11.84,11.84,0,0,0,55,48.4a12.12,12.12,0,0,0-4.8-9.7"/><line class="cls-3" x1="50" y1="38.8" x2="50" y2="58.1"/><line class="cls-3" x1="40.3" y1="48.4" x2="59.6" y2="48.4"/></g></g></svg>