<svg xmlns="http://www.w3.org/2000/svg" viewBox="0 0 18.95 18.95"><defs><style>.cls-1{fill:#526069;}</style></defs><title>Ativo 9</title><g id="Camada_2" data-name="Camada 2"><g id="Camada_1-2" data-name="Camada 1"><path class="cls-1" d="M18.94,15.56a1.51,1.51,0,0,0-.74-1.12l-4.65-2.67a1.53,1.53,0,0,0-1.83.24l-.91.91A.6.6,0,0,1,10,13a26.6,26.6,0,0,1-2.11-1.9A24.84,24.84,0,0,1,6,9a.62.62,0,0,1,0-.82L7,7.23a1.51,1.51,0,0,0,.24-1.82L4.51.76A1.51,1.51,0,0,0,2.13.44L.75,1.82c-1,1-1,2.77-.06,5a22.24,22.24,0,0,0,4.74,6.69,21.87,21.87,0,0,0,6.68,4.73,7.8,7.8,0,0,0,2.94.69h0a2.82,2.82,0,0,0,2.08-.75l1.38-1.37A1.5,1.5,0,0,0,18.94,15.56ZM2.77.85A.83.83,0,0,1,3.3.73a.78.78,0,0,1,.58.39L6.56,5.77a.77.77,0,0,1-.13,1l-.17.18Zm9.62,16.74A21.13,21.13,0,0,1,5.94,13,21.15,21.15,0,0,1,1.36,6.57C.55,4.62.51,3.08,1.26,2.33l1-1L5.72,7.43l-.2.2a1.34,1.34,0,0,0-.1,1.79,28.07,28.07,0,0,0,2,2.17,26.08,26.08,0,0,0,2.16,1.94,1.35,1.35,0,0,0,1.79-.09l.19-.19,6.08,3.47-1,1C15.87,18.44,14.33,18.4,12.39,17.59Zm5.83-1.94a.7.7,0,0,1-.12.53L12,12.72l.2-.2a.79.79,0,0,1,.95-.12l4.64,2.67A.77.77,0,0,1,18.22,15.65Z"/></g></g></svg>