<svg xmlns="http://www.w3.org/2000/svg" viewBox="0 0 47.84 41.75"><defs><style>.cls-1,.cls-2,.cls-3{fill:none;}.cls-1,.cls-2{stroke:#76838f;stroke-linecap:round;stroke-linejoin:round;}.cls-2{fill-rule:evenodd;}</style></defs><title>pin</title><g id="Camada_2" data-name="Camada 2"><g id="Capa_1" data-name="Capa 1"><g id="_25---PIN-Code--Webby-" data-name=" 25---PIN-Code--Webby-"><rect id="Fill-243" class="cls-1" x="17.3" y="9.52" width="13.24" height="10.59"/><rect id="Stroke-244" class="cls-1" x="17.3" y="9.52" width="13.24" height="10.59"/><path id="Stroke-245" class="cls-1" d="M20,9.52V6.44a4,4,0,1,1,7.94,0V9.52Z"/><path id="Fill-495" class="cls-2" d="M38.5,39.29H9.34a7.68,7.68,0,0,1,0-15.35H38.5a7.68,7.68,0,0,1,0,15.35Z"/><path id="Stroke-496" class="cls-1" d="M38.5,39.29H9.34a7.68,7.68,0,0,1,0-15.35H38.5a7.68,7.68,0,0,1,0,15.35Z"/><path id="Path" class="cls-1" d="M10.11,27.78v3.84"/><path id="Path1" class="cls-1" d="M10.11,31.62l3.07-1.54"/><path id="Path2" class="cls-1" d="M10.11,31.62,7,30.08"/><path id="Path3" class="cls-1" d="M10.11,31.62l-2.3,3.07"/><path id="Path4" class="cls-1" d="M10.11,31.62l2.3,3.07"/><path id="Path5" class="cls-1" d="M19.32,27.78v3.84"/><path id="Path6" class="cls-1" d="M19.32,31.62l3.07-1.54"/><path id="Path7" class="cls-1" d="M19.32,31.62l-3.07-1.54"/><path id="Path8" class="cls-1" d="M19.32,31.62,17,34.69"/><path id="Path9" class="cls-1" d="M19.32,31.62l2.3,3.07"/><path id="Path10" class="cls-1" d="M28.52,27.78v3.84"/><path id="Path11" class="cls-1" d="M28.52,31.62l3.07-1.54"/><path id="Path12" class="cls-1" d="M28.52,31.62l-3.07-1.54"/><path id="Path13" class="cls-1" d="M28.52,31.62l-2.3,3.07"/><path id="Path14" class="cls-1" d="M28.52,31.62l2.3,3.07"/><path id="Path15" class="cls-1" d="M37.73,27.78v3.84"/><path id="Path16" class="cls-1" d="M37.73,31.62l3.07-1.54"/><path id="Path17" class="cls-1" d="M37.73,31.62l-3.07-1.54"/><path id="Path18" class="cls-1" d="M37.73,31.62l-2.3,3.07"/><path id="Path19" class="cls-1" d="M37.73,31.62,40,34.69"/></g><rect class="cls-3" width="47.84" height="41.75"/></g></g></svg>