<?xml version="1.0" encoding="UTF-8" standalone="no"?>
<svg
   xmlns:dc="http://purl.org/dc/elements/1.1/"
   xmlns:cc="http://creativecommons.org/ns#"
   xmlns:rdf="http://www.w3.org/1999/02/22-rdf-syntax-ns#"
   xmlns:svg="http://www.w3.org/2000/svg"
   xmlns="http://www.w3.org/2000/svg"
   xmlns:sodipodi="http://sodipodi.sourceforge.net/DTD/sodipodi-0.dtd"
   xmlns:inkscape="http://www.inkscape.org/namespaces/inkscape"
   height="52px"
   version="1.1"
   width="53px"
   id="svg4"
   sodipodi:docname="schedule_empty.svg"
   inkscape:version="0.92.3 (2405546, 2018-03-11)">
  <metadata
     id="metadata10">
    <rdf:RDF>
      <cc:Work
         rdf:about="">
        <dc:format>image/svg+xml</dc:format>
        <dc:type
           rdf:resource="http://purl.org/dc/dcmitype/StillImage" />
      </cc:Work>
    </rdf:RDF>
  </metadata>
  <defs
     id="defs8">
    <style
       id="style817">.cls-1,.cls-2{fill:none;}.cls-1{stroke:#76838f;stroke-linecap:round;stroke-linejoin:round;}</style>
  </defs>
  <sodipodi:namedview
     pagecolor="#ffffff"
     bordercolor="#666666"
     borderopacity="1"
     objecttolerance="10"
     gridtolerance="10"
     guidetolerance="10"
     inkscape:pageopacity="0"
     inkscape:pageshadow="2"
     inkscape:window-width="2560"
     inkscape:window-height="1025"
     id="namedview6"
     showgrid="false"
     inkscape:zoom="4.5384615"
     inkscape:cx="26.5"
     inkscape:cy="26"
     inkscape:window-x="0"
     inkscape:window-y="27"
     inkscape:window-maximized="1"
     inkscape:current-layer="svg4" />
  <path
     d="M26.002,52 C11.665,52 0.00099999999998,40.336 0.00099999999998,26 C0.00099999999998,11.664 11.665,0 26.002,0 C40.338,0 52.002,11.664 52.002,26 C52.002,40.336 40.338,52 26.002,52 ZM26.002,2 C12.768,2 2.00099999999998,12.767 2.00099999999998,26 C2.00099999999998,39.233 12.768,50 26.002,50 C39.235,50 50.002,39.233 50.002,26 C50.002,12.767 39.235,2 26.002,2 ZM26.002,48 C13.871,48 4.00099999999998,38.131 4.00099999999998,26 C4.00099999999998,13.869 13.871,4 26.002,4 C38.133,4 48.002,13.869 48.002,26 C48.002,38.131 38.133,48 26.002,48 ZM26.002,6 C14.974,6 6.00099999999998,14.972 6.00099999999998,26 C6.00099999999998,37.028 14.974,46 26.002,46 C37.029,46 46.002,37.028 46.002,26 C46.002,14.972 37.029,6 26.002,6 ZM43.712,26.71 C43.522,26.89 43.261,27 43.002,27 C42.741,27 42.482,26.89 42.292,26.71 C42.112,26.52 42.002,26.26 42.002,26 C42.002,25.74 42.112,25.48 42.292,25.29 C42.671,24.92 43.331,24.92 43.712,25.29 C43.891,25.48 44.002,25.74 44.002,26 C44.002,26.26 43.891,26.52 43.712,26.71 ZM26.002,29 C24.699,29 23.6,28.161 23.186,27 C23.186,27 15.001,27 15.001,27 C14.449,27 14.001,26.552 14.001,26 C14.001,25.448 14.449,25 15.001,25 C15.001,25 23.186,25 23.186,25 C23.49,24.157 24.155,23.486 25.002,23.184 C25.002,23.184 25.002,14 25.002,14 C25.002,13.448 25.449,13 26.002,13 C26.554,13 27.001,13.448 27.001,14 C27.001,14 27.001,23.184 27.001,23.184 C28.163,23.598 29.001,24.698 29.001,26 C29.001,27.654 27.656,29 26.002,29 ZM26.002,25 C25.45,25 25.002,25.449 25.002,26 C25.002,26.551 25.45,27 26.002,27 C26.553,27 27.001,26.551 27.001,26 C27.001,25.449 26.553,25 26.002,25 ZM26.002,10 C25.741,10 25.482,9.88999999999999 25.292,9.70999999999998 C25.111,9.51999999999998 25.002,9.25999999999999 25.002,9 C25.002,8.74000000000001 25.111,8.48000000000002 25.292,8.29000000000002 C25.672,7.92000000000002 26.331,7.92000000000002 26.712,8.29000000000002 C26.891,8.48000000000002 27.001,8.74000000000001 27.001,9 C27.001,9.25999999999999 26.891,9.51999999999998 26.712,9.70999999999998 C26.521,9.88999999999999 26.261,10 26.002,10 ZM26.712,42.29 C26.891,42.48 27.001,42.74 27.001,43 C27.001,43.27 26.891,43.52 26.712,43.71 C26.521,43.89 26.261,44 26.002,44 C25.741,44 25.482,43.89 25.292,43.71 C25.111,43.52 25.002,43.26 25.002,43 C25.002,42.74 25.111,42.48 25.292,42.29 C25.672,41.92 26.331,41.92 26.712,42.29 ZM9.00099999999998,27 C8.74099999999999,27 8.48099999999999,26.89 8.291,26.71 C8.11099999999999,26.52 8.00099999999998,26.27 8.00099999999998,26 C8.00099999999998,25.73 8.11099999999999,25.48 8.291,25.29 C8.67099999999999,24.92 9.33100000000002,24.92 9.71100000000001,25.29 C9.89100000000002,25.48 10.002,25.74 10.002,26 C10.002,26.26 9.89100000000002,26.52 9.71100000000001,26.71 C9.52199999999999,26.89 9.26100000000002,27 9.00099999999998,27 Z "
     id="path2"
     fill="rgb( 80, 80, 112 )"
     style="fill:#76838f;fill-opacity:1" />
</svg>
