<svg xmlns="http://www.w3.org/2000/svg" viewBox="0 0 116.75 109.64"><defs><style>.cls-1,.cls-2,.cls-4,.cls-5,.cls-6{fill:none;}.cls-1,.cls-4,.cls-5{stroke:#e2e2e2;stroke-miterlimit:10;}.cls-1{stroke-dasharray:4;}.cls-2{stroke:#76838f;stroke-linecap:round;stroke-linejoin:round;}.cls-3{fill:#e2e2e2;}.cls-5{stroke-width:0.64px;}</style></defs><title>search-users</title><g id="Camada_2" data-name="Camada 2"><g id="Capa_1" data-name="Capa 1"><path class="cls-1" d="M83.47,94.36S43,120.41,26.78,95.85c-9.84-14.88,3.58-31,3.58-31"/><path class="cls-1" d="M70.1,45.32s20.78-1.17,22.6-10.43c1.35-6.85-4.48-12.37-7.6-14.77"/><path class="cls-2" d="M63.14,40.19A18.68,18.68,0,0,0,30.9,56.9"/><path class="cls-2" d="M67.67,53.26c0-.29,0-.57,0-.86A18.57,18.57,0,0,0,64.5,42"/><path class="cls-2" d="M33.71,63.08a18.66,18.66,0,0,0,33.74-7.72"/><circle class="cls-2" cx="49.02" cy="52.4" r="22.24"/><rect class="cls-2" x="64.77" y="73.95" width="14.52" height="3.48" rx="1.74" transform="translate(-32.42 73.1) rotate(-45)"/><path class="cls-2" d="M80.52,71.79H90.74a0,0,0,0,1,0,0v29.89a5.11,5.11,0,0,1-5.11,5.11h0a5.11,5.11,0,0,1-5.11-5.11V71.79A0,0,0,0,1,80.52,71.79Z" transform="translate(-38.06 86.7) rotate(-45)"/><polyline class="cls-2" points="63.36 69.41 69.6 75.65 71.99 73.26 65.77 67.04"/><polygon class="cls-3" points="77.42 29.44 73.96 34.89 70.5 29.44 77.42 29.44"/><line class="cls-4" x1="33.89" y1="15.35" x2="33.89" y2="24.81"/><line class="cls-4" x1="29.16" y1="20.08" x2="38.61" y2="20.08"/><circle class="cls-3" cx="14.26" cy="51.34" r="3.26"/><circle class="cls-5" cx="43.37" cy="83.26" r="2.1"/><circle class="cls-3" cx="83.47" cy="55.36" r="3.26"/><line class="cls-4" x1="52.87" y1="46.18" x2="38.13" y2="60.92"/><line class="cls-4" x1="60.24" y1="45.89" x2="52.73" y2="53.4"/><circle class="cls-2" cx="75.56" cy="15.35" r="10.69"/><circle class="cls-2" cx="75.56" cy="11.91" r="3.44"/><path class="cls-2" d="M84,21.87a10.68,10.68,0,0,0-16.92,0"/><rect class="cls-6" width="116.75" height="109.64"/></g></g></svg>