<svg xmlns="http://www.w3.org/2000/svg" viewBox="0 0 20 20"><defs><style>.cls-1{fill:none;}.cls-2{fill:#ccd5db;}</style></defs><title>confirm-telephone</title><g id="Camada_2" data-name="Camada 2"><g id="Camada_1-2" data-name="Camada 1"><rect class="cls-1" width="20" height="20"/><path class="cls-2" d="M19.54,15.8l-3.09-3.09a1.6,1.6,0,0,0-2.26,0l-1.56,1.55-.3-.17a15.5,15.5,0,0,1-3.74-2.7A15.44,15.44,0,0,1,5.88,7.69l-.17-.3,1-1,.51-.51a1.62,1.62,0,0,0,0-2.27L4.23.49A1.6,1.6,0,0,0,2,.53l-.87.87,0,0A5,5,0,0,0,.4,2.69,5.22,5.22,0,0,0,.08,4C-.33,7.35,1.21,10.43,5.4,14.62,11.19,20.4,15.85,20,16.05,20a5.44,5.44,0,0,0,1.29-.33,4.72,4.72,0,0,0,1.26-.71v0l.89-.86a1.62,1.62,0,0,0,0-2.27Z"/></g></g></svg>