<svg xmlns="http://www.w3.org/2000/svg" viewBox="0 0 20 20"><defs><style>.cls-1{fill:none;}.cls-2{fill:#ccd5db;}</style></defs><title>privacy-settings</title><g id="Camada_2" data-name="Camada 2"><g id="Camada_1-2" data-name="Camada 1"><rect class="cls-1" width="20" height="20"/><path class="cls-2" d="M15.26,8.69V6.06a5.26,5.26,0,0,0-10.52,0V8.69a2.62,2.62,0,0,0-2.63,2.62v5.26A2.63,2.63,0,0,0,4.74,19.2H15.26a2.63,2.63,0,0,0,2.63-2.63V11.31A2.62,2.62,0,0,0,15.26,8.69ZM10,15.26a1.32,1.32,0,1,1,1.31-1.32A1.31,1.31,0,0,1,10,15.26Zm2.63-6.57H7.37V6.06a2.63,2.63,0,0,1,5.26,0Z"/></g></g></svg>