<svg xmlns="http://www.w3.org/2000/svg" viewBox="0 0 314.39 52.67"><defs><style>.cls-1{fill:none;stroke:#ccd5db;stroke-linecap:round;stroke-miterlimit:10;}</style></defs><title>transaction-arrow</title><g id="Camada_2" data-name="Camada 2"><g id="Camada_1-2" data-name="Camada 1"><path class="cls-1" d="M.5.5,19,22.21a6.35,6.35,0,0,1,0,8.25L.5,52.17"/><line class="cls-1" x1="4.72" y1="43.69" x2="1.05" y2="48.01"/><line class="cls-1" x1="14.3" y1="32.44" x2="6.62" y2="41.46"/><line class="cls-1" x1="1.96" y1="5.73" x2="14" y2="19.87"/><path class="cls-1" d="M23.23.5,41.69,22.21a6.35,6.35,0,0,1,0,8.25L23.23,52.17"/><line class="cls-1" x1="27.45" y1="43.69" x2="23.78" y2="48.01"/><line class="cls-1" x1="37.03" y1="32.44" x2="29.35" y2="41.46"/><line class="cls-1" x1="24.69" y1="5.73" x2="36.72" y2="19.87"/><path class="cls-1" d="M46,.5,64.42,22.21a6.37,6.37,0,0,1,0,8.25L46,52.17"/><line class="cls-1" x1="50.18" y1="43.69" x2="46.51" y2="48.01"/><line class="cls-1" x1="59.76" y1="32.44" x2="52.08" y2="41.46"/><line class="cls-1" x1="47.42" y1="5.73" x2="59.45" y2="19.87"/><path class="cls-1" d="M248.45.5l18.47,21.71a6.37,6.37,0,0,1,0,8.25L248.45,52.17"/><line class="cls-1" x1="252.67" y1="43.69" x2="249" y2="48.01"/><line class="cls-1" x1="262.25" y1="32.44" x2="254.58" y2="41.46"/><line class="cls-1" x1="249.92" y1="5.73" x2="261.95" y2="19.87"/><path class="cls-1" d="M271.18.5l18.47,21.71a6.37,6.37,0,0,1,0,8.25L271.18,52.17"/><line class="cls-1" x1="275.4" y1="43.69" x2="271.73" y2="48.01"/><line class="cls-1" x1="284.98" y1="32.44" x2="277.31" y2="41.46"/><line class="cls-1" x1="272.65" y1="5.73" x2="284.68" y2="19.87"/><path class="cls-1" d="M293.91.5l18.46,21.71a6.35,6.35,0,0,1,0,8.25L293.91,52.17"/><line class="cls-1" x1="298.13" y1="43.69" x2="294.46" y2="48.01"/><line class="cls-1" x1="307.71" y1="32.44" x2="300.03" y2="41.46"/><line class="cls-1" x1="295.37" y1="5.73" x2="307.41" y2="19.87"/></g></g></svg>