<svg xmlns="http://www.w3.org/2000/svg" viewBox="0 0 360.71 200.84"><defs><style>.cls-1{fill:#fff;}.cls-2,.cls-4,.cls-5{fill:none;}.cls-2,.cls-4{stroke:#ccd5db;stroke-miterlimit:10;}.cls-2,.cls-5{stroke-linecap:round;}.cls-3{fill:#49c966;}.cls-5{stroke:#fff;stroke-linejoin:round;stroke-width:1.5px;}</style></defs><title>btc_cash_wallet</title><g id="Camada_2" data-name="Camada 2"><g id="Camada_1-2" data-name="Camada 1"><path class="cls-1" d="M344.17,190.17v5a5.36,5.36,0,0,1-5.35,5.35H21.42A21.22,21.22,0,0,1,.21,179.28V8h0A7.52,7.52,0,0,1,7.73.5H352.57a5.35,5.35,0,0,1,5.35,5.35v82.6h.51a1.78,1.78,0,0,1,1.78,1.79v36.2a1.77,1.77,0,0,1-1.78,1.78h-.51v56.6a5.34,5.34,0,0,1-5.35,5.35Z"/><line class="cls-2" x1="10.81" y1="44.82" x2="10.81" y2="97.55"/><line class="cls-2" x1="10.81" y1="121.25" x2="10.81" y2="141.88"/><line class="cls-2" x1="143.38" y1="190.02" x2="209.8" y2="190.02"/><line class="cls-2" x1="233.47" y1="190.02" x2="247.98" y2="190.02"/><line class="cls-2" x1="263.25" y1="190.02" x2="287.68" y2="190.02"/><line class="cls-2" x1="334.26" y1="77.69" x2="334.26" y2="46.35"/><path class="cls-2" d="M327.52,88.38h30.91a1.78,1.78,0,0,1,1.78,1.79v36.17a1.77,1.77,0,0,1-1.78,1.78H306.21a5.7,5.7,0,0,1-4-1.67l-8.07-8.07a15.41,15.41,0,0,1,0-21.78l6.54-6.54a5.71,5.71,0,0,1,4-1.68h12.91"/><ellipse class="cls-2" cx="322.17" cy="109.02" rx="7.64" ry="7.64"/><path class="cls-2" d="M344.18,190h8.4a5.34,5.34,0,0,0,5.34-5.34V128.12"/><path class="cls-2" d="M344.18,128.12V195a5.34,5.34,0,0,1-5.34,5.35H21.69A21.2,21.2,0,0,1,.5,179.13V8"/><path class="cls-2" d="M357.92,88.38V5.85A5.35,5.35,0,0,0,352.58.5H8A7.51,7.51,0,0,0,.5,8h0a4.33,4.33,0,0,0,4.33,4.34h334a5.34,5.34,0,0,1,5.34,5.34V88.38"/><path class="cls-3" d="M318.16,58,303.2,48,288.23,58a2.06,2.06,0,0,1-3.2-1.71V.5h36.34V56.32A2.06,2.06,0,0,1,318.16,58Z"/><path class="cls-4" d="M318.16,58,303.2,48,288.23,58a2.06,2.06,0,0,1-3.2-1.71V.5h36.34V56.32A2.06,2.06,0,0,1,318.16,58Z"/><path class="cls-5" d="M294.38,18.53l8.26-2.48a4,4,0,0,1,5,2.67h0a4,4,0,0,1-2.67,5l-6.61,2"/><path class="cls-5" d="M304.94,23.68l1-.29a4.73,4.73,0,0,1,5.89,3.17h0a4.73,4.73,0,0,1-3.16,5.89l-9.24,2.78"/><line class="cls-5" x1="301.05" y1="34.73" x2="296.03" y2="18.04"/><line class="cls-5" x1="298.14" y1="15.16" x2="298.76" y2="17.22"/><line class="cls-5" x1="300.44" y1="14.44" x2="301.06" y2="16.5"/><line class="cls-5" x1="307.02" y1="35.17" x2="306.4" y2="33.12"/><line class="cls-5" x1="304.71" y1="35.89" x2="304.09" y2="33.84"/></g></g></svg>