<svg xmlns="http://www.w3.org/2000/svg" viewBox="0 0 360.71 200.84"><defs><style>.cls-1{fill:#fff;}.cls-2,.cls-4{fill:none;stroke-linecap:round;}.cls-2,.cls-3{stroke:#ccd5db;stroke-miterlimit:10;}.cls-3{fill:#008de4;}.cls-4{stroke:#fff;stroke-linejoin:round;stroke-width:1.5px;}</style></defs><title>dash_new_wallet</title><g id="Camada_2" data-name="Camada 2"><g id="Camada_1-2" data-name="Camada 1"><path class="cls-1" d="M344.17,190.17v5a5.36,5.36,0,0,1-5.35,5.35H21.42A21.22,21.22,0,0,1,.21,179.28V8h0A7.52,7.52,0,0,1,7.73.5H352.57a5.35,5.35,0,0,1,5.35,5.35v82.6h.51a1.78,1.78,0,0,1,1.78,1.79v36.2a1.77,1.77,0,0,1-1.78,1.78h-.51v56.6a5.34,5.34,0,0,1-5.35,5.35Z"/><line class="cls-2" x1="10.81" y1="44.82" x2="10.81" y2="97.55"/><line class="cls-2" x1="10.81" y1="121.25" x2="10.81" y2="141.88"/><line class="cls-2" x1="143.38" y1="190.02" x2="209.8" y2="190.02"/><line class="cls-2" x1="233.47" y1="190.02" x2="247.98" y2="190.02"/><line class="cls-2" x1="263.25" y1="190.02" x2="287.68" y2="190.02"/><line class="cls-2" x1="334.26" y1="77.69" x2="334.26" y2="46.35"/><path class="cls-2" d="M327.52,88.38h30.91a1.78,1.78,0,0,1,1.78,1.79v36.17a1.77,1.77,0,0,1-1.78,1.78H306.21a5.7,5.7,0,0,1-4-1.67l-8.07-8.07a15.41,15.41,0,0,1,0-21.78l6.54-6.54a5.71,5.71,0,0,1,4-1.68h12.91"/><ellipse class="cls-2" cx="322.17" cy="109.02" rx="7.64" ry="7.64"/><path class="cls-2" d="M344.18,190h8.4a5.34,5.34,0,0,0,5.34-5.34V128.12"/><path class="cls-2" d="M344.18,128.12V195a5.34,5.34,0,0,1-5.34,5.35H21.69A21.2,21.2,0,0,1,.5,179.13V8"/><path class="cls-2" d="M357.92,88.38V5.85A5.35,5.35,0,0,0,352.58.5H8A7.51,7.51,0,0,0,.5,8h0a4.33,4.33,0,0,0,4.33,4.34h334a5.34,5.34,0,0,1,5.34,5.34V88.38"/><path class="cls-3" d="M318.16,58,303.2,48,288.23,58a2.06,2.06,0,0,1-3.2-1.71V.5h36.34V56.32A2.06,2.06,0,0,1,318.16,58Z"/><path class="cls-4" d="M306.55,16.39h-7.87L298,20h7.1c3.5,0,4.53,1.27,4.5,3.38a15.16,15.16,0,0,1-.68,3.5c-.54,1.57-1.65,3.37-5.8,3.37h-6.91l-.65,3.65h7.85a10.9,10.9,0,0,0,5.2-.9c2.77-1.27,4.41-4,5.07-7.57C314.69,20.17,313.47,16.39,306.55,16.39Z"/><path class="cls-4" d="M295.28,23.34a2.31,2.31,0,0,0-2.55,2.15c-.26,1.07-.34,1.5-.34,1.5h8.06A2.32,2.32,0,0,0,303,24.83c.26-1.06.34-1.49.34-1.49Z"/></g></g></svg>