<svg xmlns="http://www.w3.org/2000/svg" viewBox="0 0 47.84 41.75"><defs><style>.cls-1,.cls-2{fill:none;}.cls-1{stroke:#76838f;stroke-linecap:round;stroke-linejoin:round;}</style></defs><title>wallet</title><g id="Camada_2" data-name="Camada 2"><g id="Capa_1" data-name="Capa 1"><path class="cls-1" d="M40.34,26.22v6.65a2.92,2.92,0,0,1-2.92,2.92H8.71a2.91,2.91,0,0,1-2.92-2.92v-24A2.92,2.92,0,0,1,8.71,6H37.42a2.92,2.92,0,0,1,2.92,2.92h0V11.8"/><path class="cls-1" d="M9.65,8.88H37.42a2.92,2.92,0,0,1,2.92,2.92v4.9"/><path class="cls-1" d="M33.74,16.7H41a1,1,0,0,1,1,1V25.2a1,1,0,0,1-1,1h-7.3A4.76,4.76,0,0,1,29,21.46v0a4.76,4.76,0,0,1,4.76-4.76Z"/><circle class="cls-1" cx="33.82" cy="21.46" r="1.37"/><rect class="cls-2" width="47.84" height="41.75"/></g></g></svg>