<svg xmlns="http://www.w3.org/2000/svg" viewBox="0 0 360.71 200.84"><defs><style>.cls-1{fill:#fff;}.cls-2{fill:#e8ecef;}.cls-3{fill:none;stroke:#ccd5db;stroke-linecap:round;stroke-miterlimit:10;}</style></defs><title>wallet-business</title><g id="Camada_2" data-name="Camada 2"><g id="Camada_1-2" data-name="Camada 1"><path class="cls-1" d="M344.17,190.17v5a5.36,5.36,0,0,1-5.35,5.35H21.42A21.22,21.22,0,0,1,.21,179.28V8h0A7.52,7.52,0,0,1,7.73.5H352.57a5.35,5.35,0,0,1,5.35,5.35v82.6h.51a1.78,1.78,0,0,1,1.78,1.79v36.2a1.77,1.77,0,0,1-1.78,1.78h-.51v56.6a5.34,5.34,0,0,1-5.35,5.35Z"/><path class="cls-2" d="M40.75,195.37a2.44,2.44,0,0,0,2.44-2.44V188a2.45,2.45,0,0,0-4.89,0v4.89A2.45,2.45,0,0,0,40.75,195.37Z"/><path class="cls-2" d="M50.52,166.06A2.44,2.44,0,0,0,53,163.62v-4.89a2.45,2.45,0,0,0-4.89,0v4.89A2.45,2.45,0,0,0,50.52,166.06Z"/><path class="cls-2" d="M40.75,180.72a2.45,2.45,0,0,0,2.44-2.45v-4.88a2.45,2.45,0,0,0-4.89,0v4.88A2.45,2.45,0,0,0,40.75,180.72Z"/><path class="cls-2" d="M50.52,180.72A2.45,2.45,0,0,0,53,178.27v-4.88a2.45,2.45,0,0,0-4.89,0v4.88A2.45,2.45,0,0,0,50.52,180.72Z"/><path class="cls-2" d="M31,166.06a2.44,2.44,0,0,0,2.44-2.44v-4.89a2.45,2.45,0,0,0-4.89,0v4.89A2.45,2.45,0,0,0,31,166.06Z"/><path class="cls-2" d="M40.75,166.06a2.44,2.44,0,0,0,2.44-2.44v-4.89a2.45,2.45,0,0,0-4.89,0v4.89A2.45,2.45,0,0,0,40.75,166.06Z"/><path class="cls-2" d="M50.52,127a2.45,2.45,0,0,0-2.45,2.44v4.89a2.45,2.45,0,0,0,4.89,0v-4.89A2.44,2.44,0,0,0,50.52,127Z"/><path class="cls-2" d="M31,180.72a2.45,2.45,0,0,0,2.44-2.45v-4.88a2.45,2.45,0,0,0-4.89,0v4.88A2.45,2.45,0,0,0,31,180.72Z"/><path class="cls-2" d="M60.29,127a2.44,2.44,0,0,0-2.44,2.44v4.89a2.44,2.44,0,0,0,4.88,0v-4.89A2.44,2.44,0,0,0,60.29,127Z"/><path class="cls-2" d="M31,195.37a2.44,2.44,0,0,0,2.44-2.44V188a2.45,2.45,0,0,0-4.89,0v4.89A2.45,2.45,0,0,0,31,195.37Z"/><path class="cls-2" d="M79.83,185.6A2.44,2.44,0,0,0,77.39,188v4.89a2.44,2.44,0,0,0,4.88,0V188A2.44,2.44,0,0,0,79.83,185.6Z"/><path class="cls-2" d="M90.46,163.77,72.5,157V109.88a2.44,2.44,0,1,0-4.88,0v3l-27.47,6.86a2.45,2.45,0,0,0-1.85,2.37v12.22a2.45,2.45,0,0,0,4.89,0V124l24.43-6.11v40.84A2.45,2.45,0,0,0,69.2,161l18,6.73v25.18a2.44,2.44,0,0,0,4.88,0V166.06A2.45,2.45,0,0,0,90.46,163.77Z"/><path class="cls-2" d="M79.83,171a2.44,2.44,0,0,0-2.44,2.44v4.88a2.44,2.44,0,1,0,4.88,0v-4.88A2.44,2.44,0,0,0,79.83,171Z"/><path class="cls-2" d="M70.06,171a2.44,2.44,0,0,0-2.44,2.44v4.88a2.44,2.44,0,1,0,4.88,0v-4.88A2.44,2.44,0,0,0,70.06,171Z"/><path class="cls-2" d="M70.06,185.6A2.44,2.44,0,0,0,67.62,188v4.89a2.44,2.44,0,0,0,4.88,0V188A2.44,2.44,0,0,0,70.06,185.6Z"/><path class="cls-2" d="M50.52,195.37A2.44,2.44,0,0,0,53,192.93V188a2.45,2.45,0,0,0-4.89,0v4.89A2.45,2.45,0,0,0,50.52,195.37Z"/><path class="cls-2" d="M62.73,149a2.44,2.44,0,0,0-1.85-2.37L21.8,136.82a2.45,2.45,0,0,0-3,2.37v53.74a2.45,2.45,0,0,0,4.89,0V142.32l34.19,8.55v49.47h4.89Z"/><path class="cls-2" d="M4.11,149v-4.89a2.45,2.45,0,0,0-2.45-2.44,2.46,2.46,0,0,0-1.45.49v8.8a2.45,2.45,0,0,0,3.9-2Z"/><path class="cls-2" d="M4.11,134.31v-4.89a2.45,2.45,0,0,0-3.9-2v8.8a2.46,2.46,0,0,0,1.45.49A2.45,2.45,0,0,0,4.11,134.31Z"/><path class="cls-2" d="M4.11,119.65v-4.89a2.45,2.45,0,0,0-2.45-2.44,2.39,2.39,0,0,0-1.45.49v8.8a2.45,2.45,0,0,0,3.9-2Z"/><path class="cls-2" d="M1.66,185.6a3,3,0,0,0-.42,0,21.17,21.17,0,0,0,2.87,5.72V188A2.45,2.45,0,0,0,1.66,185.6Z"/><path class="cls-2" d="M11.43,156.29A2.44,2.44,0,0,0,9,158.73v4.89a2.45,2.45,0,0,0,4.89,0v-4.89A2.45,2.45,0,0,0,11.43,156.29Z"/><path class="cls-2" d="M11.43,141.63A2.45,2.45,0,0,0,9,144.07V149a2.45,2.45,0,0,0,4.89,0v-4.89A2.45,2.45,0,0,0,11.43,141.63Z"/><path class="cls-2" d="M11.43,171A2.44,2.44,0,0,0,9,173.39v4.88a2.45,2.45,0,1,0,4.89,0v-4.88A2.45,2.45,0,0,0,11.43,171Z"/><path class="cls-2" d="M11.43,185.6A2.45,2.45,0,0,0,9,188v4.89a2.45,2.45,0,0,0,4.89,0V188A2.45,2.45,0,0,0,11.43,185.6Z"/><path class="cls-2" d="M11.43,127A2.44,2.44,0,0,0,9,129.42v4.89a2.45,2.45,0,0,0,4.89,0v-4.89A2.45,2.45,0,0,0,11.43,127Z"/><path class="cls-2" d="M18.76,108.94v20.48a2.45,2.45,0,0,0,4.89,0v-22a2.45,2.45,0,0,0-1.35-2.18L9,98.6V95.22a2.44,2.44,0,0,0-4.88,0V98.6l-3.9,1.94V106l6.34-3.16Z"/><path class="cls-2" d="M4.11,178.27v-4.88a2.45,2.45,0,0,0-3.9-2v7.7c0,.39,0,.77.06,1.15a2.49,2.49,0,0,0,1.39.44A2.45,2.45,0,0,0,4.11,178.27Z"/><path class="cls-2" d="M11.43,112.32A2.44,2.44,0,0,0,9,114.76v4.89a2.45,2.45,0,0,0,4.89,0v-4.89A2.45,2.45,0,0,0,11.43,112.32Z"/><path class="cls-2" d="M4.11,163.62v-4.89a2.45,2.45,0,0,0-3.9-2v8.8a2.39,2.39,0,0,0,1.45.49A2.45,2.45,0,0,0,4.11,163.62Z"/><line class="cls-3" x1="10.81" y1="44.82" x2="10.81" y2="97.55"/><line class="cls-3" x1="10.81" y1="121.25" x2="10.81" y2="141.88"/><line class="cls-3" x1="143.38" y1="190.02" x2="209.8" y2="190.02"/><line class="cls-3" x1="233.47" y1="190.02" x2="247.98" y2="190.02"/><line class="cls-3" x1="263.25" y1="190.02" x2="287.68" y2="190.02"/><line class="cls-3" x1="334.26" y1="77.69" x2="334.26" y2="46.35"/><path class="cls-3" d="M327.52,88.38h30.91a1.78,1.78,0,0,1,1.78,1.79v36.17a1.77,1.77,0,0,1-1.78,1.78H306.21a5.7,5.7,0,0,1-4-1.67l-8.07-8.07a15.41,15.41,0,0,1,0-21.78l6.54-6.54a5.71,5.71,0,0,1,4-1.68h12.91"/><ellipse class="cls-3" cx="322.17" cy="109.02" rx="7.64" ry="7.64"/><path class="cls-3" d="M344.18,190h8.4a5.34,5.34,0,0,0,5.34-5.34V128.12"/><path class="cls-3" d="M344.18,128.12V195a5.34,5.34,0,0,1-5.34,5.35H21.69A21.2,21.2,0,0,1,.5,179.13V8"/><path class="cls-3" d="M357.92,88.38V5.85A5.35,5.35,0,0,0,352.58.5H8A7.51,7.51,0,0,0,.5,8h0a4.33,4.33,0,0,0,4.33,4.34h334a5.34,5.34,0,0,1,5.34,5.34V88.38"/></g></g></svg>