<?xml version="1.0" encoding="UTF-8" standalone="no"?>
<!-- Created with Inkscape (http://www.inkscape.org/) -->

<svg
   xmlns:dc="http://purl.org/dc/elements/1.1/"
   xmlns:cc="http://creativecommons.org/ns#"
   xmlns:rdf="http://www.w3.org/1999/02/22-rdf-syntax-ns#"
   xmlns:svg="http://www.w3.org/2000/svg"
   xmlns="http://www.w3.org/2000/svg"
   xmlns:sodipodi="http://sodipodi.sourceforge.net/DTD/sodipodi-0.dtd"
   xmlns:inkscape="http://www.inkscape.org/namespaces/inkscape"
   width="83.777451mm"
   height="52.449768mm"
   viewBox="0 0 83.777451 52.449768"
   version="1.1"
   id="svg7166"
   inkscape:version="0.92.3 (2405546, 2018-03-11)"
   sodipodi:docname="wallet-tx.svg">
  <defs
     id="defs7160" />
  <sodipodi:namedview
     id="base"
     pagecolor="#ffffff"
     bordercolor="#666666"
     borderopacity="1.0"
     inkscape:pageopacity="0.0"
     inkscape:pageshadow="2"
     inkscape:zoom="0.7"
     inkscape:cx="-82.043684"
     inkscape:cy="48.151462"
     inkscape:document-units="mm"
     inkscape:current-layer="layer1"
     showgrid="false"
     fit-margin-top="0"
     fit-margin-left="0"
     fit-margin-right="0"
     fit-margin-bottom="0"
     inkscape:window-width="1368"
     inkscape:window-height="713"
     inkscape:window-x="0"
     inkscape:window-y="27"
     inkscape:window-maximized="1" />
  <metadata
     id="metadata7163">
    <rdf:RDF>
      <cc:Work
         rdf:about="">
        <dc:format>image/svg+xml</dc:format>
        <dc:type
           rdf:resource="http://purl.org/dc/dcmitype/StillImage" />
        <dc:title></dc:title>
      </cc:Work>
    </rdf:RDF>
  </metadata>
  <g
     inkscape:label="Layer 1"
     inkscape:groupmode="layer"
     id="layer1"
     transform="translate(-66.968416,-105.22154)">
    <g
       id="g160"
       transform="matrix(0.35277777,0,0,-0.35277777,71.980683,108.9043)">
      <path
         d="m 0,0 c 0,3.786 -3.069,6.854 -6.854,6.854 -3.786,0 -6.854,-3.068 -6.854,-6.854 0,-3.786 3.068,-6.854 6.854,-6.854 C -3.069,-6.854 0,-3.786 0,0 Z"
         style="fill:none;stroke:#a3afb7;stroke-width:1;stroke-linecap:round;stroke-linejoin:round;stroke-miterlimit:10;stroke-dasharray:none;stroke-opacity:1"
         id="path162"
         inkscape:connector-curvature="0" />
    </g>
    <g
       id="g164"
       transform="matrix(0.35277777,0,0,-0.35277777,150.56948,155.9118)">
      <path
         d="m 0,0 c 0,1.999 -1.621,3.62 -3.62,3.62 -1.999,0 -3.619,-1.621 -3.619,-3.62 0,-1.999 1.62,-3.62 3.619,-3.62 C -1.621,-3.62 0,-1.999 0,0 Z"
         style="fill:none;stroke:#a3afb7;stroke-width:1;stroke-linecap:round;stroke-linejoin:round;stroke-miterlimit:10;stroke-dasharray:none;stroke-opacity:1"
         id="path166"
         inkscape:connector-curvature="0" />
    </g>
    <g
       id="g168"
       transform="matrix(0.35277777,0,0,-0.35277777,145.98252,106.91805)">
      <path
         d="M 0,0 V 4.809"
         style="fill:none;stroke:#a3afb7;stroke-width:1;stroke-linecap:butt;stroke-linejoin:miter;stroke-miterlimit:10;stroke-dasharray:none;stroke-opacity:1"
         id="path170"
         inkscape:connector-curvature="0" />
    </g>
    <g
       id="g172"
       transform="matrix(0.35277777,0,0,-0.35277777,145.98252,111.1147)">
      <path
         d="M 0,0 V 4.809"
         style="fill:none;stroke:#a3afb7;stroke-width:1;stroke-linecap:butt;stroke-linejoin:miter;stroke-miterlimit:10;stroke-dasharray:none;stroke-opacity:1"
         id="path174"
         inkscape:connector-curvature="0" />
    </g>
    <g
       id="g176"
       transform="matrix(0.35277777,0,0,-0.35277777,144.73249,108.16809)">
      <path
         d="M 0,0 H -4.809"
         style="fill:none;stroke:#a3afb7;stroke-width:1;stroke-linecap:butt;stroke-linejoin:miter;stroke-miterlimit:10;stroke-dasharray:none;stroke-opacity:1"
         id="path178"
         inkscape:connector-curvature="0" />
    </g>
    <g
       id="g180"
       transform="matrix(0.35277777,0,0,-0.35277777,148.92928,108.16809)">
      <path
         d="M 0,0 H -4.809"
         style="fill:none;stroke:#a3afb7;stroke-width:1;stroke-linecap:butt;stroke-linejoin:miter;stroke-miterlimit:10;stroke-dasharray:none;stroke-opacity:1"
         id="path182"
         inkscape:connector-curvature="0" />
    </g>
    <g
       id="g200"
       transform="matrix(0.35277777,0,0,-0.35277777,137.92737,154.37407)">
      <path
         d="m 0,0 v -4.345 c -0.004,-2.566 -2.083,-4.645 -4.649,-4.65 h -149.283 c -10.184,0.005 -18.436,8.266 -18.431,18.45 v 0.008 106.491 c 0.009,3.603 2.932,6.518 6.534,6.518 H 7.3 c 2.568,0 4.649,-2.082 4.649,-4.649 V 70.956 h 0.444 c 0.854,0 1.546,-0.693 1.546,-1.547 V 69.4 37.941 c 0.005,-0.849 -0.68,-1.542 -1.529,-1.546 H 12.393 11.949 V 4.649 C 11.954,2.086 9.88,0.005 7.317,0 H 7.3 Z"
         style="fill:#ffffff;fill-opacity:1;fill-rule:nonzero;stroke:none"
         id="path202"
         inkscape:connector-curvature="0" />
    </g>
    <g
       id="g204"
       transform="matrix(0.35277777,0,0,-0.35277777,134.88932,126.04366)">
      <path
         d="M 0,0 V 21.615"
         style="fill:none;stroke:#a3afb7;stroke-width:1;stroke-linecap:round;stroke-linejoin:round;stroke-miterlimit:10;stroke-dasharray:none;stroke-opacity:1"
         id="path206"
         inkscape:connector-curvature="0" />
    </g>
    <g
       id="g208"
       transform="matrix(0.35277777,0,0,-0.35277777,132.82296,129.321)">
      <path
         d="m 0,0 h 26.862 c 0.854,0 1.547,-0.692 1.547,-1.547 v -0.008 -31.433 c 0.005,-0.849 -0.68,-1.542 -1.53,-1.547 h -0.017 -45.381 c -1.304,0.007 -2.554,0.529 -3.476,1.452 l -7.013,7.012 c -5.222,5.229 -5.222,13.699 0,18.928 l 5.683,5.683 c 0.922,0.925 2.171,1.45 3.476,1.46 h 11.22"
         style="fill:none;stroke:#a3afb7;stroke-width:1;stroke-linecap:round;stroke-linejoin:round;stroke-miterlimit:10;stroke-dasharray:none;stroke-opacity:1"
         id="path210"
         inkscape:connector-curvature="0" />
    </g>
    <g
       id="g212"
       transform="matrix(0.35277777,0,0,-0.35277777,131.18289,133.30643)">
      <path
         d="m 0,0 c 3.667,0 6.639,-2.972 6.639,-6.639 0,-3.667 -2.972,-6.639 -6.639,-6.639 -3.667,0 -6.64,2.972 -6.64,6.639 C -6.64,-2.972 -3.667,0 0,0 Z"
         style="fill:none;stroke:#a3afb7;stroke-width:1;stroke-linecap:round;stroke-linejoin:round;stroke-miterlimit:10;stroke-dasharray:none;stroke-opacity:1"
         id="path214"
         inkscape:connector-curvature="0" />
    </g>
    <g
       id="g216"
       transform="matrix(0.35277777,0,0,-0.35277777,137.93048,154.32204)">
      <path
         d="m 0,0 h 7.3 c 2.563,0 4.64,2.078 4.64,4.641 v 31.693"
         style="fill:none;stroke:#a3afb7;stroke-width:1;stroke-linecap:round;stroke-linejoin:round;stroke-miterlimit:10;stroke-dasharray:none;stroke-opacity:1"
         id="path218"
         inkscape:connector-curvature="0" />
    </g>
    <g
       id="g220"
       transform="matrix(0.35277777,0,0,-0.35277777,137.93048,141.50421)">
      <path
         d="m 0,0 v -40.679 c 0.005,-2.563 -2.069,-4.644 -4.632,-4.649 h -0.009 -149.065 c -10.174,0.005 -18.419,8.257 -18.414,18.432 v 0.008 106.361"
         style="fill:none;stroke:#a3afb7;stroke-width:1;stroke-linecap:round;stroke-linejoin:round;stroke-miterlimit:10;stroke-dasharray:none;stroke-opacity:1"
         id="path222"
         inkscape:connector-curvature="0" />
    </g>
    <g
       id="g224"
       transform="matrix(0.35277777,0,0,-0.35277777,142.14278,129.321)">
      <path
         d="m 0,0 v 46.806 c 0,2.564 -2.076,4.645 -4.641,4.649 h -172.627 c -3.597,-0.004 -6.513,-2.92 -6.518,-6.517 -0.004,-2.079 1.677,-3.767 3.755,-3.772 h 0.009 163.432 c 2.563,0 4.641,-2.078 4.641,-4.641 V 0"
         style="fill:none;stroke:#a3afb7;stroke-width:1;stroke-linecap:round;stroke-linejoin:round;stroke-miterlimit:10;stroke-dasharray:none;stroke-opacity:1"
         id="path226"
         inkscape:connector-curvature="0" />
    </g>
    <g
       id="g228"
       transform="matrix(0.35277777,0,0,-0.35277777,94.419077,130.87008)">
      <path
         d="M 0,0 C 1.728,0 3.127,1.4 3.127,3.127 3.127,4.854 1.728,6.255 0,6.255 -1.727,6.255 -3.127,4.854 -3.127,3.127 -3.127,1.4 -1.727,0 0,0 Z"
         style="fill:none;stroke:#a3afb7;stroke-width:1;stroke-linecap:butt;stroke-linejoin:miter;stroke-miterlimit:10;stroke-dasharray:none;stroke-opacity:1"
         id="path230"
         inkscape:connector-curvature="0" />
    </g>
    <g
       id="g232"
       transform="matrix(0.35277777,0,0,-0.35277777,98.94183,141.76382)">
      <path
         d="m 0,0 c 1.727,0 3.127,1.4 3.127,3.127 0,1.728 -1.4,3.128 -3.127,3.128 -1.728,0 -3.127,-1.4 -3.127,-3.128 C -3.127,1.4 -1.728,0 0,0 Z"
         style="fill:none;stroke:#a3afb7;stroke-width:1;stroke-linecap:butt;stroke-linejoin:miter;stroke-miterlimit:10;stroke-dasharray:none;stroke-opacity:1"
         id="path234"
         inkscape:connector-curvature="0" />
    </g>
    <g
       id="g236"
       transform="matrix(0.35277777,0,0,-0.35277777,109.38888,126.49479)">
      <path
         d="M 0,0 C 1.728,0 3.127,1.4 3.127,3.127 3.127,4.854 1.728,6.255 0,6.255 -1.727,6.255 -3.127,4.854 -3.127,3.127 -3.127,1.4 -1.727,0 0,0 Z"
         style="fill:none;stroke:#a3afb7;stroke-width:1;stroke-linecap:butt;stroke-linejoin:miter;stroke-miterlimit:10;stroke-dasharray:none;stroke-opacity:1"
         id="path238"
         inkscape:connector-curvature="0" />
    </g>
    <g
       id="g240"
       transform="matrix(0.35277777,0,0,-0.35277777,109.38888,127.57916)">
      <path
         d="m 0,0 c 3.425,0 6.201,2.776 6.201,6.201 0,3.425 -2.776,6.201 -6.201,6.201 -3.425,0 -6.201,-2.776 -6.201,-6.201 C -6.201,2.776 -3.425,0 0,0 Z"
         style="fill:none;stroke:#a3afb7;stroke-width:1;stroke-linecap:butt;stroke-linejoin:miter;stroke-miterlimit:10;stroke-dasharray:none;stroke-opacity:1"
         id="path242"
         inkscape:connector-curvature="0" />
    </g>
    <g
       id="g244"
       transform="matrix(0.35277777,0,0,-0.35277777,85.012258,144.89211)">
      <path
         d="M 0,0 C 2.291,0 4.148,1.857 4.148,4.149 4.148,6.44 2.291,8.297 0,8.297 -2.292,8.297 -4.149,6.44 -4.149,4.149 -4.149,1.857 -2.292,0 0,0 Z"
         style="fill:none;stroke:#a3afb7;stroke-width:1;stroke-linecap:butt;stroke-linejoin:miter;stroke-miterlimit:10;stroke-dasharray:none;stroke-opacity:1"
         id="path246"
         inkscape:connector-curvature="0" />
    </g>
    <g
       id="g248"
       transform="matrix(0.35277777,0,0,-0.35277777,85.012258,146.33046)">
      <path
         d="m 0,0 c 4.543,0 8.226,3.683 8.226,8.226 0,4.543 -3.683,8.226 -8.226,8.226 -4.543,0 -8.226,-3.683 -8.226,-8.226 C -8.226,3.683 -4.543,0 0,0 Z"
         style="fill:none;stroke:#a3afb7;stroke-width:1;stroke-linecap:butt;stroke-linejoin:miter;stroke-miterlimit:10;stroke-dasharray:none;stroke-opacity:1"
         id="path250"
         inkscape:connector-curvature="0" />
    </g>
    <g
       id="g252"
       transform="matrix(0.35277777,0,0,-0.35277777,77.307309,121.46273)">
      <path
         d="M 0,0 H 32.218 L 44.874,-11.137 H 84.739"
         style="fill:none;stroke:#a3afb7;stroke-width:1;stroke-linecap:round;stroke-linejoin:round;stroke-miterlimit:10;stroke-dasharray:none;stroke-opacity:1"
         id="path254"
         inkscape:connector-curvature="0" />
    </g>
    <g
       id="g256"
       transform="matrix(0.35277777,0,0,-0.35277777,93.315799,129.76677)">
      <path
         d="M 0,0 H -12.654 L -25.562,-10.125 H -45.378"
         style="fill:none;stroke:#a3afb7;stroke-width:1;stroke-linecap:round;stroke-linejoin:round;stroke-miterlimit:10;stroke-dasharray:none;stroke-opacity:1"
         id="path258"
         inkscape:connector-curvature="0" />
    </g>
    <g
       id="g260"
       transform="matrix(0.35277777,0,0,-0.35277777,77.307309,137.08881)">
      <path
         d="m 0,0 h 42.343 l 10.124,-10.125 h 5.732"
         style="fill:none;stroke:#a3afb7;stroke-width:1;stroke-linecap:round;stroke-linejoin:round;stroke-miterlimit:10;stroke-dasharray:none;stroke-opacity:1"
         id="path262"
         inkscape:connector-curvature="0" />
    </g>
    <g
       id="g264"
       transform="matrix(0.35277777,0,0,-0.35277777,137.93048,145.48227)">
      <path
         d="m 0,0 h -85.084 l -12.78,-11.39 h -17.211 l -20.502,17.212 h -6.201"
         style="fill:none;stroke:#a3afb7;stroke-width:1;stroke-linecap:round;stroke-linejoin:round;stroke-miterlimit:10;stroke-dasharray:none;stroke-opacity:1"
         id="path266"
         inkscape:connector-curvature="0" />
    </g>
  </g>
</svg>
