<svg xmlns="http://www.w3.org/2000/svg" viewBox="0 0 360.71486 200.84159"><defs><style>.a{fill:#fff;}.b,.d{fill:none;stroke-linecap:round;}.b,.c{stroke:#ccd5db;stroke-miterlimit:10;}.c{fill:#5a9f7e;}.d{stroke:#fff;stroke-linejoin:round;stroke-width:1.5px;}</style></defs><title>wallet_usd</title><path class="a" d="M344.16824,190.175v4.97132A5.3513,5.3513,0,0,1,338.81937,200.5h-317.4A21.21409,21.21409,0,0,1,.21486,179.27629V8.02071h0A7.51729,7.51729,0,0,1,7.72874.5H352.57362a5.3513,5.3513,0,0,1,5.34887,5.35373V88.45411h.50942a1.78377,1.78377,0,0,1,1.783,1.78458v36.2014a1.78378,1.78378,0,0,1-1.783,1.78458h-.50941v56.59655a5.3513,5.3513,0,0,1-5.34887,5.35373Z"/><line class="b" x1="10.80751" y1="44.82433" x2="10.80751" y2="97.555"/><line class="b" x1="10.80751" y1="121.24559" x2="10.80751" y2="141.87933"/><line class="b" x1="143.37533" y1="190.02472" x2="209.80153" y2="190.02472"/><line class="b" x1="233.47063" y1="190.02472" x2="247.9775" y2="190.02472"/><line class="b" x1="263.24789" y1="190.02472" x2="287.68051" y2="190.02472"/><line class="b" x1="334.2552" y1="77.68547" x2="334.2552" y2="46.35275"/><path class="b" d="M327.51739,88.38445h30.91593a1.78235,1.78235,0,0,1,1.78154,1.78316v36.17273a1.78235,1.78235,0,0,1-1.78154,1.78316h-52.2218a5.70269,5.70269,0,0,1-4.03428-1.67257l-8.06382-8.07114a15.4107,15.4107,0,0,1,0-21.78006L300.6502,90.057a5.70269,5.70269,0,0,1,4.03428-1.67257h12.90716"/><ellipse class="b" cx="322.17276" cy="109.01819" rx="7.63519" ry="7.64213"/><path class="b" d="M344.181,190.02472h8.39872a5.34706,5.34706,0,0,0,5.34463-5.34949V128.1235"/><path class="b" d="M344.181,128.12347V194.9921a5.34706,5.34706,0,0,1-5.34463,5.34949H21.68767A21.19729,21.19729,0,0,1,.5,179.13469V8.01476"/><path class="b" d="M357.9243,88.38445V5.84949A5.34706,5.34706,0,0,0,352.57967.5H8.00793A7.51134,7.51134,0,0,0,.5,8.01475h0A4.32858,4.32858,0,0,0,4.82661,12.3453H338.83632a5.34705,5.34705,0,0,1,5.34463,5.34948V88.38447"/><path class="c" d="M318.164,58.026,303.19936,47.96586,288.23474,58.026a2.05535,2.05535,0,0,1-3.202-1.70573V.5H321.366V56.32028A2.05534,2.05534,0,0,1,318.164,58.026Z"/><path class="d" d="M307.293,19.737h0a2.97829,2.97829,0,0,0-2.97828-2.97829h-3.21414a3.57415,3.57415,0,0,0-3.57414,3.57415h0a3.57414,3.57414,0,0,0,3.57414,3.57414h3.5326a4.2391,4.2391,0,0,1,4.2391,4.2391h0a4.2391,4.2391,0,0,1-4.2391,4.2391h-4.12846a2.97828,2.97828,0,0,1-2.97828-2.97828v-.90526"/><line class="d" x1="301.3841" y1="14.09883" x2="301.3841" y2="16.75866"/><line class="d" x1="304.25173" y1="14.09883" x2="304.25173" y2="16.75866"/><line class="d" x1="301.3841" y1="32.38517" x2="301.3841" y2="35.045"/><line class="d" x1="304.25173" y1="32.38517" x2="304.25173" y2="35.045"/></svg>