<?xml version="1.0" encoding="UTF-8" standalone="no"?>
<!DOCTYPE svg PUBLIC "-//W3C//DTD SVG 1.1//EN" "http://www.w3.org/Graphics/SVG/1.1/DTD/svg11.dtd">
<svg width="100%" height="100%" viewBox="0 0 361 201" version="1.1" xmlns="http://www.w3.org/2000/svg" xmlns:xlink="http://www.w3.org/1999/xlink" xml:space="preserve" xmlns:serif="http://www.serif.com/" style="fill-rule:evenodd;clip-rule:evenodd;stroke-linecap:round;stroke-miterlimit:10;">
    <g id="Camada_1-2">
        <path d="M344.17,190.17L344.17,195.17C344.165,198.103 341.753,200.515 338.82,200.52L21.42,200.52C9.783,200.515 0.21,190.937 0.21,179.3C0.21,179.293 0.21,179.287 0.21,179.28L0.21,8C0.221,3.882 3.612,0.5 7.73,0.5L352.57,0.5C355.505,0.5 357.92,2.915 357.92,5.85L357.92,88.45L358.43,88.45C359.407,88.45 360.21,89.254 360.21,90.23C360.21,90.233 360.21,90.237 360.21,90.24L360.21,126.44C360.21,126.443 360.21,126.447 360.21,126.45C360.21,127.421 359.411,128.22 358.44,128.22C358.437,128.22 358.433,128.22 358.43,128.22L357.92,128.22L357.92,184.82C357.92,184.823 357.92,184.827 357.92,184.83C357.92,187.759 355.509,190.17 352.58,190.17C352.577,190.17 352.573,190.17 352.57,190.17L344.17,190.17Z" style="fill:white;fill-rule:nonzero;"/>
        <path d="M10.81,44.82L10.81,97.55" style="fill:none;stroke:rgb(204,213,219);stroke-width:1px;"/>
        <path d="M10.81,121.25L10.81,141.88" style="fill:none;stroke:rgb(204,213,219);stroke-width:1px;"/>
        <path d="M143.38,190.02L209.8,190.02" style="fill:none;stroke:rgb(204,213,219);stroke-width:1px;"/>
        <path d="M233.47,190.02L247.98,190.02" style="fill:none;stroke:rgb(204,213,219);stroke-width:1px;"/>
        <path d="M263.25,190.02L287.68,190.02" style="fill:none;stroke:rgb(204,213,219);stroke-width:1px;"/>
        <path d="M334.26,77.69L334.26,46.35" style="fill:none;stroke:rgb(204,213,219);stroke-width:1px;"/>
        <path d="M327.52,88.38L358.43,88.38C359.407,88.38 360.21,89.184 360.21,90.16C360.21,90.163 360.21,90.167 360.21,90.17L360.21,126.34C360.21,126.343 360.21,126.347 360.21,126.35C360.21,127.321 359.411,128.12 358.44,128.12C358.437,128.12 358.433,128.12 358.43,128.12L306.21,128.12C304.709,128.112 303.271,127.511 302.21,126.45L294.14,118.38C288.171,112.404 288.171,102.576 294.14,96.6L300.68,90.06C301.74,88.996 303.178,88.392 304.68,88.38L317.59,88.38" style="fill:none;stroke:rgb(204,213,219);stroke-width:1px;"/>
        <circle cx="322.17" cy="109.02" r="7.64" style="fill:none;stroke:rgb(204,213,219);stroke-width:1px;"/>
        <path d="M344.18,190L352.58,190C355.509,190 357.92,187.589 357.92,184.66L357.92,128.12" style="fill:none;stroke:rgb(204,213,219);stroke-width:1px;"/>
        <path d="M344.18,128.12L344.18,195C344.18,195.003 344.18,195.007 344.18,195.01C344.18,197.939 341.769,200.35 338.84,200.35C338.84,200.35 338.84,200.35 338.84,200.35L21.69,200.35C10.064,200.345 0.5,190.776 0.5,179.15C0.5,179.143 0.5,179.137 0.5,179.13L0.5,8" style="fill:none;stroke:rgb(204,213,219);stroke-width:1px;"/>
        <path d="M357.92,88.38L357.92,5.85C357.92,2.919 355.511,0.505 352.58,0.5L8,0.5C3.888,0.505 0.505,3.888 0.5,8C0.5,8.003 0.5,8.007 0.5,8.01C0.5,10.385 2.455,12.34 4.83,12.34L338.83,12.34C341.759,12.34 344.17,14.751 344.17,17.68L344.17,88.38" style="fill:none;stroke:rgb(204,213,219);stroke-width:1px;"/>
    </g>
</svg>
