<svg xmlns="http://www.w3.org/2000/svg" viewBox="0 0 360.71 200.84"><defs><style>.cls-1{fill:#fff;}.cls-2{fill:none;stroke:#ccd5db;stroke-linecap:round;stroke-miterlimit:10;}.cls-3{fill:#ccd5db;opacity:0.46;}</style></defs><title>wallet-global</title><g id="Camada_2" data-name="Camada 2"><g id="Camada_1-2" data-name="Camada 1"><path class="cls-1" d="M344.17,190.17v5a5.36,5.36,0,0,1-5.35,5.35H21.42A21.22,21.22,0,0,1,.21,179.28V8h0A7.52,7.52,0,0,1,7.73.5H352.57a5.35,5.35,0,0,1,5.35,5.35v82.6h.51a1.78,1.78,0,0,1,1.78,1.79v36.2a1.77,1.77,0,0,1-1.78,1.78h-.51v56.6a5.34,5.34,0,0,1-5.35,5.35Z"/><line class="cls-2" x1="10.81" y1="44.82" x2="10.81" y2="97.55"/><line class="cls-2" x1="10.81" y1="121.25" x2="10.81" y2="141.88"/><line class="cls-2" x1="143.38" y1="190.02" x2="209.8" y2="190.02"/><line class="cls-2" x1="233.47" y1="190.02" x2="247.98" y2="190.02"/><line class="cls-2" x1="263.25" y1="190.02" x2="287.68" y2="190.02"/><line class="cls-2" x1="334.26" y1="77.69" x2="334.26" y2="46.35"/><path class="cls-2" d="M327.52,88.38h30.91a1.78,1.78,0,0,1,1.78,1.79v36.17a1.77,1.77,0,0,1-1.78,1.78H306.21a5.7,5.7,0,0,1-4-1.67l-8.07-8.07a15.41,15.41,0,0,1,0-21.78l6.54-6.54a5.71,5.71,0,0,1,4-1.68h12.91"/><ellipse class="cls-2" cx="322.17" cy="109.02" rx="7.64" ry="7.64"/><path class="cls-2" d="M344.18,190h8.4a5.34,5.34,0,0,0,5.34-5.34V128.12"/><path class="cls-3" d="M90.07,133.15a.39.39,0,0,0,0-.22l-.21-.22A83.9,83.9,0,0,0,.21,105v16.6c6.17-7.09,13.2-11.39,20.54-12.45v40A125.4,125.4,0,0,1,.21,147v7.44a133.54,133.54,0,0,0,20.54,2.1V182H.43a21,21,0,0,0,2.36,7.29h18l0,11,.61,0H28V189.27H68.52c-.08,3.7-.34,7.4-.75,11.07h7.37c.41-3.67.67-7.37.75-11.07h25.23a75.87,75.87,0,0,1-1.33,11.07h7.4A83.82,83.82,0,0,0,90.07,133.15Zm-8.46,1.42a79.43,79.43,0,0,1-13.42,6.89,77.77,77.77,0,0,0-17.14-27.71A76.89,76.89,0,0,1,81.61,134.57ZM28,109c14,2,26.15,15.32,33.41,34.68A121,121,0,0,1,28,149.16ZM28,182V156.45a128.31,128.31,0,0,0,35.7-5.83A122.83,122.83,0,0,1,68.52,182Zm47.85,0a127.57,127.57,0,0,0-5.33-33.77,86.75,86.75,0,0,0,15.69-8.13A76.35,76.35,0,0,1,101.12,182Z"/><path class="cls-2" d="M344.18,128.12V195a5.34,5.34,0,0,1-5.34,5.35H21.69A21.2,21.2,0,0,1,.5,179.13V8"/><path class="cls-2" d="M357.92,88.38V5.85A5.35,5.35,0,0,0,352.58.5H8A7.51,7.51,0,0,0,.5,8h0a4.33,4.33,0,0,0,4.33,4.34h334a5.34,5.34,0,0,1,5.34,5.34V88.38"/></g></g></svg>