<svg xmlns="http://www.w3.org/2000/svg" viewBox="0 0 360.71 200.84"><defs><style>.cls-1{fill:#fff;}.cls-2{fill:#e8ecef;}.cls-3{fill:none;stroke:#ccd5db;stroke-linecap:round;stroke-miterlimit:10;}</style></defs><title>wallet-personal</title><g id="Camada_2" data-name="Camada 2"><g id="Camada_1-2" data-name="Camada 1"><path class="cls-1" d="M344.17,190.17v5a5.36,5.36,0,0,1-5.35,5.35H21.42A21.22,21.22,0,0,1,.21,179.28V8h0A7.52,7.52,0,0,1,7.73.5H352.57a5.35,5.35,0,0,1,5.35,5.35v82.6h.51a1.78,1.78,0,0,1,1.78,1.79v36.2a1.77,1.77,0,0,1-1.78,1.78h-.51v56.6a5.34,5.34,0,0,1-5.35,5.35Z"/><path class="cls-2" d="M44.49,160.09c-18.78,0-33.84,5-44,14v5a21.08,21.08,0,0,0,2.84,10.58C13.52,174,36.21,172.42,44.49,172.42c9.85,0,40.13,2.17,45.42,27.92h12.52C98.66,175.29,77.18,160.09,44.49,160.09Z"/><path class="cls-2" d="M44.49,95.39a29.27,29.27,0,1,0,29.27,29.27A29.27,29.27,0,0,0,44.49,95.39Zm0,46.21a16.95,16.95,0,1,1,16.95-16.94A16.94,16.94,0,0,1,44.49,141.6Z"/><line class="cls-3" x1="10.81" y1="44.82" x2="10.81" y2="97.55"/><line class="cls-3" x1="10.81" y1="121.25" x2="10.81" y2="141.88"/><line class="cls-3" x1="143.38" y1="190.02" x2="209.8" y2="190.02"/><line class="cls-3" x1="233.47" y1="190.02" x2="247.98" y2="190.02"/><line class="cls-3" x1="263.25" y1="190.02" x2="287.68" y2="190.02"/><line class="cls-3" x1="334.26" y1="77.69" x2="334.26" y2="46.35"/><path class="cls-3" d="M327.52,88.38h30.91a1.78,1.78,0,0,1,1.78,1.79v36.17a1.77,1.77,0,0,1-1.78,1.78H306.21a5.7,5.7,0,0,1-4-1.67l-8.07-8.07a15.41,15.41,0,0,1,0-21.78l6.54-6.54a5.71,5.71,0,0,1,4-1.68h12.91"/><ellipse class="cls-3" cx="322.17" cy="109.02" rx="7.64" ry="7.64"/><path class="cls-3" d="M344.18,190h8.4a5.34,5.34,0,0,0,5.34-5.34V128.12"/><path class="cls-3" d="M344.18,128.12V195a5.34,5.34,0,0,1-5.34,5.35H21.69A21.2,21.2,0,0,1,.5,179.13V8"/><path class="cls-3" d="M357.92,88.38V5.85A5.35,5.35,0,0,0,352.58.5H8A7.51,7.51,0,0,0,.5,8h0a4.33,4.33,0,0,0,4.33,4.34h334a5.34,5.34,0,0,1,5.34,5.34V88.38"/></g></g></svg>