<svg xmlns="http://www.w3.org/2000/svg" viewBox="0 0 100 100"><defs><style>.cls-1{fill:#f7f7f7;}.cls-2{fill:#eeeeef;}.cls-3,.cls-5{fill:none;stroke:#76838f;}.cls-3{stroke-linecap:round;stroke-linejoin:round;}.cls-4{fill:#76838f;}.cls-5{stroke-miterlimit:10;}.cls-6{fill:#fff;}</style></defs><title>webcam</title><g id="Camada_2" data-name="Camada 2"><g id="Capa_1" data-name="Capa 1"><circle class="cls-1" cx="50" cy="50" r="50"/><circle class="cls-2" cx="50" cy="50" r="41.1"/><path class="cls-3" d="M45.2,62.4c-3.4,1-5.7,3-5.7,5.3,0,1.8,4.6,3.2,10.4,3.2s10.4-1.4,10.4-3.2c0-2.3-2.3-4.3-5.7-5.3"/><path class="cls-3" d="M50,28.9A17.1,17.1,0,1,1,32.9,46,17.16,17.16,0,0,1,50,28.9Z"/><path class="cls-4" d="M50,30.9a1.3,1.3,0,1,1-1.3,1.3A1.26,1.26,0,0,1,50,30.9Z"/><path class="cls-5" d="M50,35.5A10.5,10.5,0,1,0,60.5,46,10.5,10.5,0,0,0,50,35.5Z"/><path class="cls-5" d="M50,40.1A5.9,5.9,0,1,0,55.9,46,6,6,0,0,0,50,40.1Z"/><path class="cls-4" d="M50,43.1a3,3,0,1,0,3,3A3.07,3.07,0,0,0,50,43.1Z"/><path class="cls-6" d="M49.1,44.4a.79.79,0,0,1,.8.8.86.86,0,0,1-.8.8.8.8,0,1,1,0-1.6Z"/><path class="cls-3" d="M42.6,63.6c1.2,1.2,4,2.1,7.4,2.1s6.2-.9,7.4-2.1"/></g></g></svg>