<svg xmlns="http://www.w3.org/2000/svg" viewBox="0 0 100 100"><defs><style>.cls-1{fill:#dcdcfa;}.cls-2{fill:#bbbbe6;}.cls-3{fill:none;}.cls-4{fill:#787680;}.cls-5{fill:#f1cfa2;}.cls-6{fill:#1e81ce;}.cls-7{fill:#898890;}.cls-8{fill:#ffdaaa;}.cls-9{fill:#3d9ae2;}.cls-10{fill:#a478bf;}.cls-11{fill:#debf95;}</style></defs><title>welcome</title><g id="Camada_2" data-name="Camada 2"><g id="Capa_1" data-name="Capa 1"><circle class="cls-1" cx="50" cy="50" r="50"/><circle class="cls-2" cx="50" cy="50" r="41.1" transform="translate(-2.69 2.84) rotate(-3.17)"/><path class="cls-3" d="M42.25,60.07c-.3-.1-.6-.2-.89-.32C41.66,59.87,42,60,42.25,60.07Z"/><path class="cls-3" d="M53.55,59.75c-.29.12-.59.22-.89.32A9.44,9.44,0,0,0,53.55,59.75Z"/><path class="cls-3" d="M47.44,60.93A14.52,14.52,0,0,1,46,60.85C46.46,60.9,47,60.93,47.44,60.93Z"/><path class="cls-3" d="M43.89,60.53c-.38-.08-.75-.18-1.12-.29C43.14,60.35,43.51,60.45,43.89,60.53Z"/><path class="cls-3" d="M52.15,60.24c-.37.11-.75.21-1.13.29C51.4,60.45,51.77,60.35,52.15,60.24Z"/><path class="cls-3" d="M50.58,60.62q-.64.14-1.32.21Q49.92,60.76,50.58,60.62Z"/><path class="cls-3" d="M49,60.85a14.52,14.52,0,0,1-1.48.08A14.68,14.68,0,0,0,49,60.85Z"/><path class="cls-3" d="M45.65,60.83c-.44,0-.89-.12-1.32-.21Q45,60.76,45.65,60.83Z"/><path class="cls-3" d="M27.13,68.09l8.34-2.21,4.39-1.15V59.07c.32.17.66.32,1,.47A16.49,16.49,0,0,1,31.2,47H29.72a3.8,3.8,0,0,1-1.62-7.24L26.42,29.68A2.5,2.5,0,0,1,27,27.63a2.53,2.53,0,0,1,1.93-.9h.88a16.21,16.21,0,0,1-2.6-8.87H62.4a5.08,5.08,0,0,1,5.06,5.32l-.83,16.51A3.8,3.8,0,0,1,65.19,47H63.71a16.47,16.47,0,0,1-9.65,12.54c.34-.15.67-.3,1-.47v5.66l4.38,1.15,8.35,2.21A15.16,15.16,0,0,1,78.73,79.38a41.1,41.1,0,1,0-61-4A15.16,15.16,0,0,1,27.13,68.09Z"/><path class="cls-4" d="M31,39.4V36.86A16.39,16.39,0,0,1,32.5,30L32,29.5a16,16,0,0,1-2.23-2.77h-.88a2.53,2.53,0,0,0-1.93.9,2.5,2.5,0,0,0-.56,2.05L28.1,39.76a3.65,3.65,0,0,1,1.62-.36Z"/><path class="cls-5" d="M31,39.4H29.72a3.65,3.65,0,0,0-1.62.36A3.8,3.8,0,0,0,29.72,47H31.2A17.64,17.64,0,0,1,31,44.46Z"/><path class="cls-6" d="M67.79,68.09l-8.35-2.21,3.22,6.45-3.8,3.8,3.8,2.53L59.24,90A41,41,0,0,0,78.73,79.38,15.16,15.16,0,0,0,67.79,68.09Z"/><path class="cls-5" d="M63.92,39.4v5.06A16.32,16.32,0,0,1,63.71,47h1.48a3.8,3.8,0,0,0,1.44-7.31,3.37,3.37,0,0,0-1.44-.29Z"/><path class="cls-7" d="M32.5,30a16.42,16.42,0,0,0,11.16,4.36s12.66,0,17.73-5.07a16.58,16.58,0,0,1,2.53,7.59V39.4h1.27a3.37,3.37,0,0,1,1.44.29l.83-16.51a5.08,5.08,0,0,0-5.06-5.32H27.19a16.21,16.21,0,0,0,2.6,8.87A16,16,0,0,0,32,29.5Z"/><path class="cls-8" d="M42.25,60.07l.52.17c.37.11.74.21,1.12.29l.44.09c.43.09.88.16,1.32.21l.31,0a14.52,14.52,0,0,0,1.48.08h0A14.52,14.52,0,0,0,49,60.85l.31,0q.68-.07,1.32-.21l.44-.09c.38-.08.76-.18,1.13-.29l.51-.17c.3-.1.6-.2.89-.32l.51-.21A16.47,16.47,0,0,0,63.71,47H62.66V39.4h1.26V36.85a16.58,16.58,0,0,0-2.53-7.59c-5.07,5.07-17.73,5.07-17.73,5.07A16.42,16.42,0,0,1,32.5,30,16.39,16.39,0,0,0,31,36.86V39.4h1.27V47H31.2a16.49,16.49,0,0,0,9.65,12.54l.51.21C41.65,59.87,42,60,42.25,60.07ZM55.67,38.74a3.52,3.52,0,0,1,3.52,3.52H56.84a1.17,1.17,0,1,0-2.34,0H52.15A3.52,3.52,0,0,1,55.67,38.74ZM43.94,39.91h2.34V44.6a1.18,1.18,0,1,0,2.35,0V39.91H51V44.6a3.52,3.52,0,1,1-7,0Zm3.52,11.73a7,7,0,0,0,5.21-1.94l1.77,1.54a9.25,9.25,0,0,1-7,2.75,9.27,9.27,0,0,1-7-2.75l1.77-1.54A7,7,0,0,0,47.46,51.64ZM39.24,41.08a1.17,1.17,0,0,0-1.17,1.18H35.72a3.52,3.52,0,0,1,7,0H40.42A1.18,1.18,0,0,0,39.24,41.08Z"/><path class="cls-8" d="M32.26,44.46V39.4H31v5.06A17.64,17.64,0,0,0,31.2,47h1.06Z"/><path class="cls-8" d="M63.92,39.4H62.66V47h1.05a16.32,16.32,0,0,0,.21-2.54Z"/><path class="cls-9" d="M58.86,76.13l3.8-3.8-3.22-6.45-4.38-1.15V90.78A38.43,38.43,0,0,0,59.24,90l3.42-11.38Z"/><path class="cls-10" d="M47.46,72.33a7.6,7.6,0,0,1-7.6-7.6V89.84A41.3,41.3,0,0,0,50,91.1a42.3,42.3,0,0,0,5.06-.32v-26A7.6,7.6,0,0,1,47.46,72.33Z"/><path class="cls-8" d="M47.46,72.33a7.6,7.6,0,0,0,7.6-7.6V61.6a16.46,16.46,0,0,1-15.2,0v3.13A7.6,7.6,0,0,0,47.46,72.33Z"/><path class="cls-9" d="M35.47,65.88l-3.21,6.45,3.8,3.8-3.8,2.53,2.9,9.66a39.05,39.05,0,0,0,4.7,1.52V64.73Z"/><path class="cls-6" d="M35.16,88.32l-2.9-9.66,3.8-2.53-3.8-3.8,3.21-6.45-8.34,2.21A15.16,15.16,0,0,0,17.7,75.4,41.12,41.12,0,0,0,35.16,88.32Z"/><path class="cls-5" d="M55.06,61.6V59.07c-.33.17-.66.32-1,.47l-.51.21a9.44,9.44,0,0,1-.89.32l-.51.17c-.38.11-.75.21-1.13.29l-.44.09q-.66.14-1.32.21l-.31,0a14.68,14.68,0,0,1-1.48.08h0c-.49,0-1,0-1.48-.08l-.31,0q-.66-.07-1.32-.21l-.44-.09c-.38-.08-.75-.18-1.12-.29l-.52-.17c-.3-.09-.59-.2-.89-.32l-.51-.21c-.33-.15-.67-.3-1-.47V61.6A16.46,16.46,0,0,0,55.06,61.6Z"/><path class="cls-5" d="M51,60.53l-.44.09Z"/><path class="cls-5" d="M52.66,60.07l-.51.17Z"/><path class="cls-5" d="M54.06,59.54l-.51.21Z"/><path class="cls-5" d="M49.26,60.83l-.31,0Z"/><path class="cls-5" d="M40.85,59.54l.51.21Z"/><path class="cls-5" d="M46,60.85l-.31,0Z"/><path class="cls-5" d="M42.77,60.24l-.52-.17Z"/><path class="cls-5" d="M44.33,60.62l-.44-.09Z"/><path class="cls-5" d="M47.44,60.93h0Z"/><path class="cls-11" d="M47.46,48.12A3.52,3.52,0,0,0,51,44.6V39.91H48.63V44.6a1.18,1.18,0,1,1-2.35,0V39.91H43.94V44.6A3.51,3.51,0,0,0,47.46,48.12Z"/><path class="cls-11" d="M55.67,41.08a1.17,1.17,0,0,1,1.17,1.18h2.35a3.52,3.52,0,0,0-7,0H54.5A1.17,1.17,0,0,1,55.67,41.08Z"/><path class="cls-11" d="M39.24,38.74a3.52,3.52,0,0,0-3.52,3.52h2.35a1.18,1.18,0,1,1,2.35,0h2.34A3.51,3.51,0,0,0,39.24,38.74Z"/><path class="cls-11" d="M40.47,51.24a9.27,9.27,0,0,0,7,2.75,9.25,9.25,0,0,0,7-2.75L52.67,49.7a7,7,0,0,1-5.21,1.94,7,7,0,0,1-5.22-1.94Z"/><path class="cls-5" d="M82.3,69a5.26,5.26,0,0,1-1.7.4H74a4.19,4.19,0,0,1-1.6-.4v.9h0v14.6A39.9,39.9,0,0,0,79,79.14h0l.15-.15.12-.12h0a36,36,0,0,0,3-3.42Z"/><path class="cls-8" d="M84,60V52a1.5,1.5,0,1,0-3,0v5.3h-.4v-7.6a1.5,1.5,0,0,0-3,0v7.6h-.5v-9.6a1.5,1.5,0,0,0-3,0v9.6h-.6v-7.6a1.5,1.5,0,0,0-3,0v13.4l-2.2-2.4A1.63,1.63,0,0,0,66,63l5.5,5.5a2.09,2.09,0,0,0,.6.4c.1,0,.1.1.2.1a2.93,2.93,0,0,0,1.6.4h6.7a4.19,4.19,0,0,0,1.6-.4,3.47,3.47,0,0,0,1.9-3v-5.3A1.7,1.7,0,0,0,84,60Z"/></g></g></svg>